<?xml version="1.0" encoding="UTF-8" standalone="no"?>
<!-- Created with Inkscape (http://www.inkscape.org/) -->

<svg
   xmlns:dc="http://purl.org/dc/elements/1.1/"
   xmlns:cc="http://creativecommons.org/ns#"
   xmlns:rdf="http://www.w3.org/1999/02/22-rdf-syntax-ns#"
   xmlns:svg="http://www.w3.org/2000/svg"
   xmlns="http://www.w3.org/2000/svg"
   xmlns:xlink="http://www.w3.org/1999/xlink"
   xmlns:sodipodi="http://sodipodi.sourceforge.net/DTD/sodipodi-0.dtd"
   xmlns:inkscape="http://www.inkscape.org/namespaces/inkscape"
   width="512"
   height="512"
   id="svg3936"
   version="1.1"
   inkscape:version="0.48.2 r9819"
   sodipodi:docname="nciku_logo.svg"
   inkscape:export-filename="/Users/axolotl/Pictures/FLUID LOGOS/nciku_logo.png"
   inkscape:export-xdpi="90"
   inkscape:export-ydpi="90">
  <defs
     id="defs3938">
    <linearGradient
       id="linearGradient4847">
      <stop
         style="stop-color:#000000;stop-opacity:0.49803922;"
         offset="0"
         id="stop4849" />
      <stop
         style="stop-color:#000000;stop-opacity:0;"
         offset="1"
         id="stop4851" />
    </linearGradient>
    <linearGradient
       id="linearGradient4839">
      <stop
         style="stop-color:#000000;stop-opacity:0.49803922;"
         offset="0"
         id="stop4841" />
      <stop
         style="stop-color:#000000;stop-opacity:0;"
         offset="1"
         id="stop4843" />
    </linearGradient>
    <linearGradient
       id="linearGradient4826">
      <stop
         style="stop-color:#ffffff;stop-opacity:0.62352943;"
         offset="0"
         id="stop4828" />
      <stop
         id="stop4830"
         offset="0.52199966"
         style="stop-color:#ffffff;stop-opacity:0.87450981;" />
      <stop
         style="stop-color:#ffffff;stop-opacity:0"
         offset="1"
         id="stop4832" />
    </linearGradient>
    <linearGradient
       id="linearGradient4761">
      <stop
         id="stop4763"
         offset="0"
         style="stop-color:#ffffff;stop-opacity:0.81176472;" />
      <stop
         style="stop-color:#ffffff;stop-opacity:0.87450981;"
         offset="0.75"
         id="stop4765" />
      <stop
         id="stop4767"
         offset="1"
         style="stop-color:#ffffff;stop-opacity:0" />
    </linearGradient>
    <linearGradient
       id="linearGradient4743">
      <stop
         style="stop-color:#000000;stop-opacity:0.74901962;"
         offset="0"
         id="stop4745" />
      <stop
         id="stop4751"
         offset="0.65653574"
         style="stop-color:#3f4f47;stop-opacity:0.62352943;" />
      <stop
         style="stop-color:#5f5f5f;stop-opacity:0.49803922;"
         offset="1"
         id="stop4747" />
    </linearGradient>
    <linearGradient
       id="linearGradient4733">
      <stop
         id="stop4818"
         offset="0"
         style="stop-color:#000000;stop-opacity:0;" />
      <stop
         id="stop4741"
         offset="1"
         style="stop-color:#000000;stop-opacity:0.74901962;" />
    </linearGradient>
    <linearGradient
       inkscape:collect="always"
       xlink:href="#linearGradient4743"
       id="linearGradient4780"
       gradientUnits="userSpaceOnUse"
       gradientTransform="translate(-5.0956154,36.676056)"
       x1="443.21429"
       y1="780.93359"
       x2="311.07147"
       y2="195.21931" />
    <linearGradient
       inkscape:collect="always"
       xlink:href="#linearGradient4733"
       id="linearGradient4782"
       gradientUnits="userSpaceOnUse"
       gradientTransform="translate(-5.0956154,36.676056)"
       x1="45.214283"
       y1="160.93361"
       x2="709.07147"
       y2="820.93359" />
    <linearGradient
       inkscape:collect="always"
       xlink:href="#linearGradient4761"
       id="linearGradient4784"
       gradientUnits="userSpaceOnUse"
       gradientTransform="matrix(0.94890511,0,0,0.40567549,14.174458,142.90283)"
       x1="361.9176"
       y1="175.24187"
       x2="359.24728"
       y2="800.91101" />
    <linearGradient
       inkscape:collect="always"
       xlink:href="#linearGradient4826"
       id="linearGradient4808"
       gradientUnits="userSpaceOnUse"
       gradientTransform="matrix(0.66492621,0,0,0.28426896,5.2278308,527.78763)"
       x1="111.49879"
       y1="154.59875"
       x2="378.0011"
       y2="942.8324" />
    <linearGradient
       inkscape:collect="always"
       xlink:href="#linearGradient4743"
       id="linearGradient4812"
       gradientUnits="userSpaceOnUse"
       gradientTransform="matrix(0.70072993,0,0,0.70072993,-8.2752864,453.35135)"
       x1="312.36423"
       y1="198.91258"
       x2="440.87473"
       y2="778.28711" />
    <radialGradient
       inkscape:collect="always"
       xlink:href="#linearGradient4733"
       id="radialGradient4816"
       cx="256"
       cy="796.36218"
       fx="256"
       fy="796.36218"
       r="240"
       gradientTransform="matrix(0.98347867,0.98393211,-0.98618877,0.98573427,789.5929,-240.52602)"
       gradientUnits="userSpaceOnUse" />
    <linearGradient
       inkscape:collect="always"
       xlink:href="#linearGradient4839"
       id="linearGradient4845"
       x1="207.25328"
       y1="591.11292"
       x2="238.77536"
       y2="627.37653"
       gradientUnits="userSpaceOnUse" />
    <linearGradient
       inkscape:collect="always"
       xlink:href="#linearGradient4847"
       id="linearGradient4853"
       x1="317.86642"
       y1="618.11578"
       x2="319.65799"
       y2="633.56561"
       gradientUnits="userSpaceOnUse" />
    <filter
       inkscape:collect="always"
       id="filter5508">
      <feGaussianBlur
         inkscape:collect="always"
         stdDeviation="1.0210676"
         id="feGaussianBlur5510" />
    </filter>
    <filter
       inkscape:collect="always"
       id="filter5520">
      <feGaussianBlur
         inkscape:collect="always"
         stdDeviation="0.89227258"
         id="feGaussianBlur5522" />
    </filter>
  </defs>
  <sodipodi:namedview
     id="base"
     pagecolor="#ffffff"
     bordercolor="#666666"
     borderopacity="1.0"
     inkscape:pageopacity="0.0"
     inkscape:pageshadow="2"
     inkscape:zoom="1.4541665"
     inkscape:cx="256"
     inkscape:cy="255.99998"
     inkscape:document-units="px"
     inkscape:current-layer="layer1"
     showgrid="false"
     inkscape:window-width="1626"
     inkscape:window-height="916"
     inkscape:window-x="24"
     inkscape:window-y="20"
     inkscape:window-maximized="0" />
  <metadata
     id="metadata3941">
    <rdf:RDF>
      <cc:Work
         rdf:about="">
        <dc:format>image/svg+xml</dc:format>
        <dc:type
           rdf:resource="http://purl.org/dc/dcmitype/StillImage" />
        <dc:title />
      </cc:Work>
    </rdf:RDF>
  </metadata>
  <g
     inkscape:label="Ebene 1"
     inkscape:groupmode="layer"
     id="layer1"
     transform="translate(0,-540.36218)">
    <path
       inkscape:connector-curvature="0"
       style="fill:url(#linearGradient4812);fill-opacity:1;fill-rule:nonzero;stroke:url(#radialGradient4816);stroke-width:3.50364970999999992;stroke-miterlimit:4;stroke-opacity:1"
       d="m 37.888,558.114 436.224,0 c 11.15545,0 20.13618,7.77169 20.13618,17.42532 l 0,441.64568 c 0,9.6537 -8.98073,17.4254 -20.13618,17.4254 l -436.224,0 c -11.155441,0 -20.136175,-7.7717 -20.136175,-17.4254 l 0,-441.64568 c 0,-9.65363 8.980734,-17.42532 20.136175,-17.42532 z"
       id="rect4731" />
    <path
       inkscape:connector-curvature="0"
       style="fill:url(#linearGradient4808);fill-opacity:1;fill-rule:nonzero;stroke:none"
       d="m 49.032407,570.28727 413.935203,0 c 10.58545,0 19.10732,15.65279 19.10732,19.56902 l 0,194.16486 c 0,243.77875 -8.52187,-20.43098 -19.10732,-20.43098 l -413.935203,0 c -10.585454,0 -19.107319,8.20968 -19.107319,20.43098 l 0,-194.16486 c 0,-3.91623 8.521865,-19.56902 19.107319,-19.56902 z"
       id="rect4753"
       sodipodi:nodetypes="sssssssss" />
    <path
       id="path4729"
       d="m 214.36132,592.1432 c -9.65363,0 -17.43066,8.99069 -17.43066,20.14598 l 0,125.0146 -125.014599,0 c -11.155301,0 -20.12409,7.77703 -20.12409,17.43066 l 0,83.25548 c 0,9.65362 8.968789,17.43065 20.12409,17.43065 l 125.014599,0 0,125.0146 c 0,11.1553 7.77703,20.14603 17.43066,20.14603 l 83.27737,0 c 9.65363,0 17.43066,-8.99073 17.43066,-20.14603 l 0,-125.0146 125.0146,0 c 11.15529,0 20.12408,-7.77703 20.12408,-17.43065 l 0,-83.25548 c 0,-9.65363 -8.96879,-17.43066 -20.12408,-17.43066 l -125.0146,0 0,-125.0146 c 0,-11.15529 -7.77703,-20.14598 -17.43066,-20.14598 l -83.27737,0 z"
       style="fill:#98cd49;fill-opacity:0.93725491;fill-rule:nonzero;stroke:none"
       inkscape:connector-curvature="0" />
    <path
       id="path4727"
       d="m 82.15238,681.40055 c -6.826146,6.82615 -5.967955,18.68271 1.920028,26.5707 l 88.398672,88.39867 -88.398672,88.39867 c -7.887983,7.88799 -8.730688,19.72907 -1.904542,26.55521 l 58.870504,58.87052 c 6.82615,6.82614 18.66723,5.98344 26.55522,-1.90455 l 88.39867,-88.39866 88.39868,88.39866 c 7.88798,7.88799 19.74455,8.74617 26.57069,1.92003 l 58.886,-58.886 c 6.82614,-6.82614 5.96795,-18.6827 -1.92003,-26.57069 l -88.39867,-88.39867 88.39867,-88.39868 c 7.88798,-7.88798 8.73069,-19.72906 1.90454,-26.55521 l -58.87051,-58.87051 c -6.82614,-6.82614 -18.66722,-5.98344 -26.55522,1.90455 l -88.39867,88.39866 -88.39867,-88.39866 c -7.88798,-7.88799 -19.74455,-8.74618 -26.5707,-1.92003 l -58.88599,58.88599 z"
       style="fill:#4eb2b8;fill-opacity:1;fill-rule:nonzero;stroke:url(#linearGradient4853);stroke-width:2;stroke-miterlimit:4;stroke-dasharray:none;filter:url(#filter5520)"
       inkscape:connector-curvature="0" />
    <path
       style="fill:#98cd49;fill-opacity:0.46666667000000001;fill-rule:nonzero;stroke:url(#linearGradient4845);stroke-width:2;stroke-miterlimit:4;stroke-dasharray:none;filter:url(#filter5508)"
       d="m 214.36132,592.1432 c -9.65363,0 -17.43066,8.99069 -17.43066,20.14598 l 0,125.0146 -125.014599,0 c -11.155301,0 -20.12409,7.77703 -20.12409,17.43066 l 0,83.25548 c 0,9.65362 8.968789,17.43065 20.12409,17.43065 l 125.014599,0 0,125.0146 c 0,11.1553 7.77703,20.14603 17.43066,20.14603 l 83.27737,0 c 9.65363,0 17.43066,-8.99073 17.43066,-20.14603 l 0,-125.0146 125.0146,0 c 11.15529,0 20.12408,-7.77703 20.12408,-17.43065 l 0,-83.25548 c 0,-9.65363 -8.96879,-17.43066 -20.12408,-17.43066 l -125.0146,0 0,-125.0146 c 0,-11.15529 -7.77703,-20.14598 -17.43066,-20.14598 l -83.27737,0 z"
       id="rect4722"
       inkscape:connector-curvature="0" />
    <path
       style="fill:#2c9332;fill-opacity:1;fill-rule:nonzero;stroke:none"
       d="M 196.9375 113.40625 L 196.9375 196.9375 L 113.40625 196.9375 L 172.46875 256 L 113.40625 315.0625 L 196.9375 315.0625 L 196.9375 398.59375 L 256 339.53125 L 315.0625 398.59375 L 315.0625 315.0625 L 398.59375 315.0625 L 339.53125 256 L 398.59375 196.9375 L 315.0625 196.9375 L 315.0625 113.40625 L 256 172.46875 L 196.9375 113.40625 z "
       transform="translate(0,540.36218)"
       id="path4834" />
  </g>
</svg>
