<?xml version="1.0" encoding="UTF-8" standalone="no"?>
<!-- Created with Inkscape (http://www.inkscape.org/) -->

<svg
   xmlns:dc="http://purl.org/dc/elements/1.1/"
   xmlns:cc="http://creativecommons.org/ns#"
   xmlns:rdf="http://www.w3.org/1999/02/22-rdf-syntax-ns#"
   xmlns:svg="http://www.w3.org/2000/svg"
   xmlns="http://www.w3.org/2000/svg"
   xmlns:xlink="http://www.w3.org/1999/xlink"
   xmlns:sodipodi="http://sodipodi.sourceforge.net/DTD/sodipodi-0.dtd"
   xmlns:inkscape="http://www.inkscape.org/namespaces/inkscape"
   width="512"
   height="512"
   id="svg2"
   version="1.1"
   inkscape:version="0.48.2 r9819"
   sodipodi:docname="bitly.svg"
   inkscape:export-filename="/Users/axolotl/Pictures/FLUID LOGOS/bitly.png"
   inkscape:export-xdpi="90"
   inkscape:export-ydpi="90">
  <defs
     id="defs4">
    <linearGradient
       id="linearGradient3885">
      <stop
         style="stop-color:#ffffff;stop-opacity:0.74901962;"
         offset="0"
         id="stop3887" />
      <stop
         id="stop3895"
         offset="0.18829748"
         style="stop-color:#bfbfbf;stop-opacity:0.62352943;" />
      <stop
         id="stop3893"
         offset="0.3753143"
         style="stop-color:#ffffff;stop-opacity:0.49803922;" />
      <stop
         style="stop-color:#ffffff;stop-opacity:0.74901962;"
         offset="1"
         id="stop3889" />
    </linearGradient>
    <linearGradient
       id="linearGradient4078">
      <stop
         id="stop4080"
         offset="0"
         style="stop-color:#ffffff;stop-opacity:0;" />
      <stop
         style="stop-color:#ffffff;stop-opacity:0;"
         offset="0.74849004"
         id="stop4082" />
      <stop
         id="stop4084"
         offset="0.88086373"
         style="stop-color:#ffffff;stop-opacity:0.24705882;" />
      <stop
         id="stop4086"
         offset="1"
         style="stop-color:#ffffff;stop-opacity:0.81176472;" />
    </linearGradient>
    <linearGradient
       id="linearGradient4070">
      <stop
         style="stop-color:#000000;stop-opacity:0.37254903;"
         offset="0"
         id="stop4072" />
      <stop
         style="stop-color:#000000;stop-opacity:0;"
         offset="1"
         id="stop4074" />
    </linearGradient>
    <linearGradient
       id="linearGradient4020">
      <stop
         id="stop4034"
         offset="0"
         style="stop-color:#6597fd;stop-opacity:1;" />
      <stop
         id="stop4032"
         offset="0.84659487"
         style="stop-color:#6597fd;stop-opacity:1;" />
      <stop
         style="stop-color:#65bffd;stop-opacity:1;"
         offset="1"
         id="stop4024" />
    </linearGradient>
    <linearGradient
       id="linearGradient3991">
      <stop
         style="stop-color:#ffffff;stop-opacity:0;"
         offset="0"
         id="stop3993" />
      <stop
         id="stop4001"
         offset="0.5"
         style="stop-color:#ffffff;stop-opacity:0;" />
      <stop
         style="stop-color:#ffffff;stop-opacity:0.24705882;"
         offset="0.75"
         id="stop4003" />
      <stop
         style="stop-color:#ffffff;stop-opacity:0.81176472;"
         offset="1"
         id="stop3995" />
    </linearGradient>
    <radialGradient
       inkscape:collect="always"
       xlink:href="#linearGradient3991"
       id="radialGradient4018"
       gradientUnits="userSpaceOnUse"
       gradientTransform="matrix(-0.94852229,-0.96317325,0.97539126,-0.96055445,65.099953,1196.7419)"
       cx="272.0625"
       cy="476.75217"
       fx="272.0625"
       fy="476.75217"
       r="121.365" />
    <radialGradient
       inkscape:collect="always"
       xlink:href="#linearGradient4020"
       id="radialGradient4036"
       cx="511.36176"
       cy="665.56836"
       fx="511.36176"
       fy="665.56836"
       r="130.5"
       gradientTransform="matrix(-0.90104307,0.89216128,-0.89015702,-0.8990189,1595.2226,725.6458)"
       gradientUnits="userSpaceOnUse" />
    <radialGradient
       inkscape:collect="always"
       xlink:href="#linearGradient4078"
       id="radialGradient4058"
       gradientUnits="userSpaceOnUse"
       gradientTransform="matrix(-1.9474727,-1.9232199,1.952031,-1.9766474,-144.75639,2262.103)"
       cx="272.9632"
       cy="477.62805"
       fx="272.9632"
       fy="477.62805"
       r="121.365" />
    <linearGradient
       inkscape:collect="always"
       xlink:href="#linearGradient4070"
       id="linearGradient4076"
       x1="252.00127"
       y1="564.58722"
       x2="251.48721"
       y2="744.63843"
       gradientUnits="userSpaceOnUse"
       gradientTransform="matrix(1.0171306,0,0,1.0171306,-4.3854147,-13.642161)" />
    <linearGradient
       inkscape:collect="always"
       xlink:href="#linearGradient3885"
       id="linearGradient3891"
       x1="260.69052"
       y1="547.56421"
       x2="261.78519"
       y2="1046.4696"
       gradientUnits="userSpaceOnUse" />
  </defs>
  <sodipodi:namedview
     id="base"
     pagecolor="#ffffff"
     bordercolor="#666666"
     borderopacity="1.0"
     inkscape:pageopacity="0.0"
     inkscape:pageshadow="2"
     inkscape:zoom="1.5273438"
     inkscape:cx="255.99999"
     inkscape:cy="255.99999"
     inkscape:document-units="px"
     inkscape:current-layer="layer1"
     showgrid="false"
     inkscape:window-width="1677"
     inkscape:window-height="1000"
     inkscape:window-x="4"
     inkscape:window-y="0"
     inkscape:window-maximized="0" />
  <metadata
     id="metadata7">
    <rdf:RDF>
      <cc:Work
         rdf:about="">
        <dc:format>image/svg+xml</dc:format>
        <dc:type
           rdf:resource="http://purl.org/dc/dcmitype/StillImage" />
        <dc:title></dc:title>
      </cc:Work>
    </rdf:RDF>
  </metadata>
  <g
     inkscape:label="Ebene 1"
     inkscape:groupmode="layer"
     id="layer1"
     transform="translate(0,-540.36218)">
    <rect
       ry="28.735632"
       rx="28.735632"
       y="546.36218"
       x="5.9999971"
       height="500"
       width="500"
       id="rect3203"
       style="fill:url(#linearGradient3891);fill-opacity:1;fill-rule:nonzero;stroke:none"
       inkscape:export-xdpi="90"
       inkscape:export-ydpi="90" />
    <rect
       style="fill:#ffffff;fill-opacity:1;fill-rule:nonzero;stroke:none"
       id="rect3219"
       width="158.75621"
       height="56.761997"
       x="167.61771"
       y="803.73413"
       rx="28.735632"
       ry="28.735632" />
    <g
       id="g3155"
       transform="matrix(1.9157088,0,0,1.9157088,-782.97532,-321.07539)">
      <path
         inkscape:connector-curvature="0"
         style="fill:#f7c061;fill-opacity:1"
         d="m 331.59375,-95.25 c -5.90122,0.184382 -12.00948,2.61757 -23.53125,7.46875 -10.97838,4.62239 -12.68108,5.05955 -20,5.09375 -7.48401,0.03502 -8.55739,-0.21285 -16.28125,-4.1875 -9.71262,-4.99807 -17.49908,-7.25 -25.3125,-7.25 -8.19015,0 -14.5409,1.43335 -31.40625,6.96875 -8.25,2.70775 -18.10982,5.43584 -21.90625,6.09375 -9.83196,1.70384 -34.98535,0.6965 -44.34375,-1.78125 l -7.25,0.70375 0,73.2025 0,60.8125 c 0,8.31 6.69,15 15,15 l 115.5,0 115.5,0 c 8.31,0 15,-6.69 15,-15 l 0,-59.96875 0,-69.74875 -6.36,-0.01625 c -4.73397,-0.764988 -1.80405,-0.08556 -7.64,-0.57875 -7.4578,-0.63026 -13.50597,-2.4962 -34.71875,-10.75 -10.68464,-4.15735 -16.34878,-6.246882 -22.25,-6.0625 z M 255,-87.75 c 4.5085,-0.113301 7.72763,6.303623 3.96875,10.0625 -4.29586,4.29586 -12.03773,-0.53622 -9.5625,-5.96875 0.61992,-1.36057 2.23318,-3.00508 3.59375,-3.625 0.67907,-0.309404 1.35593,-0.452564 2,-0.46875 z m -2.9375,19.625 c 1.91499,0 3.60664,2.54982 2.90625,4.375 -0.34333,0.89471 -1.64894,1.625 -2.90625,1.625 -1.25731,0 -2.59417,-0.73029 -2.9375,-1.625 -0.70039,-1.82518 1.02251,-4.375 2.9375,-4.375 z m 44.625,11.21875 c 0.66435,-0.06484 1.41528,0.248985 2.625,0.84375 2.71059,1.33267 2.7189,1.33754 0.4375,1.71875 -3.09556,0.51725 -3.83348,2.87545 -1.65625,5.28125 1.70603,1.88515 1.67341,1.9667 -0.15625,1.9375 -5.21548,-0.08325 -7.17629,-5.05987 -3.375,-8.5 0.8829,-0.799005 1.46065,-1.21641 2.125,-1.28125 z m 3.875,4.78125 c 0.55,0 1,0.45 1,1 0,0.55 -0.45,1 -1,1 -0.55,0 -1,-0.45 -1,-1 0,-0.55 0.45,-1 1,-1 z m -66.53125,1.8125 c 1.50537,0.02597 3.06636,0.41265 4,1.1875 2.28143,1.89342 1.87896,6.64924 -0.71875,8.46875 -2.68907,1.88349 -3.93455,1.9236 -5.84375,0.28125 -0.79921,-0.6875 -1.2789,-1.1494 -1.0625,-1.03125 1.14991,0.62782 4.15625,-2.05674 4.15625,-3.71875 0,-1.89435 -3.14921,-4.3656 -4.40625,-3.46875 -0.3519,0.25107 -0.20084,-0.04209 0.3125,-0.65625 0.62516,-0.74796 2.05713,-1.08847 3.5625,-1.0625 z m 30.78125,3.1875 c 3.10389,-0.08684 6.0726,0.454224 7.75,1.8125 3.14625,2.54768 1.96038,5.9658 -2.3125,6.625 -14.27453,2.2022 -17.26388,1.54305 -16.53125,-3.625 0.39271,-2.770225 5.92061,-4.667775 11.09375,-4.8125 z m -34.25,1 c 0.55,0 1,0.45121 1,0.96875 0,0.51754 -0.45,1.19133 -1,1.53125 -0.55,0.33992 -1,-0.08004 -1,-0.9375 0,-0.85746 0.45,-1.5625 1,-1.5625 z m 33.53125,2 c -4.41228,0 -6.21463,1.08526 -5.03125,3 1.17558,1.90213 9.5,0.47822 9.5,-1.625 0,-0.96026 -1.36731,-1.375 -4.46875,-1.375 z"
         transform="translate(270.28262,646.91243)"
         id="path3169"
         sodipodi:nodetypes="ssssssscccsscsscccssssssssssssssssssssssssssssssssssssssssssssssss" />
      <path
         style="fill:url(#radialGradient4036);fill-opacity:1"
         d="m 601.87637,551.66243 c -5.90122,0.18438 -12.00948,2.61757 -23.53125,7.46875 -10.97838,4.62239 -12.68108,5.05955 -20,5.09375 -7.48401,0.035 -8.55739,-0.21285 -16.28125,-4.1875 -9.71262,-4.99807 -17.49908,-7.25 -25.3125,-7.25 -8.19015,0 -14.5409,1.43335 -31.40625,6.96875 -8.25,2.70775 -18.10982,5.43584 -21.90625,6.09375 -9.83196,1.70384 -34.98535,0.6965 -44.34375,-1.78125 l -7.25,0.70375 0,73.2025 0,60.8125 c 0,8.31 6.69,15 15,15 l 115.5,0 115.5,0 c 8.31,0 15,-6.69 15,-15 l 0,-59.96875 0,-69.74875 -6.36,-0.0163 c -3.36689,-0.0815 -1.80405,-0.0856 -7.64,-0.57875 -7.4578,-0.63026 -13.50597,-2.4962 -34.71875,-10.75 -10.68464,-4.15735 -16.34878,-6.24688 -22.25,-6.0625 z m -76.59375,7.5 c 4.5085,-0.1133 7.72763,6.30362 3.96875,10.0625 -4.29586,4.29586 -12.03773,-0.53622 -9.5625,-5.96875 0.61992,-1.36057 2.23318,-3.00508 3.59375,-3.625 0.67907,-0.3094 1.35593,-0.45256 2,-0.46875 z m -2.9375,19.625 c 1.91499,0 3.60664,2.54982 2.90625,4.375 -0.34333,0.89471 -1.64894,1.625 -2.90625,1.625 -1.25731,0 -2.59417,-0.73029 -2.9375,-1.625 -0.70039,-1.82518 1.02251,-4.375 2.9375,-4.375 z m 23.53125,9.6875 c 4.54143,0.0387 8.69701,0.26287 11.3125,0.6875 4.82885,0.78397 4.83341,0.81731 4.21875,4.09375 -1.27002,6.76977 7.22714,10.96426 11.5,5.6875 l 1.75,-2.15625 3.46875,3.25 c 2.8512,2.68903 3.75976,4.64508 5.1875,11.0625 1.1347,5.10045 1.498,9.41062 1.0625,12.5 -2.46925,17.51674 -21.09153,33.62989 -47.09375,40.75 -3.26617,0.89437 -10.2125,1.8196 -15.4375,2.0625 -15.0327,0.69885 -22.41069,-2.71997 -30.59375,-14.1875 -2.91551,-4.08572 -5.31171,-6.4375 -6.53125,-6.4375 -1.51217,0 -1.7225,-0.37222 -1,-1.75 0.85913,-1.63832 5.125,-18.34173 5.125,-20.09375 0,-0.43979 -1.9088,-0.76625 -4.21875,-0.71875 -3.51552,0.0723 -4.39286,-0.34489 -5.46875,-2.4375 -1.37869,-2.68155 -1.81517,-14.56956 -0.5625,-15.34375 0.41532,-0.25668 3.57052,0.45909 7.03125,1.59375 4.25541,1.39522 6.12189,2.48729 5.78125,3.375 -0.27704,0.72194 -0.16018,1.52775 0.25,1.78125 0.41017,0.2535 1.8088,-1.51534 3.09375,-3.9375 l 2.34375,-4.40625 1.9375,2.46875 c 2.74014,3.48353 7.91363,3.40988 10.71875,-0.15625 2.59027,-3.293 2.60806,-5.39733 0.0937,-8.59375 l -1.96875,-2.5 5.4375,-2.09375 c 2.98235,-1.14128 8.25407,-2.59937 11.71875,-3.25 4.59678,-0.86324 13.27471,-1.31442 20.84375,-1.25 z m 21.09375,1.53125 c 0.66434,-0.0648 1.41528,0.24898 2.625,0.84375 2.71059,1.33267 2.7189,1.33754 0.4375,1.71875 -3.09556,0.51725 -3.83348,2.87545 -1.65625,5.28125 1.70603,1.88515 1.67341,1.9667 -0.15625,1.9375 -5.21548,-0.0833 -7.17629,-5.05987 -3.375,-8.5 0.88289,-0.79901 1.46066,-1.21641 2.125,-1.28125 z m 19.25,2.78125 c 2.66305,0 3.50046,2.33027 2.0625,5.75 -1.44357,3.43307 -5.03297,4.52665 -6.0625,1.84375 -0.72016,-1.87672 2.28909,-7.59375 4,-7.59375 z m -15.375,2 c 0.55,0 1,0.45 1,1 0,0.55 -0.45,1 -1,1 -0.55,0 -1,-0.45 -1,-1 0,-0.55 0.45,-1 1,-1 z m -66.53125,1.8125 c 1.50537,0.026 3.06637,0.41265 4,1.1875 2.28143,1.89342 1.87896,6.64924 -0.71875,8.46875 -2.68907,1.88349 -3.93455,1.9236 -5.84375,0.28125 -0.79921,-0.6875 -1.2789,-1.1494 -1.0625,-1.03125 1.14991,0.62782 4.15625,-2.05674 4.15625,-3.71875 0,-1.89435 -3.14921,-4.3656 -4.40625,-3.46875 -0.3519,0.25107 -0.20084,-0.0421 0.3125,-0.65625 0.62516,-0.74796 2.05713,-1.08847 3.5625,-1.0625 z m 31.15625,1.75 c -11.91974,0.0598 -16.7481,4.56037 -12.0625,11.25 1.44177,2.05842 2.12091,2.19056 8.25,1.65625 11.87328,-1.03506 15.1875,-2.56041 15.1875,-6.96875 0,-4.16953 -3.50991,-5.977 -11.375,-5.9375 z m -0.375,1.4375 c 3.10389,-0.0868 6.0726,0.45422 7.75,1.8125 3.14625,2.54768 1.96038,5.9658 -2.3125,6.625 -14.27453,2.2022 -17.26388,1.54305 -16.53125,-3.625 0.39271,-2.77023 5.92061,-4.66778 11.09375,-4.8125 z m -34.25,1 c 0.55,0 1,0.45121 1,0.96875 0,0.51754 -0.45,1.19133 -1,1.53125 -0.55,0.33992 -1,-0.08 -1,-0.9375 0,-0.85746 0.45,-1.5625 1,-1.5625 z m 33.53125,2 c -4.41228,0 -6.21463,1.08526 -5.03125,3 1.17558,1.90213 9.5,0.47822 9.5,-1.625 0,-0.96026 -1.36731,-1.375 -4.46875,-1.375 z"
         id="path3167"
         inkscape:connector-curvature="0"
         sodipodi:nodetypes="ssssssscccsscsscccssssssssscsssccscccsssssssssssscscccscccscccssscscssssscssscssssssccscssscssscssssssssss" />
      <path
         style="fill:#d3b172"
         d="m 529.16222,693.09493 c -1.76066,-3.56242 -2.12585,-3.75575 -9.33236,-4.94058 -4.94756,-0.81343 -10.18053,-2.60001 -15.37637,-5.24963 l -7.87638,-4.01655 -3.80661,2.19081 c -2.09364,1.20495 -4.06046,1.93697 -4.37071,1.62671 -0.31026,-0.31025 0.14898,-2.65687 1.02052,-5.2147 1.5729,-4.61621 1.56186,-4.69613 -1.49232,-10.80811 -1.69232,-3.38663 -3.6206,-8.7896 -4.28506,-12.00661 -1.0985,-5.31842 -1.50775,-5.948 -4.51059,-6.93903 -4.23025,-1.39611 -4.19485,-2.54482 0.10329,-3.35115 3.29992,-0.61907 3.45594,-0.86339 5.02034,-7.8613 0.88802,-3.9723 1.8685,-8.17974 2.17883,-9.34986 0.48177,-1.81651 0.20932,-2.05965 -1.86383,-1.66334 -4.06647,0.77735 -7.69242,-3.26637 -8.39988,-9.36767 -0.32898,-2.83718 -0.29494,-6.77468 0.0756,-8.75 0.78021,-4.15887 2.86222,-4.62631 9.06407,-2.03501 6.02878,2.51898 8.45004,1.6666 11.5228,-4.05648 1.89039,-3.52087 3.54417,-5.26133 5.59041,-5.8834 1.59822,-0.48587 5.38086,-1.91445 8.40586,-3.17462 3.025,-1.26017 8.96853,-3.00014 13.20784,-3.8666 8.90631,-1.82033 28.13167,-2.05526 34.79216,-0.42514 2.475,0.60574 6.01973,1.02679 7.87718,0.93566 3.39023,-0.16632 7.12282,2.12948 7.12282,4.38103 0,0.63632 1.34035,2.14792 2.97856,3.3591 l 2.97856,2.20215 2.53399,-4.01409 c 1.39369,-2.20775 3.15097,-4.01409 3.90507,-4.01409 1.88822,0 8.49354,7.49181 10.19442,11.5626 1.69657,4.06047 0.70151,7.32935 -3.06664,10.07426 -1.78823,1.30263 -2.42394,2.46022 -1.98262,3.61026 0.54945,1.43186 1.15411,1.15789 3.9222,-1.77714 4.03592,-4.27932 5.62756,-4.33886 8.99536,-0.33645 6.30347,7.49125 9.11144,18.57828 6.6184,26.13225 -1.47833,4.47939 -2.68411,4.92071 -8.9374,3.27113 l -5.04272,-1.33025 -1.21064,5.40972 c -1.13143,5.05576 -1.06918,5.56031 0.95141,7.71112 2.967,3.15824 2.74551,3.67144 -1.58795,3.67933 -3.1601,0.006 -4.12424,0.55637 -6.12907,3.50025 -1.30849,1.92137 -4.03729,4.99151 -6.064,6.82252 l -3.68493,3.32912 1.50997,4.14134 c 0.83048,2.27773 1.22634,4.42496 0.87968,4.77162 -0.34666,0.34666 -2.24451,-0.60093 -4.21744,-2.10575 l -3.58714,-2.73605 -8.72854,4.02623 c -8.40705,3.87794 -23.1716,8.24389 -27.87878,8.24389 -1.78131,0 -2.52725,0.8604 -3.4679,4 -0.65913,2.2 -1.54013,4 -1.95778,4 -0.41764,0 -1.58392,-1.66837 -2.59171,-3.7075 z m 8.10614,-28.73916 c 26.00222,-7.12011 44.64413,-23.25126 47.11338,-40.768 0.4355,-3.08938 0.0676,-7.39792 -1.0671,-12.49837 -1.42774,-6.41742 -2.33874,-8.3562 -5.18994,-11.04523 l -3.45823,-3.26153 -1.76247,2.17656 c -4.27286,5.27676 -12.76701,1.05345 -11.49699,-5.71632 0.61466,-3.27644 0.59877,-3.29175 -4.23008,-4.07572 -6.97465,-1.13234 -24.79165,-0.82295 -32.1465,0.55823 -3.46468,0.65063 -8.73952,2.11675 -11.72187,3.25803 l -5.42246,2.07505 1.97188,2.50684 c 2.51431,3.19642 2.48957,5.30926 -0.1007,8.60226 -2.80512,3.56613 -7.98898,3.64335 -10.72912,0.15982 l -1.94687,-2.47503 -2.33627,4.40392 c -1.28495,2.42216 -2.67187,4.19651 -3.08204,3.94301 -0.41018,-0.2535 -0.51911,-1.05159 -0.24207,-1.77353 0.34064,-0.88771 -1.53315,-1.98043 -5.78856,-3.37565 -3.46073,-1.13466 -6.63205,-1.85302 -7.04737,-1.59634 -1.25267,0.77419 -0.81898,12.66711 0.55971,15.34866 1.07589,2.09261 1.96973,2.48594 5.48526,2.41369 2.30995,-0.0475 4.19991,0.27352 4.19991,0.71331 0,1.75202 -4.24013,18.48468 -5.09926,20.123 -0.7225,1.37778 -0.50916,1.75 1.00301,1.75 1.21954,0 3.5969,2.34899 6.51241,6.43471 8.18306,11.46753 15.55114,14.88524 30.58384,14.18639 5.225,-0.2429 12.17233,-1.17339 15.4385,-2.06776 z m -13.86739,-54.75528 c -4.6856,-6.68963 0.15131,-11.20244 12.07105,-11.26223 7.86509,-0.0395 11.35784,1.79464 11.35784,5.96417 0,4.40834 -3.30561,5.92383 -15.17889,6.95889 -6.12909,0.53431 -6.80823,0.39759 -8.25,-1.66083 z m 17.12253,-1.37484 c 4.27288,-0.6592 5.46886,-4.06347 2.32261,-6.61115 -4.47307,-3.62207 -18.21468,-1.43939 -18.84301,2.99297 -0.73263,5.16805 2.24587,5.82038 16.5204,3.61818 z m -11.19364,-2.42322 c -1.18338,-1.91474 0.64674,-3 5.05902,-3 3.10144,0 4.44098,0.41474 4.44098,1.375 0,2.10322 -8.32442,3.52713 -9.5,1.625 z m -21.72251,0.4433 c 2.59771,-1.81951 3.00086,-6.55244 0.71943,-8.44586 -1.86727,-1.5497 -6.32994,-1.62669 -7.58025,-0.13077 -0.51334,0.61416 -0.64542,0.91125 -0.29352,0.66018 1.25704,-0.89685 4.37685,1.5788 4.37685,3.47315 0,1.66201 -2.98058,4.34264 -4.13049,3.71482 -0.2164,-0.11815 0.26044,0.34768 1.05965,1.03518 1.9092,1.64235 3.15926,1.57679 5.84833,-0.3067 z m -5.77749,-4.50232 c 0,-0.51754 -0.45,-0.94098 -1,-0.94098 -0.55,0 -1,0.70156 -1,1.55902 0,0.85746 0.45,1.2809 1,0.94098 0.55,-0.33992 1,-1.04148 1,-1.55902 z m 86.46314,-3.19098 c 1.43796,-3.41973 0.60315,-5.75 -2.0599,-5.75 -1.71091,0 -4.72714,5.71354 -4.00698,7.59026 1.02953,2.6829 4.62331,1.59281 6.06688,-1.84026 z m -19.92943,-0.71276 c -2.17723,-2.4058 -1.44042,-4.75104 1.65514,-5.26829 2.2814,-0.38121 2.2758,-0.40356 -0.43479,-1.73623 -2.41945,-1.18953 -2.98421,-1.13441 -4.75,0.4636 -3.80129,3.44013 -1.81455,8.39002 3.40093,8.47327 1.82966,0.0292 1.83475,-0.0472 0.12872,-1.93235 z m 3.46629,-2.03724 c 0,-0.55 -0.45,-1 -1,-1 -0.55,0 -1,0.45 -1,1 0,0.55 0.45,1 1,1 0.55,0 1,-0.45 1,-1 z"
         id="path3165"
         inkscape:connector-curvature="0" />
      <path
         style="fill:#c5a35f;fill-opacity:1"
         d="m 529.16222,693.09493 c -1.76066,-3.56242 -2.12585,-3.75575 -9.33236,-4.94058 -4.94756,-0.81343 -10.18053,-2.60001 -15.37637,-5.24963 l -7.87638,-4.01655 -3.80661,2.19081 c -2.09364,1.20495 -4.06046,1.93697 -4.37071,1.62671 -0.31026,-0.31025 0.14898,-2.65687 1.02052,-5.2147 1.5729,-4.61621 1.56186,-4.69613 -1.49232,-10.80811 -1.69232,-3.38663 -3.6206,-8.7896 -4.28506,-12.00661 -1.0985,-5.31842 -1.50775,-5.948 -4.51059,-6.93903 -4.23025,-1.39611 -4.19485,-2.54482 0.10329,-3.35115 3.29992,-0.61907 3.45594,-0.86339 5.02034,-7.8613 0.88802,-3.9723 1.8685,-8.17974 2.17883,-9.34986 0.48177,-1.81651 0.20932,-2.05965 -1.86383,-1.66334 -4.06647,0.77735 -7.69242,-3.26637 -8.39988,-9.36767 -0.32898,-2.83718 -0.29494,-6.77468 0.0756,-8.75 0.78021,-4.15887 2.86222,-4.62631 9.06407,-2.03501 6.02878,2.51898 8.45004,1.6666 11.5228,-4.05648 1.89039,-3.52087 3.54417,-5.26133 5.59041,-5.8834 1.59822,-0.48587 5.38086,-1.91445 8.40586,-3.17462 3.025,-1.26017 8.96853,-3.00014 13.20784,-3.8666 8.90631,-1.82033 28.13167,-2.05526 34.79216,-0.42514 2.475,0.60574 6.01973,1.02679 7.87718,0.93566 3.39023,-0.16632 7.12282,2.12948 7.12282,4.38103 0,0.63632 1.34035,2.14792 2.97856,3.3591 l 2.97856,2.20215 2.53399,-4.01409 c 1.39369,-2.20775 3.15097,-4.01409 3.90507,-4.01409 1.88822,0 8.49354,7.49181 10.19442,11.5626 1.69657,4.06047 0.70151,7.32935 -3.06664,10.07426 -1.78823,1.30263 -2.42394,2.46022 -1.98262,3.61026 0.54945,1.43186 1.15411,1.15789 3.9222,-1.77714 4.03592,-4.27932 5.62756,-4.33886 8.99536,-0.33645 6.30347,7.49125 9.11144,18.57828 6.6184,26.13225 -1.47833,4.47939 -2.68411,4.92071 -8.9374,3.27113 l -5.04272,-1.33025 -1.21064,5.40972 c -1.13143,5.05576 -1.06918,5.56031 0.95141,7.71112 2.967,3.15824 2.74551,3.67144 -1.58795,3.67933 -3.1601,0.006 -4.12424,0.55637 -6.12907,3.50025 -1.30849,1.92137 -4.03729,4.99151 -6.064,6.82252 l -3.68493,3.32912 1.50997,4.14134 c 0.83048,2.27773 1.22634,4.42496 0.87968,4.77162 -0.34666,0.34666 -2.24451,-0.60093 -4.21744,-2.10575 l -3.58714,-2.73605 -8.72854,4.02623 c -8.40705,3.87794 -23.1716,8.24389 -27.87878,8.24389 -1.78131,0 -2.52725,0.8604 -3.4679,4 -0.65913,2.2 -1.54013,4 -1.95778,4 -0.41764,0 -1.58392,-1.66837 -2.59171,-3.7075 z m 8.3731,-28.38308 c 4.287,-1.10838 12.06954,-4.07733 17.29454,-6.59765 7.86585,-3.79417 10.89343,-5.97827 17.60057,-12.69709 6.3704,-6.3815 8.55966,-9.35081 10.25,-13.90219 4.03201,-10.85651 1.97407,-25.5824 -4.44452,-31.80355 l -3.38315,-3.27908 -2.3259,2.18507 c -4.99709,4.69452 -11.29593,1.68706 -10.4034,-4.96722 0.49488,-3.68958 0.40829,-3.81554 -3.14235,-4.57092 -2.00819,-0.42724 -9.72625,-0.74918 -17.15125,-0.71544 -13.69613,0.0622 -21.96632,1.45619 -30.26246,5.10075 -3.57903,1.5723 -3.6806,1.74334 -2.08333,3.5083 2.45407,2.71172 2.15166,7.75863 -0.59833,9.98543 -3.11425,2.52177 -6.67774,2.31322 -9.54985,-0.55889 l -2.40305,-2.40305 -1.55149,2.36787 c -0.85332,1.30233 -1.55149,2.80715 -1.55149,3.34404 0,0.53689 -0.4801,1.27288 -1.06688,1.63553 -0.63762,0.39407 -0.93938,-0.0694 -0.75,-1.15184 0.24141,-1.37985 -0.51668,-1.95506 -3.18312,-2.4152 -1.925,-0.33219 -4.48292,-1.13731 -5.68426,-1.78914 -4.65454,-2.52549 -5.31574,-1.7538 -5.31574,6.20407 0,9.29747 1.81602,12.16664 7.46021,11.78652 3.14402,-0.21174 3.61598,0.0185 3.1513,1.53761 -1.51428,4.95031 -3.61151,13.9079 -3.61151,15.42532 0,0.94516 -0.70714,2.42562 -1.57143,3.2899 -1.42857,1.42857 -1.38774,1.57143 0.44911,1.57143 1.18128,0 3.15813,1.55761 4.75933,3.75 7.57654,10.3739 14.29967,15.48622 22.70674,17.26636 5.714,1.2099 17.03144,0.30537 26.36171,-2.10694 z m -13.61115,-55.51666 c -4.20296,-5.3432 -1.75562,-8.78383 7.45973,-10.48738 10.68964,-1.97609 18.06226,2.4527 14.11405,8.47842 -1.30236,1.98766 -2.73555,2.58541 -7.39185,3.08301 -3.17693,0.3395 -7.1963,0.83578 -8.93193,1.10285 -2.54873,0.39219 -3.55851,-0.0265 -5.25,-2.1769 z m 17.58904,-0.95676 c 3.3124,-0.66852 4.06551,-4.41119 1.3329,-6.62393 -4.47307,-3.62207 -18.21468,-1.43939 -18.84301,2.99297 -0.59779,4.21686 1.40154,5.28353 8.71091,4.64739 3.63872,-0.31668 7.59836,-0.77407 8.7992,-1.01643 z m -12.18335,-2.436 c -1.18338,-1.91474 0.64674,-3 5.05902,-3 3.10144,0 4.44098,0.41474 4.44098,1.375 0,2.10322 -8.32442,3.52713 -9.5,1.625 z m -21.72251,0.4433 c 1.40352,-0.98306 2.22251,-2.59619 2.22251,-4.37756 0,-4.28747 -3.71864,-6.51823 -8,-4.79908 l -2.5,1.00386 2.5,0.65983 c 1.79252,0.47309 2.5,1.34178 2.5,3.06965 0,1.74462 -0.6901,2.57462 -2.5,3.00683 -2.41569,0.57686 -2.43255,0.63637 -0.5,1.76467 2.67479,1.56165 3.65232,1.51054 6.27749,-0.3282 z m -5.77749,-3.9433 c 0,-0.825 -0.45,-1.5 -1,-1.5 -0.55,0 -1,0.675 -1,1.5 0,0.825 0.45,1.5 1,1.5 0.55,0 1,-0.675 1,-1.5 z m 84.68744,-0.28567 c 0.65309,-0.41527 1.68507,-2.0639 2.29328,-3.66362 0.93736,-2.46544 0.8088,-3.20563 -0.84375,-4.85819 -1.9328,-1.93279 -1.973,-1.91251 -4.66564,2.35289 -2.5844,4.09397 -2.62815,4.36675 -0.90255,5.62854 2.08228,1.5226 2.48984,1.57608 4.11866,0.54038 z m -18.15373,-4.17709 c -2.17343,-2.40161 -1.35858,-5.03724 1.55735,-5.03724 1.80113,0 1.94997,-0.24563 0.90894,-1.5 -2.69279,-3.24461 -8,-0.57659 -8,4.02174 0,2.52962 2.27021,4.39781 5.40499,4.44785 1.82966,0.0292 1.83475,-0.0472 0.12872,-1.93235 z m 3.46629,-2.03724 c 0,-0.55 -0.45,-1 -1,-1 -0.55,0 -1,0.45 -1,1 0,0.55 0.45,1 1,1 0.55,0 1,-0.45 1,-1 z"
         id="path3163"
         inkscape:connector-curvature="0" />
      <path
         style="fill:#5b719d"
         d="m 529.16222,693.09493 c -1.76066,-3.56242 -2.12585,-3.75575 -9.33236,-4.94058 -4.94756,-0.81343 -10.18053,-2.60001 -15.37637,-5.24963 l -7.87638,-4.01655 -3.80661,2.19081 c -2.09364,1.20495 -4.06046,1.93697 -4.37071,1.62671 -0.31026,-0.31025 0.14898,-2.65687 1.02052,-5.2147 1.5729,-4.61621 1.56186,-4.69613 -1.49232,-10.80811 -1.69232,-3.38663 -3.6206,-8.7896 -4.28506,-12.00661 -1.0985,-5.31842 -1.50775,-5.948 -4.51059,-6.93903 -4.23025,-1.39611 -4.19485,-2.54482 0.10329,-3.35115 3.29992,-0.61907 3.45594,-0.86339 5.02034,-7.8613 0.88802,-3.9723 1.8685,-8.17974 2.17883,-9.34986 0.48177,-1.81651 0.20932,-2.05965 -1.86383,-1.66334 -4.06647,0.77735 -7.69242,-3.26637 -8.39988,-9.36767 -0.32898,-2.83718 -0.29494,-6.77468 0.0756,-8.75 0.78021,-4.15887 2.86222,-4.62631 9.06407,-2.03501 6.02878,2.51898 8.45004,1.6666 11.5228,-4.05648 1.89039,-3.52087 3.54417,-5.26133 5.59041,-5.8834 1.59822,-0.48587 5.38086,-1.91445 8.40586,-3.17462 3.025,-1.26017 8.96853,-3.00014 13.20784,-3.8666 8.90631,-1.82033 28.13167,-2.05526 34.79216,-0.42514 2.475,0.60574 6.01973,1.02679 7.87718,0.93566 3.39023,-0.16632 7.12282,2.12948 7.12282,4.38103 0,0.63632 1.34035,2.14792 2.97856,3.3591 l 2.97856,2.20215 2.53399,-4.01409 c 1.39369,-2.20775 3.15097,-4.01409 3.90507,-4.01409 1.88822,0 8.49354,7.49181 10.19442,11.5626 1.69657,4.06047 0.70151,7.32935 -3.06664,10.07426 -1.78823,1.30263 -2.42394,2.46022 -1.98262,3.61026 0.54945,1.43186 1.15411,1.15789 3.9222,-1.77714 4.03592,-4.27932 5.62756,-4.33886 8.99536,-0.33645 6.30347,7.49125 9.11144,18.57828 6.6184,26.13225 -1.47833,4.47939 -2.68411,4.92071 -8.9374,3.27113 l -5.04272,-1.33025 -1.21064,5.40972 c -1.13143,5.05576 -1.06918,5.56031 0.95141,7.71112 2.967,3.15824 2.74551,3.67144 -1.58795,3.67933 -3.1601,0.006 -4.12424,0.55637 -6.12907,3.50025 -1.30849,1.92137 -4.03729,4.99151 -6.064,6.82252 l -3.68493,3.32912 1.50997,4.14134 c 0.83048,2.27773 1.22634,4.42496 0.87968,4.77162 -0.34666,0.34666 -2.24451,-0.60093 -4.21744,-2.10575 l -3.58714,-2.73605 -8.72854,4.02623 c -8.40705,3.87794 -23.1716,8.24389 -27.87878,8.24389 -1.78131,0 -2.52725,0.8604 -3.4679,4 -0.65913,2.2 -1.54013,4 -1.95778,4 -0.41764,0 -1.58392,-1.66837 -2.59171,-3.7075 z m 4.16319,-2.27225 c 0.54243,-2.46966 1.25534,-3.05006 4.32694,-3.5227 8.81132,-1.35585 20.27833,-4.82962 27.84764,-8.43605 l 8.17013,-3.89269 3.27415,2.4156 c 1.80078,1.32857 3.41776,2.41559 3.59329,2.41559 0.17553,0 -0.36196,-1.63009 -1.19441,-3.62243 l -1.51355,-3.62243 6.00013,-6.41416 c 3.30007,-3.52778 6.00013,-6.84769 6.00013,-7.37757 0,-0.52987 1.65344,-0.96341 3.67431,-0.96341 l 3.67432,0 -2.0797,-2.25 c -2.02678,-2.19276 -2.03977,-2.43368 -0.51061,-9.46977 1.43452,-6.60065 1.42941,-7.92872 -0.0596,-15.48692 -2.1052,-10.68573 -7.37261,-21.24699 -14.36226,-28.79665 l -5.55008,-5.99475 -1.96575,2.49904 c -4.16118,5.29009 -11.61973,1.81098 -10.52885,-4.91128 0.55988,-3.45019 0.553,-3.45724 -4.41471,-4.52262 -10.93966,-2.34614 -30.41434,-0.95512 -42.61617,3.04395 -7.06373,2.31509 -8.05089,3.24182 -5.82462,5.4681 0.86003,0.86007 1.56372,2.0423 1.56372,2.62719 0,0.58488 -0.93266,-0.12226 -2.07258,-1.57143 -2.30277,-2.9275 -6.00035,-3.45683 -7.92742,-1.13486 -1.03654,1.24895 -0.90757,1.5 0.77057,1.5 2.22748,0 3.48188,2.17856 2.59106,4.5 -0.31659,0.825 -1.42746,1.5 -2.46862,1.5 -2.1279,0 -2.55833,1.56487 -0.64301,2.33772 0.94216,0.38017 0.95082,0.52383 0.0352,0.58333 -0.66815,0.0434 -1.70323,-0.83365 -2.30017,-1.94906 -1.34085,-2.50539 -2.42874,-1.89007 -5.0262,2.84281 -1.11237,2.02686 -1.75283,2.6727 -1.42326,1.4352 0.49515,-1.85921 0.19673,-2.24914 -1.71817,-2.24505 -1.27456,0.003 -4.44466,-0.7575 -7.04467,-1.68938 -2.60001,-0.93188 -5.05961,-1.36201 -5.46577,-0.95585 -0.95574,0.95574 -1.00894,11.37582 -0.0752,14.71884 0.85796,3.07156 4.38282,4.90893 8.06651,4.20475 l 2.66081,-0.50865 -1.39948,4.86267 c -0.76972,2.67447 -1.90849,7.40715 -2.53061,10.51707 -0.97562,4.87703 -1.50219,5.75324 -3.83007,6.3733 l -2.69895,0.71889 2.69242,0.94084 c 2.26789,0.7925 2.87458,1.83735 3.84773,6.62671 0.63543,3.12722 2.5292,8.5924 4.2084,12.14483 2.75332,5.82481 2.94741,6.85487 1.97681,10.49121 -0.59195,2.21774 -0.94053,4.16799 -0.77462,4.33389 0.16591,0.16591 1.84287,-0.43331 3.7266,-1.33159 3.37715,-1.61045 3.51495,-1.58424 9.8738,1.87847 6.66142,3.62747 10.99524,5.01136 19.24775,6.14629 4.1955,0.57699 5.00208,1.08604 6.41479,4.04854 1.84343,3.8657 2.85138,3.73097 3.78187,-0.50553 z m -9.96437,-82.33232 c -2.3644,-3.60853 -1.62813,-5.89595 2.55661,-7.94279 6.95155,-3.40015 18.71928,-2.29626 20.33233,1.9073 0.68867,1.79464 -1.29379,6.0851 -3.13883,6.79311 -0.7963,0.30557 -5.18406,0.84277 -9.75058,1.19378 -8.14122,0.62579 -8.33577,0.58782 -9.99953,-1.9514 z m 20.70431,-1.84549 c 2.29854,-2.68617 0.81756,-5.51239 -3.47091,-6.62364 -4.55958,-1.18151 -13.70543,0.27761 -15.97672,2.5489 -1.65289,1.65288 -1.7349,2.25443 -0.63612,4.66598 l 1.26139,2.76846 8.54344,-0.66577 c 6.82232,-0.53166 8.89305,-1.07436 10.27892,-2.69393 z m -14.78562,-0.92356 c -1.01582,-1.64362 1.46567,-2.88587 5.80013,-2.90357 3.37962,-0.0138 4.94639,1.18443 3,2.29433 -2.15802,1.23059 -8.15934,1.64606 -8.80013,0.60924 z m -25.63737,2.39801 c 0.72187,-0.28888 1.58437,-0.25335 1.91667,0.0789 0.33229,0.33229 -0.25834,0.56864 -1.3125,0.52522 -1.16495,-0.048 -1.4019,-0.28495 -0.60417,-0.60417 z m 4.89082,-2.71895 c 0.98817,-1.32113 1.94564,-2.25967 2.1277,-2.08565 0.62447,0.59692 -1.90097,4.48771 -2.91289,4.48771 -0.55632,0 -0.20299,-1.08093 0.78519,-2.40206 z m 100.68969,35.82027 c 1.17378,-3.05882 0.59007,-14.52293 -0.92395,-18.1465 -2.08057,-4.97952 -6.24166,-10.27171 -8.07632,-10.27171 -0.82802,0 -2.74616,1.35837 -4.26255,3.0186 l -2.75707,3.01861 1.75579,6.73139 c 0.96569,3.70227 1.78174,8.5992 1.81344,10.88206 0.0547,3.93645 0.25119,4.20206 3.80765,5.14665 5.59254,1.48536 7.96753,1.38119 8.64301,-0.3791 z m -15.61552,-30.97491 c 1.39469,-0.97688 2.22251,-2.59711 2.22251,-4.34997 0,-3.7236 -7.36304,-14.09333 -10.00699,-14.09333 -0.3436,0 -1.62117,1.77293 -2.83904,3.93984 l -2.21432,3.93985 4.02587,5.31015 c 2.21423,2.92059 4.02781,5.64766 4.03018,6.06016 0.007,1.25096 2.42686,0.84276 4.78179,-0.8067 z m -91.27313,-7.45036 c 0.34233,-0.55389 -0.10053,-1.28448 -0.98411,-1.62354 -1.91464,-0.73472 -2.98171,0.0749 -2.06137,1.56407 0.83038,1.34358 2.23491,1.371 3.04548,0.0595 z m 66.71833,-5.0001 c -2.51356,-2.34174 -1.93782,-4.99284 1.0843,-4.99284 1.6279,0 1.82634,0.26667 0.89301,1.2 -1.61513,1.61513 -1.51353,2.8 0.24009,2.8 0.9534,0 1.36909,-0.92362 1.23002,-2.73294 -0.15319,-1.99314 -0.96336,-2.99787 -2.99285,-3.7116 -3.56976,-1.25542 -6.06788,0.22661 -6.49952,3.85587 -0.42887,3.60609 1.39215,5.58867 5.13327,5.58867 l 3.06611,0 -2.15443,-2.00716 z"
         id="path3161"
         inkscape:connector-curvature="0" />
      <path
         style="fill:#857a64"
         d="m 530.82986,695.92046 c 0,-0.55 0.45,-1.27811 1,-1.61803 0.55,-0.33992 1,-0.16803 1,0.38197 0,0.55 -0.45,1.27811 -1,1.61803 -0.55,0.33992 -1,0.16803 -1,-0.38197 z m -2.70763,-5.56007 c -0.47309,-0.84536 -3.70039,-1.88935 -7.79969,-2.52308 -6.47735,-1.00137 -25.86242,-9.07381 -23.60471,-9.82961 0.48423,-0.1621 3.74504,1.265 7.24623,3.17133 6.57202,3.57835 10.93572,4.96941 19.1132,6.09292 3.22146,0.4426 5.08097,1.27553 5.78518,2.59136 1.18785,2.21951 0.48707,2.6901 -0.74021,0.49708 z m 5.70763,-1.59951 c 0,-0.4773 1.6875,-1.12859 3.75,-1.4473 8.91565,-1.37772 20.33668,-4.83649 27.95262,-8.46524 l 8.20263,-3.90828 2.6457,2.08111 c 2.20766,1.73655 2.81061,1.84933 3.64171,0.68118 0.79458,-1.11682 0.88717,-1.05909 0.45785,0.28547 -0.29599,0.92697 -9.4e-4,1.90394 0.65567,2.17105 0.67034,0.27271 0.7309,0.52028 0.1381,0.56461 -0.58065,0.0434 -2.52909,-1.00807 -4.32987,-2.33664 l -3.27415,-2.4156 -8.17013,3.90692 c -4.49357,2.14881 -12.22013,4.85497 -17.17013,6.01369 -4.95,1.15873 -10.2375,2.47355 -11.75,2.92182 -1.51355,0.44858 -2.75,0.42484 -2.75,-0.0528 z m -45,-6.90892 c 0,-0.56145 0.53614,-3.02541 1.19143,-5.47546 1.09892,-4.10874 0.98954,-4.82809 -1.40872,-9.26435 -2.36359,-4.37213 -3.33116,-7.2695 -5.21762,-15.62401 -0.43681,-1.93451 -1.5623,-3.13738 -3.60028,-3.84782 -3.50074,-1.22037 -3.91201,-2.84434 -0.71481,-2.82258 1.62832,0.0111 1.87837,0.25084 0.90498,0.86775 -0.99777,0.63235 -0.69328,1.016 1.17938,1.48601 2.13467,0.53577 2.70477,1.52108 3.69275,6.38226 0.6426,3.16177 2.5208,8.61028 4.17379,12.10781 2.93112,6.20189 3.13733,8.54151 1.19552,13.56447 -0.59167,1.5305 -0.40162,1.79236 0.92997,1.28138 2.32364,-0.89166 2.09977,-0.003 -0.32639,1.29501 -1.32819,0.71083 -2,0.72747 -2,0.0495 z m 89.5857,-7.6868 c -0.42937,-1.11891 1.06255,-3.41424 4.71236,-7.25 2.93735,-3.087 5.83817,-6.50898 6.44628,-7.6044 0.60811,-1.09542 1.37413,-1.7232 1.70226,-1.39506 0.32813,0.32813 -2.34048,3.76892 -5.93025,7.6462 -4.40136,4.75388 -6.32747,7.56917 -5.91461,8.64507 0.33673,0.8775 0.38724,1.59546 0.11224,1.59546 -0.275,0 -0.78273,-0.73677 -1.12828,-1.63727 z m 16.418,-18.85879 c -3.24301,-3.45203 -2.15343,-3.66947 1.372,-0.2738 1.58164,1.52343 2.44758,2.76986 1.92432,2.76986 -0.52327,0 -2.00661,-1.12323 -3.29632,-2.49606 z m -0.34745,-8.00394 c 0.33499,-2.2 0.77437,-4.1875 0.97641,-4.41667 0.75747,-0.85918 0.19039,4.49696 -0.67936,6.41667 -0.63152,1.3939 -0.72154,0.7878 -0.29705,-2 z m -112.15625,-3.5 c 0.33992,-0.55 0.81648,-1 1.05902,-1 0.24254,0 0.44098,0.45 0.44098,1 0,0.55 -0.47656,1 -1.05902,1 -0.58246,0 -0.7809,-0.45 -0.44098,-1 z m 117.75,-1.26217 c -3.64464,-0.87642 -4.25247,-1.39346 -4.26736,-3.62991 -0.075,-11.26561 -7.06295,-27.84031 -15.64622,-37.11126 l -5.55008,-5.99475 -1.96575,2.49904 c -4.18828,5.32454 -11.61914,1.80739 -10.51797,-4.97833 0.45494,-2.8035 0.24423,-3.52262 -1.03216,-3.52262 -0.88209,0 -1.33771,-0.26609 -1.01249,-0.59131 0.32522,-0.32522 1.57052,-0.28051 2.76733,0.0993 1.58336,0.50254 1.87625,0.99043 1.07536,1.79131 -1.46362,1.46362 -1.40357,5.99775 0.0993,7.50066 0.66,0.66 2.54485,1.2 4.18856,1.2 l 2.98856,0 -2.15443,-2.00715 c -1.24936,-1.16397 -1.90494,-2.65731 -1.56055,-3.55479 0.90687,-2.36325 5.4894,-1.34777 8.17675,1.81194 2.72477,3.2037 3.90998,3.40609 5.85603,1 1.28109,-1.58392 1.31357,-1.53952 0.34229,0.46782 -0.91006,1.88079 -0.54242,2.91308 2.41925,6.79309 1.92082,2.5164 3.93082,5.34338 4.46667,6.28218 0.89,1.55925 1.21661,1.57442 3.77558,0.17537 3.90131,-2.13296 4.16683,-6.06214 0.75776,-11.2136 -1.4813,-2.2384 -3.85114,-5.14289 -5.26629,-6.45441 -1.59331,-1.47663 -1.91766,-2.1331 -0.85184,-1.72411 0.94664,0.36326 3.50778,3.15545 5.69141,6.20486 5.35727,7.48134 5.30649,11.95933 -0.16772,14.79015 -2.51124,1.29861 -2.74839,1.77248 -1.78653,3.56973 1.08676,2.03062 1.17363,2.00979 4.3144,-1.03437 5.35251,-5.18785 8.149,-3.81135 13.47789,6.63414 1.5841,3.10509 2.13221,6.00605 2.13221,11.28506 0,11.02236 -1.11425,12.02901 -10.75,9.71192 z m 9.14301,-1.31962 c 1.17378,-3.05882 0.59007,-14.52293 -0.92395,-18.1465 -2.08057,-4.97952 -6.24166,-10.27171 -8.07632,-10.27171 -0.82802,0 -2.74616,1.35837 -4.26255,3.0186 l -2.75707,3.01861 1.75579,6.73139 c 0.96569,3.70227 1.78174,8.5992 1.81344,10.88206 0.0547,3.93645 0.25119,4.20206 3.80765,5.14665 5.59254,1.48536 7.96753,1.38119 8.64301,-0.3791 z m -36.58468,-45.49321 c -0.19708,-0.59125 -0.78583,-1.075 -1.30833,-1.075 -0.5225,0 -1.11125,0.48375 -1.30833,1.075 -0.19709,0.59125 0.39166,1.075 1.30833,1.075 0.91667,0 1.50542,-0.48375 1.30833,-1.075 z m -88.65044,44.075 c 0,-1.375 0.22698,-1.9375 0.50439,-1.25 0.27741,0.6875 0.27741,1.8125 0,2.5 -0.27741,0.6875 -0.50439,0.125 -0.50439,-1.25 z m 1,-5 c 0,-1.375 0.22698,-1.9375 0.50439,-1.25 0.27741,0.6875 0.27741,1.8125 0,2.5 -0.27741,0.6875 -0.50439,0.125 -0.50439,-1.25 z m 1.92106,-7.58333 c 0.048,-1.16495 0.28494,-1.4019 0.60416,-0.60417 0.28888,0.72187 0.25335,1.58437 -0.079,1.91667 -0.33229,0.33229 -0.56864,-0.25834 -0.52522,-1.3125 z m -7.32895,-3.49677 c -0.9625,-0.5606 -1.74311,-1.55942 -1.73469,-2.21959 0.0106,-0.83016 0.24188,-0.86557 0.75,-0.11485 0.40408,0.59701 1.63469,1.59582 2.73469,2.21959 1.1,0.62377 1.55,1.13413 1,1.13413 -0.55,0 -1.7875,-0.45867 -2.75,-1.01928 z m 6,0.41782 c 0.6875,-0.27741 1.8125,-0.27741 2.5,0 0.6875,0.27741 0.125,0.50438 -1.25,0.50438 -1.375,0 -1.9375,-0.22697 -1.25,-0.50438 z m -8.59211,-6.33772 c 0,-1.375 0.22698,-1.9375 0.50439,-1.25 0.27741,0.6875 0.27741,1.8125 0,2.5 -0.27741,0.6875 -0.50439,0.125 -0.50439,-1.25 z m 14.84211,-6.6422 c 0,-0.53655 0.69982,-1.84905 1.55517,-2.91667 1.46637,-1.83031 1.48719,-1.7984 0.36454,0.55887 -1.45781,3.06103 -1.91971,3.62834 -1.91971,2.3578 z m 31.53118,-2.66987 c -2.3644,-3.60853 -1.62813,-5.89595 2.55661,-7.94279 6.95155,-3.40015 18.71928,-2.29626 20.33233,1.9073 0.68867,1.79464 -1.29379,6.0851 -3.13883,6.79311 -0.7963,0.30557 -5.18406,0.84277 -9.75058,1.19378 -8.14122,0.62579 -8.33577,0.58782 -9.99953,-1.9514 z m 20.70431,-1.84549 c 2.29854,-2.68617 0.81756,-5.51239 -3.47091,-6.62364 -4.55958,-1.18151 -13.70543,0.27761 -15.97672,2.5489 -1.65289,1.65288 -1.7349,2.25443 -0.63612,4.66598 l 1.26139,2.76846 8.54344,-0.66577 c 6.82232,-0.53166 8.89305,-1.07436 10.27892,-2.69393 z m -14.78562,-0.92356 c -1.01582,-1.64362 1.46567,-2.88587 5.80013,-2.90357 3.37962,-0.0138 4.94639,1.18443 3,2.29433 -2.15802,1.23059 -8.15934,1.64606 -8.80013,0.60924 z m -52.31369,1.29973 c -0.18481,-3.09596 2.37711,-3.84916 6.20065,-1.82298 1.73974,0.92194 2.26317,1.37721 1.16317,1.01171 -5.31382,-1.76561 -6.32574,-1.6549 -6.78106,0.7419 l -0.44658,2.35076 -0.13618,-2.28139 z m 26.67632,1.09828 c 0.72187,-0.28888 1.58437,-0.25335 1.91667,0.0789 0.33229,0.33229 -0.25834,0.56864 -1.3125,0.52522 -1.16495,-0.048 -1.4019,-0.28495 -0.60417,-0.60417 z m -16.0625,-0.97917 c 0.6875,-0.27741 1.8125,-0.27741 2.5,0 0.6875,0.27741 0.125,0.50438 -1.25,0.50438 -1.375,0 -1.9375,-0.22697 -1.25,-0.50438 z m 11.21544,-1.40229 c -0.83808,-1.56597 -1.42375,-1.79996 -2.4251,-0.96891 -0.75771,0.62885 -0.48322,-0.59599 0.64426,-2.87484 1.08044,-2.18377 2.71841,-4.56025 3.63992,-5.28108 1.50227,-1.17511 1.53359,-1.12968 0.30303,0.4394 -1.20914,1.54178 -1.13264,1.75 0.64302,1.75 2.22748,0 3.48188,2.17856 2.59106,4.5 -0.31659,0.825 -1.42746,1.5 -2.46862,1.5 -2.1279,0 -2.55833,1.56487 -0.64301,2.33772 0.94216,0.38017 0.95082,0.52383 0.0352,0.58333 -0.66815,0.0434 -1.71203,-0.85011 -2.31974,-1.98562 z m 3.53892,-2.94249 c 0.34233,-0.55389 -0.10053,-1.28448 -0.98411,-1.62354 -1.91464,-0.73472 -2.98171,0.0749 -2.06137,1.56407 0.83038,1.34358 2.23491,1.371 3.04548,0.0595 z m 6.19896,2.605 c 0.98817,-1.32113 1.94564,-2.25967 2.1277,-2.08565 0.62447,0.59692 -1.90097,4.48771 -2.91289,4.48771 -0.55632,0 -0.20299,-1.08093 0.78519,-2.40206 z m -0.4438,-7.54993 c -1.90636,-2.41762 -2.01046,-2.92961 -0.69806,-3.43322 0.88889,-0.3411 1.28154,-0.16978 0.92672,0.40433 -0.33863,0.54792 0.088,1.69991 0.94806,2.55998 0.86007,0.86007 1.56376,1.98161 1.56376,2.49233 0,1.32589 -0.23802,1.15015 -2.74048,-2.02342 z m 75.30477,-4.34114 c 0.37553,-0.98622 0.93469,-1.54122 1.24258,-1.23333 0.30789,0.30789 6.4e-4,1.11479 -0.68278,1.79313 -0.98762,0.98026 -1.10248,0.8654 -0.5598,-0.5598 z m -70.56429,-1.70687 c 0.825,-0.53316 2.175,-0.94464 3,-0.9144 0.98906,0.0362 0.81874,0.34772 -0.5,0.9144 -2.74909,1.18132 -4.32797,1.18132 -2.5,0 z m 58,-1 c -0.90129,-0.58246 -1.02463,-0.97549 -0.30902,-0.98469 0.65504,-0.008 1.4691,0.43469 1.80902,0.98469 0.7673,1.24152 0.42112,1.24152 -1.5,0 z m -49.25,-1.66228 c 0.6875,-0.27741 1.8125,-0.27741 2.5,0 0.6875,0.27741 0.125,0.50438 -1.25,0.50438 -1.375,0 -1.9375,-0.22697 -1.25,-0.50438 z m 45.0625,-0.0208 c 0.72187,-0.28887 1.58437,-0.25335 1.91667,0.0789 0.33229,0.33229 -0.25834,0.56864 -1.3125,0.52522 -1.16495,-0.048 -1.4019,-0.28494 -0.60417,-0.60417 z m -38.54347,-1.00988 c 0.97297,-0.25354 2.32297,-0.23687 3,0.0371 0.67703,0.27392 -0.11903,0.48137 -1.76903,0.46099 -1.65,-0.0204 -2.20394,-0.2445 -1.23097,-0.49804 z m 27.48097,0.0307 c 0.6875,-0.27741 1.8125,-0.27741 2.5,0 0.6875,0.27741 0.125,0.50439 -1.25,0.50439 -1.375,0 -1.9375,-0.22698 -1.25,-0.50439 z m -16.5,-1.06619 c 2.0625,-0.21574 5.4375,-0.21574 7.5,0 2.0625,0.21575 0.375,0.39227 -3.75,0.39227 -4.125,0 -5.8125,-0.17652 -3.75,-0.39227 z"
         id="path3159"
         inkscape:connector-curvature="0" />
      <path
         style="fill:#646463"
         d="m 530.82986,695.80243 c 0,-0.55 0.47656,-1 1.05902,-1 0.58246,0 0.7809,0.45 0.44098,1 -0.33992,0.55 -0.81648,1 -1.05902,1 -0.24254,0 -0.44098,-0.45 -0.44098,-1 z m -2.70031,-5.38853 c -0.43983,-0.76369 -1.69969,-1.61149 -2.79969,-1.884 -1.83792,-0.45531 -1.82051,-0.50487 0.21482,-0.61147 1.277,-0.0669 2.66803,0.73085 3.28518,1.884 1.19542,2.23367 0.55567,2.79227 -0.70031,0.61147 z m 6.43364,-1.73556 c 0.67834,-0.68342 1.48524,-0.99067 1.79313,-0.68278 0.30789,0.30789 -0.24711,0.86705 -1.23333,1.24258 -1.4252,0.54268 -1.54006,0.42782 -0.5598,-0.5598 z m -16.98333,-1.53819 c 0.6875,-0.27741 1.8125,-0.27741 2.5,0 0.6875,0.27741 0.125,0.50439 -1.25,0.50439 -1.375,0 -1.9375,-0.22698 -1.25,-0.50439 z m 23,0 c 0.6875,-0.27741 1.8125,-0.27741 2.5,0 0.6875,0.27741 0.125,0.50439 -1.25,0.50439 -1.375,0 -1.9375,-0.22698 -1.25,-0.50439 z m -26.9375,-1.02083 c 0.72187,-0.28887 1.58437,-0.25335 1.91667,0.0789 0.33229,0.33229 -0.25834,0.56864 -1.3125,0.52522 -1.16495,-0.048 -1.4019,-0.28494 -0.60417,-0.60416 z m -24.65461,-5.31689 c 0,-1.375 0.22698,-1.9375 0.50439,-1.25 0.27741,0.6875 0.27741,1.8125 0,2.5 -0.27741,0.6875 -0.50439,0.125 -0.50439,-1.25 z m 10.34211,-1 c -1.65,-1.09275 -2.55,-1.97978 -2,-1.97117 1.00265,0.0157 6.43973,3.91294 5.5,3.94234 -0.275,0.009 -1.85,-0.87842 -3.5,-1.97117 z m -8.34211,-7 c 0,-1.375 0.22698,-1.9375 0.50439,-1.25 0.27741,0.6875 0.27741,1.8125 0,2.5 -0.27741,0.6875 -0.50439,0.125 -0.50439,-1.25 z m -2.15789,-5 c -0.5887,-1.1 -0.84537,-2 -0.57037,-2 0.275,0 0.98167,0.9 1.57037,2 0.5887,1.1 0.84537,2 0.57037,2 -0.275,0 -0.98167,-0.9 -1.57037,-2 z m -2.37646,-4.53866 c -0.96498,-2.51469 -0.68031,-3.16355 0.49853,-1.13634 0.58369,1.00375 0.8506,2.03566 0.59313,2.29313 -0.25747,0.25747 -0.74872,-0.26309 -1.09166,-1.15679 z m 99.37646,1.1611 c 0,-0.20765 0.7875,-0.99515 1.75,-1.75 1.58606,-1.24387 1.62143,-1.2085 0.37756,0.37756 -1.30637,1.66575 -2.12756,2.19548 -2.12756,1.37244 z m 3,-4 c 0,-0.20765 0.7875,-0.99515 1.75,-1.75 1.58606,-1.24387 1.62143,-1.2085 0.37756,0.37756 -1.30637,1.66575 -2.12756,2.19548 -2.12756,1.37244 z M 483.90881,654.2191 c 0.048,-1.16495 0.28494,-1.4019 0.60416,-0.60417 0.28888,0.72187 0.25335,1.58437 -0.079,1.91667 -0.33229,0.33229 -0.56864,-0.25834 -0.52522,-1.3125 z m -1.51466,-5.12354 c -0.54268,-1.4252 -0.42782,-1.54006 0.5598,-0.5598 0.68342,0.67834 0.99067,1.48524 0.68278,1.79313 -0.30789,0.30789 -0.86705,-0.24711 -1.24258,-1.23333 z m -5.56429,-3.29313 c 0,-0.55 0.47656,-1 1.05902,-1 0.58246,0 0.7809,0.45 0.44098,1 -0.33992,0.55 -0.81648,1 -1.05902,1 -0.24254,0 -0.44098,-0.45 -0.44098,-1 z m 127,-2.3865 c 0,-0.21258 1.32623,-0.58115 2.94719,-0.81906 1.62095,-0.2379 2.71939,-0.064 2.44098,0.3865 -0.49551,0.80176 -5.38817,1.19454 -5.38817,0.43256 z m -3.1875,-1.29661 c 0.72187,-0.28888 1.58437,-0.25335 1.91667,0.0789 0.33229,0.33229 -0.25834,0.56864 -1.3125,0.52522 -1.16495,-0.048 -1.4019,-0.28495 -0.60417,-0.60417 z m 9.26645,-2.90022 c 0.048,-1.16495 0.28494,-1.4019 0.60416,-0.60417 0.28887,0.72187 0.25335,1.58437 -0.0789,1.91667 -0.3323,0.33229 -0.56864,-0.25834 -0.52522,-1.3125 z m -14,-1 c 0.048,-1.16495 0.28494,-1.4019 0.60416,-0.60417 0.28887,0.72187 0.25335,1.58437 -0.0789,1.91667 -0.3323,0.33229 -0.56864,-0.25834 -0.52522,-1.3125 z m -1,-8 c 0.048,-1.16495 0.28494,-1.4019 0.60416,-0.60417 0.28887,0.72187 0.25335,1.58437 -0.0789,1.91667 -0.3323,0.33229 -0.56864,-0.25834 -0.52522,-1.3125 z m 15,-3.08488 c -0.0434,-0.64252 -0.33793,-1.99252 -0.65446,-3 -0.54705,-1.74122 -0.51883,-1.7434 0.57078,-0.0441 0.63045,0.98322 0.92496,2.33322 0.65445,3 -0.35498,0.87499 -0.51379,0.88727 -0.57077,0.0441 z m -123.26645,-3.0149 c 0.72187,-0.28888 1.58437,-0.25335 1.91667,0.0789 0.33229,0.33229 -0.25834,0.56864 -1.3125,0.52522 -1.16495,-0.048 -1.4019,-0.28495 -0.60417,-0.60417 z m 105.41653,-3.92231 c -0.6086,-1.98298 -0.82619,-3.32507 -0.48353,-2.98242 0.34265,0.34266 2.22759,-0.84741 4.18875,-2.64458 l 3.56575,-3.26758 -3.30548,3.60485 c -2.64791,2.88772 -3.17341,4.13106 -2.64159,6.25 0.99092,3.94817 -0.0489,3.19391 -1.3239,-0.96027 z m 13.28225,-3.0177 c -0.9453,-1.44272 -1.22448,-2.31766 -0.62038,-1.94431 1.15439,0.71345 3.48267,4.56743 2.75929,4.56743 -0.23109,0 -1.1936,-1.18041 -2.13891,-2.62312 z m -16.42795,-3.7497 c 1.02905,-0.92077 6.91667,-3.62641 6.91667,-3.17854 0,0.57598 -5.54382,3.55136 -6.61701,3.55136 -0.39398,0 -0.52882,-0.16777 -0.29966,-0.37282 z m -5.32079,-8.12718 c -2.5927,-3.575 -4.38742,-6.49039 -3.98827,-6.47865 0.68567,0.0202 3.7427,4.08702 7.68882,10.22865 3.22151,5.01386 1.08538,2.84919 -3.70055,-3.75 z m -59.76254,3.5 c -0.5887,-1.1 -0.92954,-2 -0.75742,-2 0.17211,0 1.08354,0.9 2.02539,2 0.94185,1.1 1.28269,2 0.75743,2 -0.52527,0 -1.4367,-0.9 -2.0254,-2 z m 4.75,1.33772 c 0.6875,-0.27741 1.8125,-0.27741 2.5,0 0.6875,0.27741 0.125,0.50438 -1.25,0.50438 -1.375,0 -1.9375,-0.22697 -1.25,-0.50438 z m 10.48495,-1.06529 c 2.38402,-0.24981 4.28294,-1.17373 5.25,-2.5544 0.83328,-1.18968 1.51505,-1.68266 1.51505,-1.09552 0,2.1706 -3.70712,4.37505 -7.07874,4.20939 l -3.42126,-0.16811 3.73495,-0.39136 z m -50.42245,-1.95554 c 0.72187,-0.28888 1.58437,-0.25335 1.91667,0.0789 0.33229,0.33229 -0.25834,0.56864 -1.3125,0.52522 -1.16495,-0.048 -1.4019,-0.28495 -0.60417,-0.60417 z m -11.5603,-1.31689 c 0.22245,-0.825 1.49421,-1.58309 2.82613,-1.68465 1.90949,-0.14559 1.99867,-0.0683 0.42167,0.36569 -1.1,0.30268 -2.37176,1.06077 -2.82613,1.68464 -0.54586,0.74949 -0.68891,0.62542 -0.42167,-0.36568 z m 52.89276,0.21499 c -0.93935,-0.31312 -0.95448,-0.73958 -0.0643,-1.81224 1.48727,-1.79205 9.26246,-1.93227 8.67049,-0.15636 -0.43302,1.29908 -6.47122,2.68027 -8.60624,1.9686 z m -33.28303,-3.65287 c 1.78174,-3.80371 4.93634,-4.71504 7.13807,-2.06212 1.80665,2.17688 -0.50251,4.64399 -3.88575,4.15154 -1.43784,-0.20928 -3.12638,0.0218 -3.75232,0.51352 -0.62594,0.49172 -0.40094,-0.6796 0.5,-2.60294 z m 5.9089,-0.37462 c 0.22111,-0.66333 -0.52375,-1.1875 -1.6875,-1.1875 -2.07732,0 -2.69993,1.05007 -1.39583,2.35417 0.92647,0.92647 2.59622,0.29467 3.08333,-1.16667 z m 92.37343,0.0625 c -1.0912,-2.55004 -1.06651,-2.60886 0.33949,-0.80887 0.83394,1.06762 1.51625,2.30512 1.51625,2.75 0,1.51991 -0.67833,0.81036 -1.85574,-1.94113 z m -70.70313,-0.69483 c 1.06762,-0.85535 2.64262,-1.51964 3.5,-1.47622 1.3466,0.0682 1.35461,0.15468 0.0589,0.63512 -0.825,0.3059 -2.4,0.9702 -3.5,1.47622 -1.968,0.90532 -1.96894,0.89516 -0.0589,-0.63512 z m 17.55887,-0.67616 c -1.925,-1.03175 -2.76235,-1.8766 -1.86078,-1.87746 0.90156,-8.5e-4 2.70156,0.88348 4,1.96518 2.8603,2.38287 2.43803,2.36556 -2.13922,-0.0877 z m -10.73097,-1.572 c 0.97297,-0.25354 2.32297,-0.23687 3,0.0371 0.67703,0.27392 -0.11903,0.48137 -1.76903,0.46099 -1.65,-0.0204 -2.20394,-0.2445 -1.23097,-0.49805 z m 31.71091,-0.83118 c -0.69572,-0.83829 -1.07128,-1.71782 -0.83459,-1.95452 0.2367,-0.23669 0.97964,0.44918 1.65098,1.52417 1.45181,2.32472 0.96763,2.57996 -0.81639,0.43035 z m 8.53277,0.77417 c 0.38648,-0.79809 -0.16421,-1.25 -1.52324,-1.25 -1.63542,0 -2.05454,-0.52128 -1.80902,-2.25 0.49627,-3.4943 4.75592,-3.1307 7.77579,0.66375 1.89003,2.3748 1.98004,2.67641 0.39047,1.30839 -1.9942,-1.71628 -2.1242,-1.69895 -3.75255,0.5 -0.92773,1.25282 -1.41439,1.71536 -1.08145,1.02786 z m 1.25812,-3.4375 c -0.61807,-1.85422 -2.77083,-2.16176 -2.77083,-0.39583 0,0.87083 0.7125,1.58333 1.58333,1.58333 0.87084,0 1.40521,-0.53438 1.1875,-1.1875 z m 16.10161,-2.5625 c -1.24387,-1.58606 -1.2085,-1.62143 0.37756,-0.37756 1.66575,1.30637 2.19548,2.12756 1.37244,2.12756 -0.20765,0 -0.99515,-0.7875 -1.75,-1.75 z m -67.05994,-3.93311 c 0.72187,-0.28888 1.58437,-0.25335 1.91667,0.0789 0.33229,0.33229 -0.25834,0.56864 -1.3125,0.52522 -1.16495,-0.048 -1.4019,-0.28495 -0.60417,-0.60417 z m 45,0 c 0.72187,-0.28888 1.58437,-0.25335 1.91667,0.0789 0.33229,0.33229 -0.25834,0.56864 -1.3125,0.52522 -1.16495,-0.048 -1.4019,-0.28495 -0.60417,-0.60417 z m -39,-1 c 0.72187,-0.28888 1.58437,-0.25335 1.91667,0.0789 0.33229,0.33229 -0.25834,0.56864 -1.3125,0.52522 -1.16495,-0.048 -1.4019,-0.28495 -0.60417,-0.60417 z m 11.4375,-1.04536 c 2.0625,-0.21574 5.4375,-0.21574 7.5,0 2.0625,0.21575 0.375,0.39226 -3.75,0.39226 -4.125,0 -5.8125,-0.17651 -3.75,-0.39226 z"
         id="path3157"
         inkscape:connector-curvature="0" />
    </g>
    <rect
       style="fill:url(#radialGradient4058);fill-opacity:1;fill-rule:nonzero;stroke:url(#linearGradient4076);stroke-width:2.03426123;stroke-linecap:round;stroke-linejoin:round;stroke-miterlimit:4;stroke-dasharray:none"
       id="rect3989"
       width="472.96573"
       height="472.96573"
       x="19.517136"
       y="559.87933"
       rx="27.181938"
       ry="27.181938" />
  </g>
</svg>
