<?xml version="1.0" encoding="UTF-8" standalone="no"?>
<!-- Created with Inkscape (http://www.inkscape.org/) by Marsupilami -->

<svg
   xmlns:dc="http://purl.org/dc/elements/1.1/"
   xmlns:cc="http://creativecommons.org/ns#"
   xmlns:rdf="http://www.w3.org/1999/02/22-rdf-syntax-ns#"
   xmlns:svg="http://www.w3.org/2000/svg"
   xmlns="http://www.w3.org/2000/svg"
   xmlns:xlink="http://www.w3.org/1999/xlink"
   xmlns:sodipodi="http://sodipodi.sourceforge.net/DTD/sodipodi-0.dtd"
   xmlns:inkscape="http://www.inkscape.org/namespaces/inkscape"
   version="1.0"
   width="512"
   height="512"
   viewBox="0 0 70.843475 70.864265"
   id="svg2268"
   inkscape:version="0.48.2 r9819"
   sodipodi:docname="Xing_logo_edit.svg">
  <metadata
     id="metadata3056">
    <rdf:RDF>
      <cc:Work
         rdf:about="">
        <dc:format>image/svg+xml</dc:format>
        <dc:type
           rdf:resource="http://purl.org/dc/dcmitype/StillImage" />
        <dc:title />
      </cc:Work>
    </rdf:RDF>
  </metadata>
  <sodipodi:namedview
     pagecolor="#ffffff"
     bordercolor="#666666"
     borderopacity="1"
     objecttolerance="10"
     gridtolerance="10"
     guidetolerance="10"
     inkscape:pageopacity="0"
     inkscape:pageshadow="2"
     inkscape:window-width="1152"
     inkscape:window-height="960"
     id="namedview3054"
     showgrid="false"
     inkscape:zoom="1.1347656"
     inkscape:cx="256"
     inkscape:cy="256"
     inkscape:window-x="0"
     inkscape:window-y="0"
     inkscape:window-maximized="0"
     inkscape:current-layer="svg2268" />
  <defs
     id="defs2270">
    <linearGradient
       id="linearGradient3910">
      <stop
         style="stop-color:#ffffff;stop-opacity:0.37254903;"
         offset="0"
         id="stop3912" />
      <stop
         style="stop-color:#ffffff;stop-opacity:0.12156863;"
         offset="1"
         id="stop3914" />
    </linearGradient>
    <linearGradient
       id="linearGradient3900">
      <stop
         id="stop3902"
         offset="0"
         style="stop-color:#ffffff;stop-opacity:0.81176472;" />
      <stop
         id="stop3904"
         offset="1"
         style="stop-color:#ffffff;stop-opacity:0;" />
    </linearGradient>
    <linearGradient
       id="linearGradient3864">
      <stop
         style="stop-color:#ffffff;stop-opacity:0.81176472;"
         offset="0"
         id="stop3866" />
      <stop
         style="stop-color:#ffffff;stop-opacity:0.74901962;"
         offset="1"
         id="stop3868" />
    </linearGradient>
    <linearGradient
       inkscape:collect="always"
       xlink:href="#linearGradient3864"
       id="linearGradient3870"
       x1="27.820559"
       y1="9.8453493"
       x2="43.245411"
       y2="60.907669"
       gradientUnits="userSpaceOnUse" />
    <linearGradient
       inkscape:collect="always"
       xlink:href="#linearGradient3910"
       id="linearGradient3916"
       x1="1.638947"
       y1="44.537302"
       x2="69.204529"
       y2="44.537302"
       gradientUnits="userSpaceOnUse" />
    <linearGradient
       inkscape:collect="always"
       xlink:href="#linearGradient3864"
       id="linearGradient3923"
       gradientUnits="userSpaceOnUse"
       x1="27.820559"
       y1="9.8453493"
       x2="43.245411"
       y2="60.907669"
       gradientTransform="matrix(7.2250802,0,0,7.2250802,0.07510471,0)" />
    <linearGradient
       inkscape:collect="always"
       xlink:href="#linearGradient3910"
       id="linearGradient3932"
       gradientUnits="userSpaceOnUse"
       x1="31.472164"
       y1="20.795683"
       x2="41.245651"
       y2="68.122719" />
    <filter
       inkscape:collect="always"
       id="filter4084"
       x="-0.18513319"
       width="1.3702664"
       y="-0.097602323"
       height="1.1952046">
      <feGaussianBlur
         inkscape:collect="always"
         stdDeviation="1.5272287"
         id="feGaussianBlur4086" />
    </filter>
    <filter
       inkscape:collect="always"
       id="filter4088"
       x="-0.27034503"
       width="1.5406901"
       y="-0.19398376"
       height="1.3879675">
      <feGaussianBlur
         inkscape:collect="always"
         stdDeviation="1.5272287"
         id="feGaussianBlur4090" />
    </filter>
    <filter
       inkscape:collect="always"
       id="filter4092"
       x="-0.24212984"
       width="1.4842597"
       y="-0.19493508"
       height="1.3898702">
      <feGaussianBlur
         inkscape:collect="always"
         stdDeviation="1.9770285"
         id="feGaussianBlur4094" />
    </filter>
    <filter
       inkscape:collect="always"
       id="filter4096"
       x="-1.0378263"
       width="3.0756527"
       y="-0.19493574"
       height="1.3898715">
      <feGaussianBlur
         inkscape:collect="always"
         stdDeviation="1.9770285"
         id="feGaussianBlur4098" />
    </filter>
    <filter
       inkscape:collect="always"
       id="filter4100"
       x="-0.2826817"
       width="1.5653634"
       y="-0.19493571"
       height="1.3898714">
      <feGaussianBlur
         inkscape:collect="always"
         stdDeviation="1.9770285"
         id="feGaussianBlur4102" />
    </filter>
    <filter
       inkscape:collect="always"
       id="filter4104"
       x="-0.28232069"
       width="1.5646414"
       y="-0.18926122"
       height="1.3785224">
      <feGaussianBlur
         inkscape:collect="always"
         stdDeviation="1.9770285"
         id="feGaussianBlur4106" />
    </filter>
    <filter
       inkscape:collect="always"
       id="filter4120">
      <feGaussianBlur
         inkscape:collect="always"
         stdDeviation="0.33784228"
         id="feGaussianBlur4122" />
    </filter>
  </defs>
  <g
     id="g4108"
     transform="matrix(0.98031559,0,0,0.99256117,0.77051004,-0.5891848)">
    <path
       inkscape:connector-curvature="0"
       id="path3936"
       style="fill:#000000;fill-opacity:1;fill-rule:nonzero;stroke:none;filter:url(#filter4104)"
       d="m 59.018542,42.173621 c -5.862368,0 -9.079462,3.420574 -9.079462,9.616071 l 0,6.525194 c -2e-6,5.917317 2.816995,8.929209 8.392599,8.929209 4.508392,0 8.159066,-1.76266 8.414063,-1.888871 l 0,-11.719588 c 0,-0.364036 -0.258431,-0.622469 -0.622467,-0.622469 l -7.469628,0 c -0.364037,-1e-6 -0.622471,0.258432 -0.622471,0.622469 l 0,3.005023 c 0,0.364037 0.258434,0.622469 0.622471,0.622469 l 3.477239,0 c 0.01459,-1e-6 0.02146,0.0069 0.02146,0.02146 l 0,5.065611 c -1e-6,0.0112 -0.01202,0.01803 -0.02146,0.02146 -0.01631,0.0069 -1.638166,0.622469 -3.648955,0.622469 -2.65644,0 -3.949459,-1.648468 -3.949459,-5.02268 l 0,-6.181762 c -10e-7,-1.754075 0.345148,-3.043658 1.051758,-3.927993 0.773579,-0.967617 1.942962,-1.438118 3.606027,-1.438118 l 0.729792,0 c 2.414319,0 4.279152,0.539187 5.473434,0.922972 0.185453,0.05925 0.355451,0.02832 0.472218,-0.06439 0.11934,-0.09444 0.19318,-0.254997 0.19318,-0.450753 l 0,-2.876235 c 10e-7,-0.325402 -0.159696,-0.508278 -0.643933,-0.751256 -0.617317,-0.309083 -2.374828,-1.030288 -5.409042,-1.030288 z"
       sodipodi:nodetypes="sssscsssssscsccssscssccsscss" />
    <path
       sodipodi:nodetypes="ssssssscccsssssssscccss"
       d="m 32.320219,42.500187 c -0.363179,0 -0.643935,0.259291 -0.643934,0.622469 l 0,23.095741 c 0,0.363182 0.280755,0.622473 0.643934,0.622473 l 3.326989,0 c 0.363178,0 0.622469,-0.259291 0.622469,-0.622473 l 0,-13.93042 c 0,-0.01198 0.0103,-0.01893 0.02146,-0.0215 0.0112,-0.0034 0.01632,0.0112 0.02147,0.0215 0,0 7.21205,13.908098 7.212053,13.90896 0.148534,0.297069 0.379493,0.643933 0.837113,0.643933 l 3.477242,0 c 0.363178,0 0.622466,-0.259291 0.622468,-0.622473 l 0,-23.095741 c 0,-0.363178 -0.259293,-0.622469 -0.622468,-0.622469 l -3.326991,0 c -0.363178,0 -0.622469,0.259291 -0.622467,0.622469 l 0,13.908957 c 0,0.01198 -0.0103,0.01893 -0.02147,0.0215 -0.0112,0.0034 -0.03692,0.01008 -0.04293,0 0,0 -7.212054,-13.908099 -7.212054,-13.908957 C 36.45513,42.83078 36.292,42.500226 35.775995,42.500226 z"
       style="fill:#000000;fill-opacity:1;fill-rule:nonzero;stroke:none;filter:url(#filter4100)"
       id="path3938"
       inkscape:connector-curvature="0" />
    <path
       sodipodi:nodetypes="sssssssss"
       d="m 25.038021,42.50019 c -0.363178,0 -0.622469,0.259291 -0.622469,0.622462 l 0,23.095744 c 0,0.363183 0.259291,0.622474 0.622469,0.622474 l 3.326989,0 c 0.36318,0 0.622471,-0.259291 0.622471,-0.622474 l 0,-23.095744 c 0,-0.363171 -0.259293,-0.622462 -0.622471,-0.622462 z"
       style="fill:#000000;fill-opacity:1;fill-rule:nonzero;stroke:none;filter:url(#filter4096)"
       id="path3940"
       inkscape:connector-curvature="0" />
    <path
       inkscape:connector-curvature="0"
       id="path3942"
       style="fill:#000000;fill-opacity:1;fill-rule:nonzero;stroke:none;filter:url(#filter4092)"
       d="m 4.7418203,42.500198 c -0.1734333,0 -0.3082296,0.06698 -0.3863607,0.193177 -0.084996,0.136517 -0.084139,0.325405 0,0.493685 l 6.1388314,11.182976 c 0.0044,0.0078 0.0044,0.03517 0,0.0429 l -6.4822624,11.74105 c -0.084994,0.169142 -0.084994,0.357168 0,0.493685 0.077274,0.126212 0.2129273,0.193177 0.3863597,0.193177 l 4.1855676,0 c 0.4790859,0 0.6499432,-0.268733 0.837113,-0.643933 l 4.2928891,-7.898917 c 0.0043,-0.009 0.01202,-0.0215 0.02146,-0.0215 0.0103,0 0.01718,0.01288 0.02146,0.0215 0,0 4.313496,7.898055 4.314354,7.898917 0.186312,0.374338 0.336562,0.643933 0.815649,0.643933 l 4.207031,0 c 0.173433,0 0.309088,-0.06698 0.386361,-0.193177 0.04293,-0.06866 0.06439,-0.152824 0.06439,-0.236108 0,-0.08411 -0.02232,-0.17258 -0.06439,-0.257577 -8.24e-4,-0.0022 -6.503728,-11.74105 -6.503728,-11.74105 -0.0027,-0.0045 0,-0.01714 0,-0.0215 0,-0.0045 -0.0027,-0.01803 0,-0.0215 L 23.136834,43.18696 c 0.04208,-0.08501 0.06439,-0.173432 0.06439,-0.257566 0,-0.08333 -0.02233,-0.16828 -0.06439,-0.236107 -0.07813,-0.126213 -0.213785,-0.193189 -0.38636,-0.193189 l -4.207031,0 c -0.479087,0 -0.649945,0.269595 -0.837115,0.643933 l -3.949457,7.340844 c -0.0043,0.0078 -0.0112,0.0215 -0.02146,0.0215 -0.0095,0 -0.01718,-0.01378 -0.02146,-0.0215 0,0 -3.9485995,-7.340844 -3.9494585,-7.340844 C 9.6082322,42.82978 9.4433844,42.500086 8.9273789,42.500086 z"
       sodipodi:nodetypes="sccccccssccsccsscscccccscssccsccss" />
    <path
       inkscape:connector-curvature="0"
       id="path3944"
       style="fill:#000000;fill-opacity:1;fill-rule:nonzero;stroke:none;filter:url(#filter4084)"
       d="m 44.454223,4.2589495 c -0.808736,0 -1.159557,0.5096144 -1.450062,1.0315385 0,0 -11.668202,20.692317 -12.052259,21.371803 0.0197,0.03693 7.695917,14.11903 7.695917,14.11903 0.268347,0.480071 0.683178,1.031539 1.512841,1.031539 l 5.410038,0 c 0.326202,0 0.58101,-0.123096 0.718876,-0.345899 0.144022,-0.231419 0.140329,-0.536695 -0.01098,-0.837048 l -7.6356,-13.950388 c -0.0069,-0.01098 -0.0069,-0.02462 0,-0.03565 L 50.634887,5.4407136 C 50.785064,5.1415919 50.788756,4.8363155 50.645863,4.6048964 50.507997,4.3820939 50.251959,4.2589987 49.925756,4.2589987 l -5.471585,0 z" />
    <path
       d="m 23.337726,11.880394 c -0.326202,0 -0.600705,0.114478 -0.738571,0.338512 -0.14279,0.231419 -0.120633,0.52931 0.03072,0.830893 l 3.662084,6.339407 c 0.0059,0.01231 0.0059,0.0197 0,0.03078 l -5.754655,10.155361 c -0.150176,0.299123 -0.14279,0.599475 0,0.830894 0.137868,0.222801 0.381595,0.369286 0.707799,0.369286 l 5.416192,0 c 0.809967,0 1.200179,-0.546543 1.477143,-1.046311 0,0 5.627916,-9.953484 5.847027,-10.340003 -0.02215,-0.03569 -3.723633,-6.493276 -3.723633,-6.493276 C 29.992254,12.415864 29.584808,11.8804 28.753914,11.8804 z"
       style="fill:#000000;fill-opacity:1;fill-rule:nonzero;stroke:none;filter:url(#filter4088)"
       id="path3946"
       inkscape:connector-curvature="0"
       sodipodi:nodetypes="sccccccsscccss" />
  </g>
  <path
     style="fill:url(#linearGradient3923);fill-opacity:1;fill-rule:nonzero;stroke:none;stroke-width:0.13840677000000001;stroke-linecap:round;stroke-linejoin:round;stroke-miterlimit:4;stroke-opacity:1;stroke-dasharray:none;opacity:1"
     d="M 37.875 1.75 C 17.861528 1.75 1.75 17.861528 1.75 37.875 L 1.75 474.125 C 1.75 494.13847 17.861528 510.25 37.875 510.25 L 474.125 510.25 C 494.13847 510.25 510.25 494.13847 510.25 474.125 L 510.25 37.875 C 510.25 17.861528 494.13847 1.75 474.125 1.75 L 37.875 1.75 z M 46.59375 11.90625 L 465.40625 11.90625 C 484.61918 11.90625 500.09375 27.380816 500.09375 46.59375 L 500.09375 465.40625 C 500.09375 484.61918 484.61918 500.09375 465.40625 500.09375 L 46.59375 500.09375 C 27.380816 500.09375 11.90625 484.61918 11.90625 465.40625 L 11.90625 46.59375 C 11.90625 27.380816 27.380816 11.90625 46.59375 11.90625 z "
     transform="matrix(0.13840677,0,0,0.13840677,-0.010395,0)"
     id="rect3094" />
  <rect
     style="fill:#ffffff;fill-opacity:0.74901962;fill-rule:nonzero;stroke:none"
     id="rect3906"
     width="67.565582"
     height="67.565582"
     x="1.638947"
     y="1.6493419"
     rx="4.8000002"
     ry="4.8000002" />
  <path
     style="fill:#ffffff;fill-opacity:0.81176470999999983;fill-rule:nonzero;stroke:none;filter:url(#filter4120)"
     d="m 6.4384954,1.6479054 c -2.6592001,0 -4.8009848,2.1417844 -4.8009848,4.8009848 l 0,16.9159028 c 0,-1.94249 2.1417847,-3.503421 4.8009848,-3.503421 l 57.9664856,0 c 2.659199,0 4.800985,1.560931 4.800985,3.503421 l 0,-16.9159028 c 0,-2.6592004 -2.141786,-4.8009848 -4.800985,-4.8009848 l -57.9664856,0 z m -4.8009848,62.7674696 0,1.29324 c 0,1.942495 2.1417847,3.507745 4.8009848,3.507745 -2.6592001,0 -4.8009848,-2.14178 -4.8009848,-4.800985 z m 67.5684554,0 c 0,2.659205 -2.141786,4.800985 -4.800985,4.800985 2.659199,0 4.800985,-1.56525 4.800985,-3.507745 l 0,-1.29324 z"
     id="rect3872"
     inkscape:connector-curvature="0" />
  <rect
     style="fill:url(#linearGradient3932);fill-opacity:1;fill-rule:nonzero;stroke:none"
     id="rect3908"
     width="67.565582"
     height="49.355247"
     x="1.638947"
     y="19.859678"
     rx="4.8000002"
     ry="3.5063" />
  <path
     inkscape:connector-curvature="0"
     id="path19359"
     style="fill:#005a5f;fill-opacity:1;fill-rule:nonzero;stroke:none"
     d="m 58.946099,43.516682 c -5.234257,0 -8.106662,3.054084 -8.106662,8.585778 l 0,5.826066 c -2e-6,5.283319 2.515174,7.972508 7.493392,7.972508 4.02535,0 7.28488,-1.573804 7.512556,-1.686492 l 0,-10.463918 c 0,-0.325032 -0.230742,-0.555776 -0.555774,-0.555776 l -6.669311,0 c -0.325033,-10e-7 -0.555777,0.230743 -0.555777,0.555776 l 0,2.683056 c 0,0.325033 0.230744,0.555776 0.555777,0.555776 l 3.104678,0 c 0.01303,-10e-7 0.01916,0.0062 0.01916,0.01916 l 0,4.522867 c -10e-7,0.01 -0.01073,0.0161 -0.01916,0.01916 -0.01456,0.0062 -1.462648,0.555776 -3.257996,0.555776 -2.371821,0 -3.526302,-1.471847 -3.526302,-4.484536 l 0,-5.51943 c -10e-7,-1.566139 0.308168,-2.717552 0.939069,-3.507137 0.690696,-0.863944 1.734788,-1.284034 3.219667,-1.284034 l 0.6516,0 c 2.155642,0 3.820672,0.481417 4.886995,0.824082 0.165583,0.0529 0.317367,0.02529 0.421623,-0.05749 0.106554,-0.08432 0.172482,-0.227676 0.172482,-0.402458 l 0,-2.568067 c 10e-7,-0.290537 -0.142585,-0.45382 -0.57494,-0.670764 C 64.106,44.160618 62.536794,43.516685 59.827674,43.516685 z m -53.2394946,0.28747 c -0.1548512,0 -0.275205,0.05979 -0.3449649,0.172483 -0.075889,0.121887 -0.075124,0.290536 0,0.440788 l 5.4810995,9.9848 c 0.0039,0.0069 0.0039,0.03144 0,0.03833 L 5.0550047,64.923636 c -0.075888,0.151018 -0.075888,0.3189 0,0.440787 0.068995,0.112689 0.1901136,0.172483 0.344964,0.172482 l 3.7371139,0 c 0.4277553,0 0.5803064,-0.239941 0.7474223,-0.57494 L 13.717442,57.90936 c 0.0038,-0.0076 0.01073,-0.01916 0.01916,-0.01916 0.0092,0 0.01534,0.0115 0.01916,0.01916 0,0 3.851336,7.051839 3.852102,7.052605 0.16635,0.334231 0.300502,0.574941 0.728258,0.57494 l 3.756278,0 c 0.154851,0 0.275971,-0.05979 0.344965,-0.172482 0.03833,-0.06133 0.05749,-0.136451 0.05749,-0.210811 0,-0.07512 -0.01993,-0.154085 -0.05749,-0.229976 -7.36e-4,-0.0015 -5.8069,-10.483082 -5.8069,-10.483083 -0.0024,-0.0039 0,-0.01534 0,-0.01916 0,-0.0039 -0.0024,-0.0161 0,-0.01917 l 5.500258,-9.984794 c 0.03757,-0.07588 0.05749,-0.154851 0.05749,-0.229976 0,-0.07436 -0.01994,-0.150251 -0.05749,-0.210812 -0.06976,-0.112688 -0.19088,-0.172482 -0.344964,-0.172482 l -3.756278,0 c -0.427756,0 -0.580308,0.240708 -0.747424,0.57494 l -3.526301,6.554323 c -0.0038,0.0068 -0.01,0.01916 -0.01916,0.01916 -0.0085,0 -0.01534,-0.01227 -0.01916,-0.01916 0,0 -3.525535,-6.554323 -3.526302,-6.554323 -0.139519,-0.280578 -0.2867045,-0.574948 -0.7474237,-0.574948 z m 19.5096486,0 c -0.324266,0 -0.555776,0.23151 -0.555776,0.555776 l 0,20.621201 c 0,0.324267 0.23151,0.555776 0.555776,0.555776 l 2.970526,0 c 0.324267,0 0.555777,-0.231509 0.555777,-0.555776 l 0,-20.621201 c 0,-0.324266 -0.231511,-0.555776 -0.555777,-0.555776 z m 7.93418,0 c -0.324267,0 -0.574942,0.23151 -0.574941,0.555776 l 0,20.621201 c 0,0.324267 0.250674,0.555776 0.574941,0.555776 l 2.970526,0 c 0.324266,0 0.555776,-0.231509 0.555776,-0.555776 l 0,-12.43788 c 0,-0.01073 0.0092,-0.01686 0.01916,-0.01916 0.01,-0.003 0.01457,0.01 0.01917,0.01916 0,0 6.439331,12.417949 6.439333,12.418716 0.13262,0.26524 0.338833,0.57494 0.747423,0.57494 l 3.10468,0 c 0.324266,0 0.555773,-0.231509 0.555775,-0.555776 l 0,-20.621201 c 0,-0.324266 -0.231512,-0.555776 -0.555775,-0.555776 l -2.970528,0 c -0.324266,0 -0.555776,0.23151 -0.555774,0.555776 l 0,12.418716 c 0,0.01073 -0.0092,0.01686 -0.01917,0.01916 -0.01,0.003 -0.03296,0.0092 -0.03833,0 0,0 -6.439334,-12.41795 -6.439334,-12.418716 -0.141047,-0.2798 -0.286699,-0.574937 -0.747418,-0.574937 z"
     sodipodi:nodetypes="sssscsssssscsccssscssccsscsssccccccssccsccsscscccccscssccsccsssssssssssssssssscccsssssssscccss" />
  <path
     inkscape:connector-curvature="0"
     id="path19375"
     style="fill:#d4d600;fill-opacity:1;fill-rule:nonzero;stroke:#9fa100;stroke-opacity:1;stroke-width:0.34601692000000001;stroke-miterlimit:4;stroke-dasharray:none"
     d="m 44.068177,6.2707661 c -0.722086,0 -1.035319,0.4550129 -1.294699,0.9210165 0,0 -10.418037,18.4752834 -10.760945,19.0819674 0.01759,0.03297 6.871354,12.606276 6.871354,12.606276 0.239596,0.428635 0.609981,0.921017 1.350751,0.921017 l 4.830391,0 c 0.291252,0 0.518759,-0.109907 0.641854,-0.308838 0.128591,-0.206624 0.125294,-0.479192 -0.0098,-0.747364 l -6.8175,-12.455704 c -0.0062,-0.0098 -0.0062,-0.02198 0,-0.03183 L 49.586627,7.3259126 C 49.720713,7.0588397 49.72401,6.7862715 49.596427,6.5796473 49.473332,6.3807165 49.244727,6.27081 48.953474,6.27081 l -4.885344,0 z" />
  <path
     d="m 23.752232,12.892633 c -0.291252,0 -0.536344,0.102213 -0.659439,0.302243 -0.127491,0.206624 -0.107708,0.472598 0.02743,0.741869 l 3.269718,5.660185 c 0.0053,0.01099 0.0053,0.01759 0,0.02748 l -5.138085,9.067287 c -0.134086,0.267074 -0.127491,0.535245 0,0.741869 0.123096,0.19893 0.34071,0.32972 0.631963,0.32972 l 4.835886,0 c 0.723185,0 1.071588,-0.487985 1.318878,-0.934206 0,0 5.024925,-8.88704 5.220559,-9.232146 -0.01978,-0.03187 -3.324672,-5.797568 -3.324672,-5.797568 -0.240695,-0.428636 -0.604486,-0.906729 -1.346355,-0.906729 z"
     style="fill:#005a5f;fill-opacity:1;fill-rule:nonzero;stroke:none"
     id="path3060"
     inkscape:connector-curvature="0"
     sodipodi:nodetypes="sccccccsscccss" />
</svg>
