<?xml version="1.0" encoding="UTF-8" standalone="no"?>
<!-- Created with Inkscape (http://www.inkscape.org/) -->

<svg
   xmlns:dc="http://purl.org/dc/elements/1.1/"
   xmlns:cc="http://creativecommons.org/ns#"
   xmlns:rdf="http://www.w3.org/1999/02/22-rdf-syntax-ns#"
   xmlns:svg="http://www.w3.org/2000/svg"
   xmlns="http://www.w3.org/2000/svg"
   xmlns:xlink="http://www.w3.org/1999/xlink"
   xmlns:sodipodi="http://sodipodi.sourceforge.net/DTD/sodipodi-0.dtd"
   xmlns:inkscape="http://www.inkscape.org/namespaces/inkscape"
   width="512"
   height="512"
   id="svg21439"
   version="1.1"
   inkscape:version="0.48.2 r9819"
   sodipodi:docname="grooveshark.svg"
   inkscape:export-filename="/Users/axolotl/Pictures/FLUID LOGOS/grooveshark_badge.png"
   inkscape:export-xdpi="90"
   inkscape:export-ydpi="90">
  <defs
     id="defs21441">
    <linearGradient
       id="linearGradient22247">
      <stop
         id="stop22249"
         offset="0"
         style="stop-color:#000000;stop-opacity:1;" />
      <stop
         style="stop-color:#000000;stop-opacity:1;"
         offset="0.81761009"
         id="stop22253" />
      <stop
         id="stop22251"
         offset="1"
         style="stop-color:#ff8e00;stop-opacity:1;" />
    </linearGradient>
    <linearGradient
       id="linearGradient22231">
      <stop
         style="stop-color:#ffffff;stop-opacity:0.49803922;"
         offset="0"
         id="stop22233" />
      <stop
         id="stop22235"
         offset="0.63805073"
         style="stop-color:#ffffff;stop-opacity:0.12156863;" />
      <stop
         style="stop-color:#ffffff;stop-opacity:0;"
         offset="1"
         id="stop22237" />
    </linearGradient>
    <linearGradient
       id="linearGradient22160">
      <stop
         style="stop-color:#ff7400;stop-opacity:0.81176472;"
         offset="0"
         id="stop22162" />
      <stop
         style="stop-color:#ffa700;stop-opacity:0.74901962;"
         offset="1"
         id="stop22164" />
    </linearGradient>
    <linearGradient
       id="linearGradient21987">
      <stop
         id="stop21989"
         offset="0"
         style="stop-color:#ffffff;stop-opacity:0.49803922;" />
      <stop
         style="stop-color:#ffffff;stop-opacity:0.12156863;"
         offset="0.63805073"
         id="stop21993" />
      <stop
         id="stop21991"
         offset="1"
         style="stop-color:#ffffff;stop-opacity:0;" />
    </linearGradient>
    <linearGradient
       id="linearGradient21963">
      <stop
         style="stop-color:#ffffff;stop-opacity:1;"
         offset="0"
         id="stop21965" />
      <stop
         style="stop-color:#000000;stop-opacity:1;"
         offset="1"
         id="stop21967" />
    </linearGradient>
    <linearGradient
       inkscape:collect="always"
       xlink:href="#linearGradient21963"
       id="linearGradient21979"
       x1="568.67346"
       y1="280.93359"
       x2="568.67346"
       y2="889.505"
       gradientUnits="userSpaceOnUse"
       gradientTransform="matrix(0.76487804,0,0,0.73615026,-2.9658603,-174.80933)" />
    <inkscape:perspective
       id="perspective2447"
       inkscape:persp3d-origin="372.04724 : 350.78739 : 1"
       inkscape:vp_z="744.09448 : 526.18109 : 1"
       inkscape:vp_y="0 : 1000 : 0"
       inkscape:vp_x="0 : 526.18109 : 1"
       sodipodi:type="inkscape:persp3d" />
    <linearGradient
       inkscape:collect="always"
       xlink:href="#linearGradient21963"
       id="linearGradient22155"
       gradientUnits="userSpaceOnUse"
       x1="201.90477"
       y1="889.505"
       x2="201.90477"
       y2="280.93359"
       gradientTransform="matrix(0.81951218,0,0,0.78873242,-21.46342,-205.58143)" />
    <linearGradient
       inkscape:collect="always"
       xlink:href="#linearGradient22160"
       id="linearGradient22166"
       x1="272"
       y1="288"
       x2="240"
       y2="64"
       gradientUnits="userSpaceOnUse" />
    <radialGradient
       inkscape:collect="always"
       xlink:href="#linearGradient22231"
       id="radialGradient22168"
       gradientUnits="userSpaceOnUse"
       gradientTransform="matrix(0.71024388,-0.32780487,0.27663997,0.59938656,35.520094,575.5347)"
       cx="341.37921"
       cy="-79.462799"
       fx="341.37921"
       fy="-79.462799"
       r="292.85715" />
    <filter
       inkscape:collect="always"
       id="filter22190">
      <feGaussianBlur
         inkscape:collect="always"
         stdDeviation="0.48"
         id="feGaussianBlur22192" />
    </filter>
    <filter
       inkscape:collect="always"
       id="filter22208">
      <feGaussianBlur
         inkscape:collect="always"
         stdDeviation="6"
         id="feGaussianBlur22210" />
    </filter>
    <radialGradient
       inkscape:collect="always"
       xlink:href="#linearGradient22247"
       id="radialGradient22245"
       cx="256"
       cy="256"
       fx="256"
       fy="256"
       r="254.39999"
       gradientUnits="userSpaceOnUse" />
  </defs>
  <sodipodi:namedview
     id="base"
     pagecolor="#ffffff"
     bordercolor="#666666"
     borderopacity="1.0"
     inkscape:pageopacity="0.0"
     inkscape:pageshadow="2"
     inkscape:zoom="1"
     inkscape:cx="256"
     inkscape:cy="256"
     inkscape:document-units="px"
     inkscape:current-layer="layer1"
     showgrid="false"
     inkscape:window-width="1651"
     inkscape:window-height="954"
     inkscape:window-x="11"
     inkscape:window-y="0"
     inkscape:window-maximized="0">
    <inkscape:grid
       type="xygrid"
       id="grid21971"
       empspacing="5"
       visible="true"
       enabled="true"
       snapvisiblegridlinesonly="true"
       spacingx="16px"
       spacingy="16px"
       originx="16px"
       originy="16px" />
  </sodipodi:namedview>
  <metadata
     id="metadata21444">
    <rdf:RDF>
      <cc:Work
         rdf:about="">
        <dc:format>image/svg+xml</dc:format>
        <dc:type
           rdf:resource="http://purl.org/dc/dcmitype/StillImage" />
        <dc:title></dc:title>
      </cc:Work>
    </rdf:RDF>
  </metadata>
  <g
     inkscape:label="Ebene 1"
     inkscape:groupmode="layer"
     id="layer1"
     transform="translate(0,-540.36218)">
    <path
       id="path22194"
       transform="translate(0,540.36218)"
       d="M 256 16 C 123.45166 16 16 123.45166 16 256 C 16 388.54834 123.45166 496 256 496 C 388.54834 496 496 388.54834 496 256 C 496 123.45166 388.54834 16 256 16 z M 253.6875 79.53125 C 283.09264 79.38846 290.10296 80.1059 305.3125 84.84375 C 355.40998 100.4494 393.0325 132.58809 415.5 178.9375 C 428.43964 205.63136 432.77176 226.9132 431.59375 257.96875 C 430.52489 286.14681 426.98257 295.923 415.6875 301.75 C 408.21909 305.60288 403.65074 305.87044 394.375 303.0625 C 375.0498 297.21242 362.53746 285.88271 334 248.25 C 304.25517 209.02508 266.48438 170.44811 241.71875 154 C 223.77233 142.08083 195.9848 129.30831 181.1875 126.1875 C 173.65995 124.59991 173.30231 124.80894 174.6875 130.03125 C 175.49406 133.07202 176.82132 147.66069 177.65625 162.46875 C 180.14938 206.68612 172.90871 238.74166 155.09375 262.28125 C 135.39221 288.31367 104.07493 300.97759 88.90625 289.03125 C 77.58489 280.11493 74.86538 257.52245 81 223.21875 C 87.3887 187.49427 102.92242 158.49441 130.5 130.6875 C 151.88847 109.12114 173.40532 95.46024 200.875 86.09375 C 217.80348 80.32156 223.00462 79.68015 253.6875 79.53125 z "
       style="fill:url(#radialGradient22245);fill-opacity:1;fill-rule:nonzero;stroke:none;stroke-opacity:1;stroke-width:3;stroke-miterlimit:4;stroke-dasharray:none;stroke-linejoin:round;stroke-linecap:round;filter:url(#filter22208)" />
    <path
       sodipodi:type="arc"
       style="fill:url(#linearGradient22166);fill-opacity:1;fill-rule:nonzero;stroke:none"
       id="path22158"
       sodipodi:cx="256"
       sodipodi:cy="256"
       sodipodi:rx="208"
       sodipodi:ry="208"
       d="m 464,256 a 208,208 0 1 1 -416,0 208,208 0 1 1 416,0 z"
       transform="matrix(1,0,0,0.76923077,0,551.4391)" />
    <path
       style="fill:url(#linearGradient22155);fill-opacity:1;fill-rule:nonzero;stroke:#000000;stroke-opacity:1;stroke-width:3;stroke-miterlimit:4;stroke-dasharray:none;stroke-linejoin:round;stroke-linecap:round;filter:url(#filter22190)"
       d="M 256 16 C 123.45166 16 16 123.45166 16 256 C 16 388.54834 123.45166 496 256 496 C 388.54834 496 496 388.54834 496 256 C 496 123.45166 388.54834 16 256 16 z M 253.6875 79.53125 C 283.09264 79.38846 290.10296 80.1059 305.3125 84.84375 C 355.40998 100.4494 393.0325 132.58809 415.5 178.9375 C 428.43964 205.63136 432.77176 226.9132 431.59375 257.96875 C 430.52489 286.14681 426.98257 295.923 415.6875 301.75 C 408.21909 305.60288 403.65074 305.87044 394.375 303.0625 C 375.0498 297.21242 362.53746 285.88271 334 248.25 C 304.25517 209.02508 266.48438 170.44811 241.71875 154 C 223.77233 142.08083 195.9848 129.30831 181.1875 126.1875 C 173.65995 124.59991 173.30231 124.80894 174.6875 130.03125 C 175.49406 133.07202 176.82132 147.66069 177.65625 162.46875 C 180.14938 206.68612 172.90871 238.74166 155.09375 262.28125 C 135.39221 288.31367 104.07493 300.97759 88.90625 289.03125 C 77.58489 280.11493 74.86538 257.52245 81 223.21875 C 87.3887 187.49427 102.92242 158.49441 130.5 130.6875 C 151.88847 109.12114 173.40532 95.46024 200.875 86.09375 C 217.80348 80.32156 223.00462 79.68015 253.6875 79.53125 z "
       transform="translate(0,540.36218)"
       id="path21451" />
    <path
       style="fill:url(#linearGradient21979);fill-opacity:1;fill-rule:nonzero;stroke:none"
       d="M 256 32 C 132.28822 32 32 132.28822 32 256 C 32 379.71178 132.28822 480 256 480 C 379.71178 480 480 379.71178 480 256 C 480 132.28822 379.71178 32 256 32 z M 253.6875 79.53125 C 283.09264 79.38846 290.10296 80.1059 305.3125 84.84375 C 355.40998 100.4494 393.0325 132.58809 415.5 178.9375 C 428.43964 205.63136 432.77176 226.9132 431.59375 257.96875 C 430.52489 286.14681 426.98257 295.923 415.6875 301.75 C 408.21909 305.60288 403.65074 305.87044 394.375 303.0625 C 375.0498 297.21242 362.53746 285.88271 334 248.25 C 304.25517 209.02508 266.48438 170.44811 241.71875 154 C 223.77233 142.08083 195.9848 129.30831 181.1875 126.1875 C 173.65995 124.59991 173.30231 124.80894 174.6875 130.03125 C 175.49406 133.07202 176.82132 147.66069 177.65625 162.46875 C 180.14938 206.68612 172.90871 238.74166 155.09375 262.28125 C 135.39221 288.31367 104.07493 300.97759 88.90625 289.03125 C 77.58489 280.11493 74.86538 257.52245 81 223.21875 C 87.3887 187.49427 102.92242 158.49441 130.5 130.6875 C 151.88847 109.12114 173.40532 95.46024 200.875 86.09375 C 217.80348 80.32156 223.00462 79.68015 253.6875 79.53125 z "
       transform="translate(0,540.36218)"
       id="path21453" />
    <path
       style="fill:url(#radialGradient22168);fill-opacity:1;fill-rule:nonzero;stroke:none"
       d="M 256 48 C 149.96133 48 64 144.70649 64 264 C 64 382.59009 148.94924 478.83757 254.125 479.96875 C 260.14552 479.89588 266.27797 479.63395 272.34375 479.21875 C 370.73287 469.88861 448 377.10054 448 264 C 448 144.70649 362.03867 48 256 48 z M 253.6875 79.53125 C 283.09264 79.38846 290.10296 80.1059 305.3125 84.84375 C 355.40998 100.4494 393.0325 132.58809 415.5 178.9375 C 428.43964 205.63136 432.77176 226.9132 431.59375 257.96875 C 430.52489 286.14681 426.98257 295.923 415.6875 301.75 C 408.21909 305.60288 403.65074 305.87044 394.375 303.0625 C 375.0498 297.21242 362.53746 285.88271 334 248.25 C 304.25517 209.02508 266.48438 170.44811 241.71875 154 C 223.77233 142.08083 195.9848 129.30831 181.1875 126.1875 C 173.65995 124.59991 173.30231 124.80894 174.6875 130.03125 C 175.49406 133.07202 176.82132 147.66069 177.65625 162.46875 C 180.14938 206.68612 172.90871 238.74166 155.09375 262.28125 C 135.39221 288.31367 104.07493 300.97759 88.90625 289.03125 C 77.584898 280.11493 74.86538 257.52245 81 223.21875 C 87.388706 187.49427 102.92242 158.49441 130.5 130.6875 C 151.88847 109.12114 173.40532 95.46024 200.875 86.09375 C 217.80348 80.32156 223.00462 79.68015 253.6875 79.53125 z "
       transform="translate(0,540.36218)"
       id="path21981" />
  </g>
</svg>
