<?xml version="1.0" encoding="UTF-8" standalone="no"?>
<!-- Created with Inkscape (http://www.inkscape.org/) by Marsupilami -->

<svg
   xmlns:dc="http://purl.org/dc/elements/1.1/"
   xmlns:cc="http://creativecommons.org/ns#"
   xmlns:rdf="http://www.w3.org/1999/02/22-rdf-syntax-ns#"
   xmlns:svg="http://www.w3.org/2000/svg"
   xmlns="http://www.w3.org/2000/svg"
   xmlns:xlink="http://www.w3.org/1999/xlink"
   xmlns:sodipodi="http://sodipodi.sourceforge.net/DTD/sodipodi-0.dtd"
   xmlns:inkscape="http://www.inkscape.org/namespaces/inkscape"
   version="1.0"
   width="512"
   height="512"
   viewBox="0 0 70.843475 70.864265"
   id="svg2268"
   inkscape:version="0.48.2 r9819"
   sodipodi:docname="Blank Transparent Logo Badge.svg">
  <metadata
     id="metadata3056">
    <rdf:RDF>
      <cc:Work
         rdf:about="">
        <dc:format>image/svg+xml</dc:format>
        <dc:type
           rdf:resource="http://purl.org/dc/dcmitype/StillImage" />
        <dc:title></dc:title>
      </cc:Work>
    </rdf:RDF>
  </metadata>
  <sodipodi:namedview
     pagecolor="#ffffff"
     bordercolor="#666666"
     borderopacity="1"
     objecttolerance="10"
     gridtolerance="10"
     guidetolerance="10"
     inkscape:pageopacity="0"
     inkscape:pageshadow="2"
     inkscape:window-width="1635"
     inkscape:window-height="986"
     id="namedview3054"
     showgrid="false"
     inkscape:zoom="1.0451891"
     inkscape:cx="251.82266"
     inkscape:cy="270.93726"
     inkscape:window-x="0"
     inkscape:window-y="0"
     inkscape:window-maximized="0"
     inkscape:current-layer="svg2268" />
  <defs
     id="defs2270">
    <linearGradient
       id="linearGradient3910">
      <stop
         style="stop-color:#ffffff;stop-opacity:0.37254903;"
         offset="0"
         id="stop3912" />
      <stop
         style="stop-color:#ffffff;stop-opacity:0.12156863;"
         offset="1"
         id="stop3914" />
    </linearGradient>
    <linearGradient
       id="linearGradient3900">
      <stop
         id="stop3902"
         offset="0"
         style="stop-color:#ffffff;stop-opacity:0.81176472;" />
      <stop
         id="stop3904"
         offset="1"
         style="stop-color:#ffffff;stop-opacity:0;" />
    </linearGradient>
    <linearGradient
       id="linearGradient3864">
      <stop
         style="stop-color:#ffffff;stop-opacity:0.81176472;"
         offset="0"
         id="stop3866" />
      <stop
         style="stop-color:#ffffff;stop-opacity:0.74901962;"
         offset="1"
         id="stop3868" />
    </linearGradient>
    <linearGradient
       inkscape:collect="always"
       xlink:href="#linearGradient3864"
       id="linearGradient3870"
       x1="27.820559"
       y1="9.8453493"
       x2="43.245411"
       y2="60.907669"
       gradientUnits="userSpaceOnUse" />
    <linearGradient
       inkscape:collect="always"
       xlink:href="#linearGradient3910"
       id="linearGradient3916"
       x1="1.638947"
       y1="44.537302"
       x2="69.204529"
       y2="44.537302"
       gradientUnits="userSpaceOnUse" />
    <linearGradient
       inkscape:collect="always"
       xlink:href="#linearGradient3864"
       id="linearGradient3923"
       gradientUnits="userSpaceOnUse"
       x1="27.820559"
       y1="9.8453493"
       x2="43.245411"
       y2="60.907669"
       gradientTransform="matrix(7.2250802,0,0,7.2250802,0.07510471,0)" />
    <linearGradient
       inkscape:collect="always"
       xlink:href="#linearGradient3910"
       id="linearGradient3932"
       gradientUnits="userSpaceOnUse"
       x1="31.472164"
       y1="20.795683"
       x2="41.245651"
       y2="68.122719" />
    <filter
       inkscape:collect="always"
       id="filter4120">
      <feGaussianBlur
         inkscape:collect="always"
         stdDeviation="0.33784228"
         id="feGaussianBlur4122" />
    </filter>
    <linearGradient
       y2="402.04926"
       x2="446.41446"
       y1="439.00357"
       x1="487.60086"
       gradientTransform="matrix(1.6612274,0,0,1.7010922,-132.79668,-473.74841)"
       gradientUnits="userSpaceOnUse"
       id="linearGradient4226"
       xlink:href="#linearGradient4421"
       inkscape:collect="always" />
    <linearGradient
       y2="162.1745"
       x2="651.38031"
       y1="201.80902"
       x1="650.83203"
       gradientTransform="translate(-0.003205,179.97978)"
       gradientUnits="userSpaceOnUse"
       id="linearGradient4222"
       xlink:href="#linearGradient3882"
       inkscape:collect="always" />
    <linearGradient
       y2="162.1745"
       x2="651.38031"
       y1="201.80902"
       x1="650.83203"
       gradientTransform="translate(-0.003205,179.97978)"
       gradientUnits="userSpaceOnUse"
       id="linearGradient3915"
       xlink:href="#linearGradient3882"
       inkscape:collect="always" />
    <linearGradient
       y2="162.1745"
       x2="651.38031"
       y1="201.80902"
       x1="650.83203"
       gradientTransform="translate(-200.55198,38.57773)"
       gradientUnits="userSpaceOnUse"
       id="linearGradient3912"
       xlink:href="#linearGradient3882"
       inkscape:collect="always" />
    <linearGradient
       gradientTransform="translate(-200.55198,38.57773)"
       y2="162.1745"
       x2="651.38031"
       y1="201.80902"
       x1="650.83203"
       gradientUnits="userSpaceOnUse"
       id="linearGradient3909"
       xlink:href="#linearGradient3882"
       inkscape:collect="always" />
    <linearGradient
       gradientUnits="userSpaceOnUse"
       y2="162.1745"
       x2="651.38031"
       y1="201.80902"
       x1="650.83203"
       id="linearGradient3888"
       xlink:href="#linearGradient3882"
       inkscape:collect="always" />
    <linearGradient
       y2="402.04926"
       x2="446.41446"
       y1="439.00357"
       x1="487.60086"
       gradientTransform="matrix(1.6612274,0,0,1.7010922,-132.79668,-313.74841)"
       gradientUnits="userSpaceOnUse"
       id="linearGradient3117"
       xlink:href="#linearGradient4421"
       inkscape:collect="always" />
    <linearGradient
       y2="445.0737"
       x2="329.61328"
       y1="160.65343"
       x1="329.44687"
       spreadMethod="pad"
       gradientTransform="matrix(1.6921811,0,0,1.6778598,-148.18017,-300.96169)"
       gradientUnits="userSpaceOnUse"
       id="linearGradient3114"
       xlink:href="#linearGradient3840"
       inkscape:collect="always" />
    <linearGradient
       y2="178.57484"
       x2="285.17242"
       y1="405.69534"
       x1="346.84909"
       gradientTransform="matrix(1.6922094,0,0,1.7358162,-148.18867,-327.62589)"
       gradientUnits="userSpaceOnUse"
       id="linearGradient3112"
       xlink:href="#linearGradient3848"
       inkscape:collect="always" />
    <linearGradient
       y2="445.0737"
       x2="329.61328"
       y1="160.65343"
       x1="329.44687"
       spreadMethod="pad"
       gradientTransform="matrix(0.99826038,0,0,0.96661581,0.25692174,15.781019)"
       gradientUnits="userSpaceOnUse"
       id="linearGradient4445"
       xlink:href="#linearGradient3840"
       inkscape:collect="always" />
    <linearGradient
       y2="171.46281"
       x2="310.51401"
       y1="457.35114"
       x1="310.37259"
       gradientTransform="matrix(0.99827704,0,0,1.0000045,0.25191274,0.41976133)"
       gradientUnits="userSpaceOnUse"
       id="linearGradient4443"
       xlink:href="#linearGradient3848"
       inkscape:collect="always" />
    <linearGradient
       y2="402.04926"
       x2="446.41446"
       y1="439.00357"
       x1="487.60086"
       gradientTransform="matrix(0.98,0,0,0.98,9.3320312,8.4145886)"
       gradientUnits="userSpaceOnUse"
       id="linearGradient4441"
       xlink:href="#linearGradient4421"
       inkscape:collect="always" />
    <linearGradient
       gradientTransform="matrix(0.98,0,0,0.98,9.3320312,8.4145886)"
       gradientUnits="userSpaceOnUse"
       y2="402.04926"
       x2="446.41446"
       y1="439.00357"
       x1="487.60086"
       id="linearGradient4427"
       xlink:href="#linearGradient4421"
       inkscape:collect="always" />
    <linearGradient
       y2="445.0737"
       x2="329.61328"
       y1="160.65343"
       x1="329.44687"
       spreadMethod="pad"
       gradientTransform="matrix(0.99826038,0,0,0.96661581,0.25692174,15.781019)"
       gradientUnits="userSpaceOnUse"
       id="linearGradient3863"
       xlink:href="#linearGradient3840"
       inkscape:collect="always" />
    <linearGradient
       gradientTransform="matrix(0.99827704,0,0,1.0000045,0.25191274,0.41976133)"
       y2="171.46281"
       x2="310.51401"
       y1="457.35114"
       x1="310.37259"
       gradientUnits="userSpaceOnUse"
       id="linearGradient3861"
       xlink:href="#linearGradient3848"
       inkscape:collect="always" />
    <linearGradient
       gradientUnits="userSpaceOnUse"
       y2="171.46281"
       x2="310.51401"
       y1="457.35114"
       x1="310.37259"
       id="linearGradient3854"
       xlink:href="#linearGradient3848"
       inkscape:collect="always" />
    <linearGradient
       spreadMethod="pad"
       gradientTransform="matrix(0.99998331,0,0,0.96661147,0.00501764,15.361188)"
       gradientUnits="userSpaceOnUse"
       y2="458.09732"
       x2="329.61328"
       y1="160.65343"
       x1="329.44687"
       id="linearGradient3846"
       xlink:href="#linearGradient3840"
       inkscape:collect="always" />
    <linearGradient
       id="linearGradient3840"
       inkscape:collect="always">
      <stop
         id="stop3842"
         offset="0"
         style="stop-color:#000000;stop-opacity:1;" />
      <stop
         id="stop3844"
         offset="1"
         style="stop-color:#000000;stop-opacity:0;" />
    </linearGradient>
    <linearGradient
       id="linearGradient3848">
      <stop
         id="stop3850"
         offset="0"
         style="stop-color:#ffffff;stop-opacity:0.74901962;" />
      <stop
         id="stop3852"
         offset="1"
         style="stop-color:#ffffff;stop-opacity:0.24705882;" />
    </linearGradient>
    <linearGradient
       id="linearGradient4421">
      <stop
         id="stop4423"
         offset="0"
         style="stop-color:#ffffff;stop-opacity:0.81176472;" />
      <stop
         id="stop4425"
         offset="1"
         style="stop-color:#ffffff;stop-opacity:0.62352943;" />
    </linearGradient>
    <linearGradient
       id="linearGradient3882">
      <stop
         id="stop3884"
         offset="0"
         style="stop-color:#006699;stop-opacity:1;" />
      <stop
         id="stop3886"
         offset="1"
         style="stop-color:#1fbfcf;stop-opacity:1;" />
    </linearGradient>
    <linearGradient
       inkscape:collect="always"
       xlink:href="#linearGradient3882"
       id="linearGradient3605"
       gradientUnits="userSpaceOnUse"
       gradientTransform="matrix(0.12733423,0,0,0.12733423,-23.479691,24.536566)"
       x1="650.83203"
       y1="201.80902"
       x2="651.38031"
       y2="162.1745" />
    <filter
       inkscape:collect="always"
       id="filter4399"
       x="-0.10838077"
       width="1.2167615"
       y="-0.1076219"
       height="1.2152438">
      <feGaussianBlur
         inkscape:collect="always"
         stdDeviation="0.77561849"
         id="feGaussianBlur4401" />
    </filter>
    <filter
       inkscape:collect="always"
       id="filter4412"
       x="-0.12600798"
       width="1.252016"
       y="-0.094495509"
       height="1.188991">
      <feGaussianBlur
         inkscape:collect="always"
         stdDeviation="0.45350119"
         id="feGaussianBlur4414" />
    </filter>
    <filter
       inkscape:collect="always"
       id="filter4425"
       x="-0.11188231"
       width="1.2237646"
       y="-0.10437809"
       height="1.2087562">
      <feGaussianBlur
         inkscape:collect="always"
         stdDeviation="0.37019498"
         id="feGaussianBlur4427" />
    </filter>
    <filter
       inkscape:collect="always"
       id="filter4431"
       x="-0.12634839"
       width="1.2526968"
       y="-0.094304976"
       height="1.18861">
      <feGaussianBlur
         inkscape:collect="always"
         stdDeviation="0.44554964"
         id="feGaussianBlur4433" />
    </filter>
    <filter
       inkscape:collect="always"
       id="filter4437"
       x="-0.10851889"
       width="1.2170378"
       y="-0.10748605"
       height="1.2149721">
      <feGaussianBlur
         inkscape:collect="always"
         stdDeviation="0.3579912"
         id="feGaussianBlur4439" />
    </filter>
    <filter
       inkscape:collect="always"
       id="filter4445"
       x="-0.29546755"
       width="1.5909351"
       y="-0.098124553"
       height="1.1962491">
      <feGaussianBlur
         inkscape:collect="always"
         stdDeviation="0.31930956"
         id="feGaussianBlur4447" />
    </filter>
    <filter
       inkscape:collect="always"
       id="filter4449"
       x="-0.26266156"
       width="1.5253231"
       y="-0.2839705"
       height="1.567941">
      <feGaussianBlur
         inkscape:collect="always"
         stdDeviation="0.31930956"
         id="feGaussianBlur4451" />
    </filter>
    <filter
       inkscape:collect="always"
       id="filter4455"
       x="-0.13944078"
       width="1.2788816"
       y="-0.088128903"
       height="1.1762578">
      <feGaussianBlur
         inkscape:collect="always"
         stdDeviation="0.4163704"
         id="feGaussianBlur4457" />
    </filter>
  </defs>
  <path
     d="m 4.1829138,58.632812 7.1664042,0 0,-2.35478 -4.5729709,0 0,-8.984167 -2.5934333,0 0,11.338947 z"
     style="fill:#000000;fill-opacity:1;fill-rule:evenodd;stroke:none;filter:url(#filter4455)"
     id="path4453"
     inkscape:connector-curvature="0" />
  <path
     d="m 13.398676,49.973528 c 0.904474,0 1.46743,-0.599729 1.46743,-1.349681 -0.01686,-0.766129 -0.562956,-1.34899 -1.450179,-1.34899 -0.887339,0 -1.467427,0.582861 -1.467427,1.34899 0,0.749952 0.562841,1.349681 1.433251,1.349681 l 0.01686,0 z"
     style="fill:#000000;fill-opacity:1;fill-rule:evenodd;stroke:none;filter:url(#filter4449)"
     id="path4441"
     inkscape:connector-curvature="0"
     sodipodi:nodetypes="scssscs" />
  <path
     inkscape:connector-curvature="0"
     id="path4443"
     style="fill:#000000;fill-opacity:1;fill-rule:evenodd;stroke:none;filter:url(#filter4445)"
     d="m 14.69592,58.548787 0,-7.8099 -2.593662,0 0,7.8099 z"
     sodipodi:nodetypes="ccccc" />
  <path
     d="m 15.592574,58.553156 2.593687,0 0,-4.361507 c 0,-0.233423 0.01686,-0.466611 0.08546,-0.633473 0.187381,-0.466148 0.614125,-0.949168 1.330657,-0.949168 0.938623,0 1.314083,0.716441 1.314083,1.76568 l 0,4.178468 2.593434,0 0,-4.478217 c 0,-2.398922 -1.279702,-3.515182 -2.986142,-3.515182 -1.3991,0 -2.013456,0.782768 -2.354764,1.315939 l 0.01731,0 0,-1.13244 -2.593688,0 c 0.03406,0.732851 0,7.8099 0,7.8099 z"
     style="fill:#000000;fill-opacity:1;fill-rule:evenodd;stroke:none;filter:url(#filter4437)"
     id="path4435"
     inkscape:connector-curvature="0" />
  <path
     d="m 26.728075,47.293865 -2.59378,0 0,11.338947 2.59378,0 0,-2.532039 0.648207,-0.816744 2.030593,3.348783 3.190679,0 -3.412445,-4.847994 2.986024,-3.298402 -3.122469,0 c 0,0 -2.132859,2.951045 -2.320589,3.300944 l 0,-6.493495 z"
     style="fill:#000000;fill-opacity:1;fill-rule:evenodd;stroke:none;filter:url(#filter4431)"
     id="path4429"
     inkscape:connector-curvature="0" />
  <path
     style="fill:#000000;fill-opacity:1;fill-rule:evenodd;stroke:none;filter:url(#filter4425)"
     d="m 35.551494,50.211384 c -2.883778,0 -4.217081,2.28088 -4.217081,4.351163 0,2.560697 1.622498,4.160853 4.454968,4.160853 1.126237,0 2.170044,-0.164798 3.023323,-0.5147 L 38.471012,56.491591 C 37.771518,56.723857 37.0572,56.841933 36.17,56.841933 c -1.211487,0 -2.271783,-0.496282 -2.357241,-1.557076 l 5.376238,0.01298 c 0.03406,-0.200604 0.08651,-0.581475 0.08651,-1.016425 0,-2.018977 -1.02819,-4.070024 -3.724008,-4.070024 z m -0.10813,1.946345 c 0.440476,0.0013 0.810258,0.277384 1.025075,0.791514 0.09343,0.223611 0.168684,0.435793 0.168684,0.471448 0,0.03566 -0.572377,0.06488 -1.275938,0.06488 -0.811931,0 -1.280262,-0.04859 -1.280262,-0.129756 0,-0.297063 0.395151,-0.853659 0.726635,-1.025075 0.221771,-0.114682 0.43559,-0.173617 0.635806,-0.173009 z"
     id="path4416"
     inkscape:connector-curvature="0" />
  <path
     style="fill:#000000;fill-opacity:1;fill-rule:evenodd;stroke:none;filter:url(#filter4412)"
     d="m 45.257269,47.291865 0,3.922967 -0.03028,0 c -0.37546,-0.549349 -1.160985,-0.91262 -2.201533,-0.91262 -1.996556,0 -3.758212,1.593257 -3.741308,4.325212 0,2.5325 1.589016,4.182479 3.5683,4.182479 1.074951,0 2.096223,-0.467055 2.608102,-1.366767 l 0.05623,0 0.09948,1.185108 2.305338,0 c -0.03418,-0.549812 -0.0692,-1.498007 -0.0692,-2.430769 l 0,-8.90561 -2.595127,0 z m -1.613304,5.250807 c 0.326107,-0.01342 0.621019,0.123619 0.91262,0.41522 0.403684,0.403686 0.41522,0.441262 0.41522,1.414344 0,0.712862 -0.05844,1.095612 -0.203285,1.340816 -0.407914,0.690542 -1.379237,0.823157 -1.993922,0.272488 -0.860932,-0.771272 -0.709332,-2.762585 0.246537,-3.256884 0.223482,-0.115567 0.427166,-0.17793 0.62283,-0.185984 z"
     id="path4403"
     inkscape:connector-curvature="0" />
  <path
     style="fill:#000000;fill-opacity:1;fill-rule:nonzero;stroke:none;filter:url(#filter4399)"
     d="m 50.992505,44.15176 c -0.700856,0 -1.267287,0.552924 -1.267287,1.23701 l 0,14.818175 c 0,0.684318 0.566431,1.241336 1.267287,1.241336 l 14.636516,0 c 0.700829,0 1.271609,-0.557018 1.271609,-1.241336 l 0,-14.818175 c 0,-0.684086 -0.57078,-1.23701 -1.271609,-1.23701 l -14.636516,0 z m 2.867615,3.412592 c 0.489311,0 0.638293,0.06089 0.890993,0.354667 0.527736,0.613529 0.352594,1.36208 -0.393594,1.673857 -0.512805,0.214263 -0.52029,0.215204 -1.025075,-0.0043 -0.720461,-0.313395 -0.886279,-1.06658 -0.367643,-1.669532 0.2527,-0.293781 0.406009,-0.354667 0.895319,-0.354667 z m 7.266355,3.550998 c 0.815843,-0.01127 1.616453,0.419608 2.102053,1.245661 0.340306,0.578895 0.347005,0.627644 0.389269,3.079551 l 0.04325,2.491322 -1.085628,0 -1.081303,0 0,-2.019874 c 0,-2.278653 -0.125196,-2.806595 -0.717985,-3.031973 -0.487228,-0.185244 -1.075256,-0.05052 -1.43597,0.333041 -0.293463,0.312041 -0.307724,0.400054 -0.346017,2.521598 l -0.03893,2.197208 -1.064002,0 -1.064002,0 0,-3.343389 0,-3.339063 1.072652,0 1.072653,0 0,0.519025 0,0.519026 0.553627,-0.510375 c 0.474558,-0.437432 1.04212,-0.654044 1.600328,-0.661758 z m -8.339008,0.138407 1.068328,0 1.072652,0 0,3.343389 0,3.339063 -1.072652,0 -1.068328,0 0,-3.339063 0,-3.343389 z"
     id="path3614"
     inkscape:connector-curvature="0" />
  <path
     style="fill:url(#linearGradient3923);fill-opacity:1;fill-rule:nonzero;stroke:none;stroke-width:0.13840677000000001;stroke-linecap:round;stroke-linejoin:round;stroke-miterlimit:4;stroke-opacity:1;stroke-dasharray:none;opacity:1"
     d="M 37.875 1.75 C 17.861528 1.75 1.75 17.861528 1.75 37.875 L 1.75 474.125 C 1.75 494.13847 17.861528 510.25 37.875 510.25 L 474.125 510.25 C 494.13847 510.25 510.25 494.13847 510.25 474.125 L 510.25 37.875 C 510.25 17.861528 494.13847 1.75 474.125 1.75 L 37.875 1.75 z M 46.59375 11.90625 L 465.40625 11.90625 C 484.61918 11.90625 500.09375 27.380816 500.09375 46.59375 L 500.09375 465.40625 C 500.09375 484.61918 484.61918 500.09375 465.40625 500.09375 L 46.59375 500.09375 C 27.380816 500.09375 11.90625 484.61918 11.90625 465.40625 L 11.90625 46.59375 C 11.90625 27.380816 27.380816 11.90625 46.59375 11.90625 z "
     transform="matrix(0.13840677,0,0,0.13840677,-0.010395,0)"
     id="rect3094" />
  <rect
     style="fill:#ffffff;fill-opacity:0.74901962;fill-rule:nonzero;stroke:none"
     id="rect3906"
     width="67.565582"
     height="67.565582"
     x="1.638947"
     y="1.6493419"
     rx="4.8000002"
     ry="4.8000002" />
  <path
     style="fill:#ffffff;fill-opacity:0.81176470999999983;fill-rule:nonzero;stroke:none;filter:url(#filter4120)"
     d="m 6.4384954,1.6479054 c -2.6592001,0 -4.8009848,2.1417844 -4.8009848,4.8009848 l 0,16.9159028 c 0,-1.94249 2.1417847,-3.503421 4.8009848,-3.503421 l 57.9664856,0 c 2.659199,0 4.800985,1.560931 4.800985,3.503421 l 0,-16.9159028 c 0,-2.6592004 -2.141786,-4.8009848 -4.800985,-4.8009848 l -57.9664856,0 z m -4.8009848,62.7674696 0,1.29324 c 0,1.942495 2.1417847,3.507745 4.8009848,3.507745 -2.6592001,0 -4.8009848,-2.14178 -4.8009848,-4.800985 z m 67.5684554,0 c 0,2.659205 -2.141786,4.800985 -4.800985,4.800985 2.659199,0 4.800985,-1.56525 4.800985,-3.507745 l 0,-1.29324 z"
     id="rect3872"
     inkscape:connector-curvature="0" />
  <rect
     style="fill:url(#linearGradient3932);fill-opacity:1;fill-rule:nonzero;stroke:none"
     id="rect3908"
     width="67.565582"
     height="49.355247"
     x="1.638947"
     y="19.859678"
     rx="4.8000002"
     ry="3.5063" />
  <path
     inkscape:connector-curvature="0"
     id="path16"
     style="fill:#000000;fill-opacity:1;fill-rule:evenodd;stroke:none"
     d="m 4.3535425,58.362837 6.8251465,0 0,-2.242648 -4.3552101,0 0,-8.556349 -2.4699364,0 0,10.798997 z" />
  <path
     inkscape:connector-curvature="0"
     id="path18"
     style="fill:#000000;fill-opacity:1;fill-rule:evenodd;stroke:none"
     d="m 14.634166,58.362837 0,-7.438 -2.470154,0 0,7.438 2.470154,0 z m -1.235079,-8.453563 c 0.861404,0 1.397552,-0.571171 1.397552,-1.285411 -0.01606,-0.729646 -0.536148,-1.284752 -1.381123,-1.284752 -0.845084,0 -1.397549,0.555106 -1.397549,1.284752 0,0.71424 0.536039,1.285411 1.365001,1.285411 l 0.01606,0 z" />
  <path
     inkscape:connector-curvature="0"
     id="path20"
     style="fill:#000000;fill-opacity:1;fill-rule:evenodd;stroke:none"
     d="m 15.781082,58.362837 2.470178,0 0,-4.153816 c 0,-0.222308 0.01606,-0.444392 0.08139,-0.603308 0.178458,-0.44395 0.584881,-0.903969 1.267293,-0.903969 0.893926,0 1.251507,0.682324 1.251507,1.6816 l 0,3.979493 2.469937,0 0,-4.264969 c 0,-2.284687 -1.218763,-3.347792 -2.843944,-3.347792 -1.332477,0 -1.917578,0.745493 -2.242633,1.253275 l 0.01649,0 0,-1.078514 -2.470179,0 c 0.03244,0.697953 0,7.438 0,7.438 z" />
  <path
     inkscape:connector-curvature="0"
     id="path22"
     style="fill:#000000;fill-opacity:1;fill-rule:evenodd;stroke:none"
     d="m 26.806068,47.56384 -2.470267,0 0,10.798997 2.470267,0 0,-2.411466 0.61734,-0.777851 1.933898,3.189317 3.038742,0 -3.249948,-4.617137 2.843833,-3.141335 -2.97378,0 c 0,0 -2.031295,2.810519 -2.210085,3.143756 l 0,-6.184281 z" />
  <path
     inkscape:connector-curvature="0"
     id="path24"
     style="fill:#000000;fill-opacity:1;fill-rule:evenodd;stroke:none"
     d="m 39.001917,55.260241 c 0.03244,-0.191051 0.0813,-0.557525 0.0813,-0.971762 0,-1.922836 -0.975227,-3.874724 -3.542673,-3.874724 -2.746455,0 -4.013948,2.173974 -4.013948,4.145673 0,2.438759 1.543792,3.961884 4.241383,3.961884 1.072605,0 2.063734,-0.158475 2.876381,-0.491714 l -0.325143,-1.632737 c -0.666185,0.221206 -1.348708,0.331698 -2.19366,0.331698 -1.153797,0 -2.161244,-0.473886 -2.242633,-1.484166 l 5.118991,0.01541 z M 33.86683,53.587665 c 0.06496,-0.634782 0.487504,-1.571107 1.543791,-1.571107 1.12103,0 1.381211,0.999934 1.381211,1.571107 l -2.925002,0 z" />
  <path
     inkscape:connector-curvature="0"
     id="path26"
     style="fill:#000000;fill-opacity:1;fill-rule:evenodd;stroke:none"
     d="m 45.180342,47.56384 0,3.738256 -0.03244,0 c -0.357581,-0.523188 -1.105263,-0.872272 -2.096259,-0.872272 -1.901483,0 -3.575199,1.523122 -3.559101,4.124982 0,2.411906 1.511377,3.982574 3.396408,3.982574 1.023763,0 1.998773,-0.444391 2.486277,-1.301259 l 0.04886,0 0.09749,1.126716 2.19399,0 c -0.03255,-0.523631 -0.06529,-1.428038 -0.06529,-2.316383 l 0,-8.482614 -2.469934,0 z m 0,7.35612 c 0,0.19017 -0.01627,0.38078 -0.04887,0.539254 -0.146045,0.682327 -0.731257,1.158192 -1.446086,1.158192 -1.023848,0 -1.690144,-0.824952 -1.690144,-2.125991 0,-1.221581 0.568894,-2.20523 1.706264,-2.20523 0.763673,0 1.30004,0.52341 1.446394,1.173819 0.03244,0.143068 0.03244,0.301763 0.03244,0.444393 l 0,1.015563 z" />
  <path
     inkscape:connector-curvature="0"
     style="fill:#006699;fill-opacity:1;fill-rule:nonzero;stroke:none"
     d="m 51.340099,44.562107 c -0.667482,0 -1.207401,0.529607 -1.207401,1.181118 l 0,14.111244 c 0,0.65173 0.539919,1.181118 1.207401,1.181118 l 13.942436,0 c 0.667458,0 1.2074,-0.529388 1.2074,-1.181118 l 0,-14.111244 c 0,-0.651511 -0.539942,-1.181118 -1.2074,-1.181118 l -13.942436,0 z m 2.536214,2.769755 c 0.845061,0 1.359973,0.554858 1.376032,1.284725 0,0.713797 -0.534868,1.284723 -1.396267,1.284723 l -0.01349,0 c -0.828965,0 -1.369286,-0.570926 -1.369286,-1.284723 0,-0.729867 0.558038,-1.284725 1.403012,-1.284725 z m 7.278128,3.412117 c 1.62518,0 2.846496,1.058359 2.846496,3.343045 l 0,4.2686 -2.468762,0 0,-3.9785 c 0,-0.999934 -0.36078,-1.685338 -1.254618,-1.685338 -0.68239,0 -1.089538,0.460663 -1.268106,0.904834 -0.06522,0.158917 -0.08094,0.378614 -0.08094,0.600919 l 0,4.158085 -2.468762,0 c 0,0 0.03242,-6.741014 0,-7.438967 l 2.468762,0 0,1.05679 c 0.327518,-0.507133 0.910391,-1.229468 2.225934,-1.229468 z m -2.225934,1.229468 c -0.0043,0.0066 -0.0093,0.01423 -0.01349,0.02071 l 0.01349,0 0,-0.02071 z m -6.306811,-1.05679 2.468763,0 0,7.438967 -2.468763,0 0,-7.438967 z"
     id="path14" />
  <path
     style="fill:url(#linearGradient3605);fill-opacity:1;fill-rule:nonzero;stroke:none"
     d="m 51.618311,44.888209 c -0.641051,0 -1.161925,0.508361 -1.161925,1.13407 l 0,3.453941 0,10.099196 0,0.266606 c 0,0.478618 0.520874,0.867465 1.161925,0.867465 l 13.386011,0 c 0.641029,0 1.161925,-0.388847 1.161925,-0.867465 l 0,-0.266606 0,-10.099196 0,-3.453941 c 0,-0.62571 -0.520896,-1.13407 -1.161925,-1.13407 l -13.386011,0 z m 2.256204,2.443225 c 0.845062,0 1.360742,0.555413 1.376801,1.28528 0,0.713798 -0.535298,1.28528 -1.396697,1.28528 l -0.01193,0 c -0.828964,0 -1.368843,-0.571482 -1.368843,-1.28528 0,-0.729867 0.555704,-1.28528 1.400676,-1.28528 z m 7.277947,3.414149 c 1.625182,0 2.849103,1.057836 2.849103,3.342524 l 0,4.265697 -2.47108,0 0,-3.975216 c 0,-0.999935 -0.359609,-1.687179 -1.253446,-1.687179 -0.682392,0 -1.090795,0.459107 -1.269363,0.903278 -0.06522,0.158915 -0.07958,0.382532 -0.07958,0.604837 l 0,4.15428 -2.467101,0 c 0,0 0.03242,-6.739162 0,-7.437115 l 2.467101,0 0,1.058465 c 0.327516,-0.507132 0.908828,-1.229571 2.22437,-1.229571 z m -2.22437,1.229571 c -0.0043,0.0066 -0.0078,0.01342 -0.01193,0.0199 l 0.01193,0 0,-0.0199 z m -6.307024,-1.058465 2.47108,0 0,7.437115 -2.47108,0 0,-7.437115 z"
     id="path3108"
     inkscape:connector-curvature="0" />
</svg>
