<?xml version="1.0" encoding="UTF-8" standalone="no"?>
<!-- Created with Inkscape (http://www.inkscape.org/) -->

<svg
   xmlns:dc="http://purl.org/dc/elements/1.1/"
   xmlns:cc="http://creativecommons.org/ns#"
   xmlns:rdf="http://www.w3.org/1999/02/22-rdf-syntax-ns#"
   xmlns:svg="http://www.w3.org/2000/svg"
   xmlns="http://www.w3.org/2000/svg"
   xmlns:xlink="http://www.w3.org/1999/xlink"
   xmlns:sodipodi="http://sodipodi.sourceforge.net/DTD/sodipodi-0.dtd"
   xmlns:inkscape="http://www.inkscape.org/namespaces/inkscape"
   width="512"
   height="512"
   id="svg18872"
   version="1.1"
   inkscape:version="0.48.2 r9819"
   sodipodi:docname="proz_badge.svg"
   inkscape:export-filename="/Users/axolotl/Pictures/FLUID LOGOS/proz_badge.png"
   inkscape:export-xdpi="90"
   inkscape:export-ydpi="90">
  <defs
     id="defs18874">
    <linearGradient
       id="linearGradient19955">
      <stop
         style="stop-color:#66cccc;stop-opacity:0.49803922;"
         offset="0"
         id="stop19957" />
      <stop
         style="stop-color:#ffffff;stop-opacity:0;"
         offset="1"
         id="stop19961" />
    </linearGradient>
    <linearGradient
       id="linearGradient19943">
      <stop
         id="stop19945"
         offset="0"
         style="stop-color:#ffffff;stop-opacity:0.81176472;" />
      <stop
         style="stop-color:#ffffff;stop-opacity:0.96862745;"
         offset="0.46508962"
         id="stop19947" />
      <stop
         id="stop19949"
         offset="1"
         style="stop-color:#ffffff;stop-opacity:0.81176472;" />
    </linearGradient>
    <linearGradient
       id="linearGradient19863">
      <stop
         id="stop19865"
         offset="0"
         style="stop-color:#ffffff;stop-opacity:0.30980393;" />
      <stop
         id="stop19867"
         offset="1"
         style="stop-color:#ffffff;stop-opacity:0;" />
    </linearGradient>
    <linearGradient
       id="linearGradient19847">
      <stop
         style="stop-color:#669999;stop-opacity:0.62352943;"
         offset="0"
         id="stop19849" />
      <stop
         id="stop19851"
         offset="0.54350543"
         style="stop-color:#336666;stop-opacity:0.30980393;" />
      <stop
         style="stop-color:#66cccc;stop-opacity:0;"
         offset="1"
         id="stop19853" />
    </linearGradient>
    <linearGradient
       id="linearGradient19831">
      <stop
         style="stop-color:#193333;stop-opacity:0.62352943;"
         offset="0"
         id="stop19833" />
      <stop
         style="stop-color:#336666;stop-opacity:0;"
         offset="1"
         id="stop19835" />
    </linearGradient>
    <linearGradient
       id="linearGradient19771">
      <stop
         style="stop-color:#ffffff;stop-opacity:0.81176472;"
         offset="0"
         id="stop19773" />
      <stop
         id="stop19779"
         offset="0.5"
         style="stop-color:#ffffff;stop-opacity:0.90588236;" />
      <stop
         style="stop-color:#ffffff;stop-opacity:0.81176472;"
         offset="1"
         id="stop19775" />
    </linearGradient>
    <linearGradient
       id="linearGradient19761">
      <stop
         id="stop19763"
         offset="0"
         style="stop-color:#193333;stop-opacity:1;" />
      <stop
         style="stop-color:#336666;stop-opacity:1;"
         offset="0.54350543"
         id="stop19769" />
      <stop
         id="stop19765"
         offset="1"
         style="stop-color:#66cccc;stop-opacity:1;" />
    </linearGradient>
    <linearGradient
       id="linearGradient19753">
      <stop
         style="stop-color:#336666;stop-opacity:0.05882353;"
         offset="0"
         id="stop19755" />
      <stop
         style="stop-color:#336666;stop-opacity:0.12156863;"
         offset="1"
         id="stop19757" />
    </linearGradient>
    <linearGradient
       id="linearGradient19728">
      <stop
         style="stop-color:#000000;stop-opacity:1;"
         offset="0"
         id="stop19730" />
      <stop
         style="stop-color:#000000;stop-opacity:0;"
         offset="1"
         id="stop19732" />
    </linearGradient>
    <filter
       inkscape:collect="always"
       id="filter19575"
       x="-0.050078113"
       width="1.1001562"
       y="-0.26036783"
       height="1.5207357">
      <feGaussianBlur
         inkscape:collect="always"
         stdDeviation="24.257942"
         id="feGaussianBlur19577" />
    </filter>
    <radialGradient
       inkscape:collect="always"
       xlink:href="#linearGradient19761"
       id="radialGradient19734"
       cx="184.62093"
       cy="795.47681"
       fx="184.62093"
       fy="795.47681"
       r="154.5258"
       gradientTransform="matrix(-0.11741368,-0.57225017,1.1614236,-0.23870099,-717.45759,1091.0072)"
       gradientUnits="userSpaceOnUse" />
    <linearGradient
       inkscape:collect="always"
       xlink:href="#linearGradient19753"
       id="linearGradient19759"
       x1="319.29068"
       y1="768.87213"
       x2="44.651356"
       y2="817.21954"
       gradientUnits="userSpaceOnUse"
       gradientTransform="matrix(0.99915896,0,0,1,0.28523586,0)" />
    <linearGradient
       inkscape:collect="always"
       xlink:href="#linearGradient19771"
       id="linearGradient19777"
       x1="271.71027"
       y1="756.22369"
       x2="276.86368"
       y2="836.58716"
       gradientUnits="userSpaceOnUse" />
    <linearGradient
       inkscape:collect="always"
       xlink:href="#linearGradient19831"
       id="linearGradient19837"
       x1="95"
       y1="847.36218"
       x2="95"
       y2="937.36218"
       gradientUnits="userSpaceOnUse"
       gradientTransform="translate(0,17.5)" />
    <linearGradient
       inkscape:collect="always"
       xlink:href="#linearGradient19831"
       id="linearGradient19839"
       x1="185"
       y1="847.36218"
       x2="185"
       y2="937.36218"
       gradientUnits="userSpaceOnUse"
       gradientTransform="translate(0,17.5)" />
    <linearGradient
       inkscape:collect="always"
       xlink:href="#linearGradient19831"
       id="linearGradient19841"
       x1="275"
       y1="847.36218"
       x2="275"
       y2="937.36218"
       gradientUnits="userSpaceOnUse"
       gradientTransform="translate(0,17.5)" />
    <linearGradient
       inkscape:collect="always"
       xlink:href="#linearGradient19831"
       id="linearGradient19843"
       x1="385"
       y1="847.36218"
       x2="385"
       y2="937.36218"
       gradientUnits="userSpaceOnUse"
       gradientTransform="translate(0,17.5)" />
    <linearGradient
       inkscape:collect="always"
       xlink:href="#linearGradient19847"
       id="linearGradient19845"
       x1="180"
       y1="852.36218"
       x2="180"
       y2="932.36218"
       gradientUnits="userSpaceOnUse"
       gradientTransform="translate(0,17.5)" />
    <linearGradient
       inkscape:collect="always"
       xlink:href="#linearGradient19863"
       id="linearGradient19861"
       x1="225"
       y1="852.36218"
       x2="225"
       y2="932.36218"
       gradientUnits="userSpaceOnUse"
       gradientTransform="translate(0,17.5)" />
    <linearGradient
       inkscape:collect="always"
       xlink:href="#linearGradient19771"
       id="linearGradient19908"
       gradientUnits="userSpaceOnUse"
       x1="271.71027"
       y1="756.22369"
       x2="276.86368"
       y2="836.58716" />
    <linearGradient
       inkscape:collect="always"
       xlink:href="#linearGradient19753"
       id="linearGradient19910"
       gradientUnits="userSpaceOnUse"
       gradientTransform="matrix(0.99915896,0,0,1,0.28523586,0)"
       x1="319.29068"
       y1="768.87213"
       x2="44.651356"
       y2="817.21954" />
    <radialGradient
       inkscape:collect="always"
       xlink:href="#linearGradient19761"
       id="radialGradient19912"
       gradientUnits="userSpaceOnUse"
       gradientTransform="matrix(-0.11741368,-0.57225017,1.1614236,-0.23870099,-717.45759,1091.0072)"
       cx="184.62093"
       cy="795.47681"
       fx="184.62093"
       fy="795.47681"
       r="154.5258" />
    <linearGradient
       inkscape:collect="always"
       xlink:href="#linearGradient19943"
       id="linearGradient19921"
       gradientUnits="userSpaceOnUse"
       x1="271.71027"
       y1="756.22369"
       x2="276.86368"
       y2="836.58716" />
    <linearGradient
       inkscape:collect="always"
       xlink:href="#linearGradient19753"
       id="linearGradient19926"
       gradientUnits="userSpaceOnUse"
       gradientTransform="matrix(0.99915896,0,0,1,0.28523586,0)"
       x1="319.29068"
       y1="768.87213"
       x2="44.651356"
       y2="817.21954" />
    <radialGradient
       inkscape:collect="always"
       xlink:href="#linearGradient19761"
       id="radialGradient19928"
       gradientUnits="userSpaceOnUse"
       gradientTransform="matrix(-0.11741368,-0.57225017,1.1614236,-0.23870099,-717.45759,1091.0072)"
       cx="184.62093"
       cy="795.47681"
       fx="184.62093"
       fy="795.47681"
       r="154.5258" />
    <linearGradient
       inkscape:collect="always"
       xlink:href="#linearGradient19753"
       id="linearGradient19934"
       gradientUnits="userSpaceOnUse"
       gradientTransform="matrix(0.99915896,0,0,1,0.28523586,0)"
       x1="319.29068"
       y1="768.87213"
       x2="44.651356"
       y2="817.21954" />
    <radialGradient
       inkscape:collect="always"
       xlink:href="#linearGradient19761"
       id="radialGradient19936"
       gradientUnits="userSpaceOnUse"
       gradientTransform="matrix(-0.11741368,-0.57225017,1.1614236,-0.23870099,-717.45759,1091.0072)"
       cx="184.62093"
       cy="795.47681"
       fx="184.62093"
       fy="795.47681"
       r="154.5258" />
    <linearGradient
       inkscape:collect="always"
       xlink:href="#linearGradient19955"
       id="linearGradient19953"
       gradientUnits="userSpaceOnUse"
       x1="280"
       y1="856.96875"
       x2="280"
       y2="766.96875"
       gradientTransform="translate(0,-1719.3309)" />
  </defs>
  <sodipodi:namedview
     id="base"
     pagecolor="#ffffff"
     bordercolor="#666666"
     borderopacity="1.0"
     inkscape:pageopacity="0.0"
     inkscape:pageshadow="2"
     inkscape:zoom="1.4199219"
     inkscape:cx="256"
     inkscape:cy="256"
     inkscape:document-units="px"
     inkscape:current-layer="layer1"
     showgrid="false"
     inkscape:window-width="1610"
     inkscape:window-height="945"
     inkscape:window-x="24"
     inkscape:window-y="20"
     inkscape:window-maximized="0">
    <inkscape:grid
       type="xygrid"
       id="grid19767"
       empspacing="5"
       visible="true"
       enabled="true"
       snapvisiblegridlinesonly="true" />
  </sodipodi:namedview>
  <metadata
     id="metadata18877">
    <rdf:RDF>
      <cc:Work
         rdf:about="">
        <dc:format>image/svg+xml</dc:format>
        <dc:type
           rdf:resource="http://purl.org/dc/dcmitype/StillImage" />
        <dc:title></dc:title>
      </cc:Work>
    </rdf:RDF>
  </metadata>
  <g
     inkscape:label="Ebene 1"
     inkscape:groupmode="layer"
     id="layer1"
     transform="translate(0,-540.36218)">
    <rect
       rx="51.069542"
       y="-965.67523"
       x="27.189659"
       height="84.519585"
       width="457.93304"
       id="rect19951"
       style="opacity:0.87000001999999999;fill:url(#linearGradient19953);fill-opacity:1;fill-rule:nonzero;stroke:none"
       transform="scale(1,-1)" />
    <g
       style="fill:#336666;fill-opacity:0.49803922;filter:url(#filter19575)"
       transform="matrix(0.39653697,0,0,0.39653697,354.62833,636.11116)"
       id="g19033">
      <path
         inkscape:connector-curvature="0"
         id="path19035"
         d="m -722.31751,515.20901 c -21.55953,-2.29054 -48.66727,-13.72974 -62.13892,-26.22201 -1.30264,-1.20794 -5.63515,-5.10856 -9.62779,-8.66803 -17.81598,-15.88309 -29.36991,-35.8198 -34.20867,-59.02823 -2.8085,-13.47057 -2.09564,-33.7283 1.62887,-46.28832 5.21862,-17.59856 14.53588,-32.52583 29.09042,-46.60602 5.14642,-4.97869 12.58121,-11.13781 16.52176,-13.68694 6.72807,-4.35237 21.36422,-11.63304 27.98043,-13.91872 0.275,-0.095 1.175,-0.46387 2,-0.8197 3.24122,-1.39796 10.16607,-3.62899 10.81465,-3.48424 0.37694,0.0841 1.81035,-0.35699 3.18535,-0.98027 1.375,-0.62328 5.73043,-1.60091 9.67873,-2.17252 4.89361,-0.70847 157.04929,-1.00984 478,-0.94679 258.9517,0.0509 472.17127,0.0329 473.82127,-0.0399 4.5531,-0.20089 21.5,2.09106 21.5,2.90771 0,0.39457 2.475,1.27128 5.5,1.94825 3.025,0.67696 5.5,1.67513 5.5,2.21814 0,0.54302 0.5003,0.67809 1.1118,0.30017 0.6115,-0.37792 1.399,-0.26402 1.75,0.25311 0.351,0.51714 3.2334,1.98017 6.4052,3.25118 3.1719,1.27101 6.0539,2.77508 6.4045,3.34238 0.3947,0.63859 0.1389,0.72331 -0.6715,0.22243 -0.8478,-0.52397 -1.0671,-0.41763 -0.6225,0.30182 0.3776,0.61096 1.421,0.82901 2.3186,0.48457 1.0835,-0.41578 1.3913,-0.2369 0.916,0.53222 -0.4825,0.78071 -0.1564,0.94376 1,0.5 1.0799,-0.41438 1.4738,-0.26663 1.0627,0.39855 -0.3715,0.60112 0.097,0.9979 1.086,0.91994 0.9565,-0.0754 1.6398,0.38596 1.5184,1.02526 -0.1214,0.6393 1.027,1.59734 2.5521,2.12897 1.525,0.53164 4.1015,2.29536 5.7256,3.91938 1.624,1.62401 3.5131,2.76597 4.1979,2.53769 0.6849,-0.22829 1.2452,0.30405 1.2452,1.18297 0,0.87891 1.4625,2.48973 3.25,3.57959 1.7875,1.08986 2.8122,1.98325 2.2771,1.9853 -0.535,0.002 0.3743,1.24124 2.0208,2.75374 9.0132,8.27969 24.201,31.6269 24.3945,37.5 0.032,0.9625 0.5076,1.75 1.0576,1.75 0.55,0 1,1.09844 1,2.44098 0,1.34254 0.45,2.7191 1,3.05902 0.55,0.33992 1,1.94148 1,3.55902 0,1.61754 0.4766,2.94098 1.059,2.94098 0.5825,0 0.799,0.42073 0.4812,0.93495 -0.3178,0.51422 -0.079,3.10172 0.5307,5.75 1.9237,8.35583 2.0996,26.74917 0.3454,36.11093 -3.7175,19.83918 -10.3288,34.61944 -22.009,49.20412 -17.312,21.61671 -39.7067,35.10455 -69.4073,41.80244 -6.9821,1.57457 -40.1947,1.6999 -481,1.81508 -260.425,0.068 -476.98575,-0.24662 -481.2461,-0.69925 z m 683.2461,-112.91827 0,-96 -344.86901,0 c -381.18127,0 -352.95635,-0.48539 -371.24591,6.38444 -12.41874,4.66467 -23.77637,11.77592 -33.62547,21.05362 -9.97875,9.39983 -15.72074,17.15155 -21.20995,28.63356 -6.84529,14.3186 -8.42957,21.93378 -8.4108,40.42838 0.0147,14.47166 0.27215,16.83947 2.69541,24.78832 4.78073,15.68187 11.40205,27.15447 22.40145,38.81441 14.76991,15.65688 34.75033,26.64544 55.17294,30.34327 6.33802,1.14759 64.6744,1.38934 353.34134,1.46426 l 345.75,0.0897 0,-96 z m -167,64 0,-7 -29.25,-0.006 c -16.0875,-0.003 -31.95,-0.44449 -35.25,-0.98068 -15.26186,-2.47976 -31.00637,-14.8847 -38.42539,-30.27497 -2.1843,-4.53121 -4.34058,-10.48856 -4.79173,-13.23856 l -0.82027,-5 -6.9813,-0.5 -6.98131,-0.5 -0.31037,-3.75 -0.31036,-3.75 7.06036,0 7.06037,0 0,-3.95078 c 0,-20.91034 16.4047,-43.32893 37.53913,-51.30079 5.6656,-2.13706 7.58311,-2.26332 38.71087,-2.54909 l 32.75,-0.30046 0,-6.94933 0,-6.94934 4,0 4,0 0,7 0,7 27.7899,0 c 30.79932,0 34.80242,0.55106 45.62865,6.28119 7.43179,3.93352 18.06023,14.2991 22.26958,21.71881 4.14827,7.31205 7.31187,17.95795 7.31187,24.60534 l 0,5.39466 7,0 7,0 0,4 0,4 -6.84087,0 -6.84087,0 -1.25126,5.75 c -3.96233,18.20832 -17.79322,34.16904 -35.92118,41.4527 -5.3076,2.13255 -7.44299,2.29926 -35.64582,2.78287 l -30,0.51443 -0.29569,6.75 -0.29569,6.75 -3.95431,0 -3.95431,0 0,-7 z m 0,-36.5 0,-20.5 -50.13167,0 -50.13167,0 0.55772,4.15806 c 0.88881,6.62662 6.97479,17.76761 12.89156,23.59928 6.65303,6.55735 8.81028,8.05111 15.7509,10.90649 5.40384,2.22315 6.50108,2.28938 38.31316,2.31243 l 32.75,0.0237 0,-20.5 z m 75,17.62443 c 14.77446,-7.79951 24.20039,-19.77142 27.45793,-34.87443 l 0.70098,-3.25 -47.57945,0 -47.57946,0 0,20.55265 0,20.55265 31.25,-0.30265 c 30.68085,-0.29714 31.33196,-0.34592 35.75,-2.67822 z m -75,-71.12443 0,-25 -30.3185,0 c -24.84481,0 -31.2991,0.28853 -35.75,1.59814 -18.9227,5.56772 -34.86818,25.72896 -34.91963,44.15186 l -0.0119,4.25 50.5,0 50.5,0 0,-25 z m 102.97891,19.75 c -0.0454,-11.29853 -8.33713,-26.92567 -18.41015,-34.69695 -11.35167,-8.75775 -17.94105,-10.03516 -51.81876,-10.0455 l -24.75,-0.008 0,25 0,25 47.5,0 47.5,0 -0.0211,-5.25 z m -634.97891,46.75 0,-16.5 -21.5,0 -21.5,0 0,-4 0,-4 21.5,0 21.5,0 0,-37.5 0,-37.5 72.89466,0 c 70.25722,0 73.13078,0.0729 79.42031,2.01556 14.7243,4.54788 26.0026,17.65938 28.74716,33.4198 3.00092,17.23259 -6.88331,35.42735 -23.76018,43.73739 l -6.75732,3.32725 -71.27231,0.28178 -71.27232,0.28179 0,16.46821 0,16.46822 -4,0 -4,0 0,-16.5 z m 154.78415,-27.78415 c 10.62868,-5.60012 17.45026,-15.3505 18.80522,-26.87913 1.38776,-11.80764 -5.89274,-26.22457 -16.14791,-31.97629 -7.68892,-4.31242 -16.84289,-4.82381 -86.69146,-4.8431 l -62.75,-0.0173 0,33.53199 0,33.53198 70.75,-0.28198 70.75,-0.28199 5.28415,-2.78415 z m 53.21585,-13.73929 0,-58.02343 78.80279,0.27343 78.8028,0.27344 7.61882,3.76588 c 20.74673,10.25485 28.41153,33.66444 17.86386,54.55925 -3.25367,6.44549 -9.72469,13.42753 -14.91052,16.08802 l -3.43719,1.76339 3.53308,2.18356 c 9.20531,5.6892 16.42335,18.13765 17.42171,30.04599 l 0.59472,7.09391 -4.01587,0 -4.01587,0 -0.70646,-6.2443 c -1.02148,-9.02873 -3.96018,-15.01424 -10.14816,-20.66971 -9.27659,-8.47828 -5.05186,-8.08599 -87.08185,-8.08599 l -72.32186,0 0,17.5 0,17.5 -4,0 -4,0 0,-58.02344 z m 162.12728,11.24364 c 6.41324,-3.15971 11.68528,-8.58224 14.73311,-15.15362 3.5001,-7.54655 3.72136,-20.21089 0.47595,-27.24225 -3.04892,-6.60564 -9.4944,-13.19637 -15.60929,-15.96106 l -5.22705,-2.36327 -74.25,-0.27474 -74.25,-0.27474 0,32.04336 0,32.04336 74.75,-0.26862 74.75,-0.26862 4.62728,-2.2798 z m 397.87272,58.8237 c 31.97091,-7.28921 57.49063,-11.23882 87.5,-13.54211 23.92737,-1.83648 38.51594,-3.80228 48.26368,-6.50352 3.96605,-1.09905 8.31512,-1.99827 9.66462,-1.99827 1.3495,0 2.7507,-0.48068 3.1138,-1.06817 0.3631,-0.5875 1.2888,-0.82697 2.0571,-0.53215 0.7948,0.30502 2.0937,-0.5275 3.0138,-1.93183 0.8894,-1.35732 2.2137,-2.46785 2.943,-2.46785 0.7293,0 1.6291,-0.4905 1.9996,-1.09 0.4839,-0.78288 -11.6857,-0.96549 -43.19096,-0.64809 -38.89524,0.39184 -45.44085,0.6907 -57.7778,2.63798 -19.85597,3.1341 -45.18068,7.9046 -51.44433,9.69073 -2.94661,0.84026 -5.59661,1.28861 -5.88889,0.99633 -1.22321,-1.2232 6.98036,-12.62419 17.23332,-23.95018 21.96107,-24.25941 47.10174,-48.08384 71.01592,-67.29789 19.64464,-15.78365 22.42387,-19.60569 18.94876,-26.05857 -2.67354,-4.96447 -4.57957,-5.62611 -14.00451,-4.86137 -16.31933,1.32414 -51.02416,5.50533 -54.44711,6.55971 -1.925,0.59296 -9.8,2.17582 -17.5,3.51747 -15.92348,2.77452 -23.45126,4.82232 -24.645,6.70426 -2.55321,4.02512 0.15267,12.79962 3.94714,12.79962 0.82068,0 8.73844,-1.55176 17.59501,-3.44835 29.21017,-6.25523 63.60285,-11.28644 63.60285,-9.30429 0,0.29387 -4.1625,3.89268 -9.25,7.99734 -12.15639,9.80794 -30.77094,27.33825 -44.88911,42.27446 -30.98181,32.77695 -48.62172,52.01988 -51.11089,55.75556 -3.73944,5.61206 -3.80794,11.84031 -0.16734,15.21431 4.26814,3.95557 8.10311,4.04644 23.41734,0.55487 z m 154.5321,-66.49287 c 3.0303,-1.26612 3.4679,-1.89524 3.4679,-4.9853 l 0,-3.53633 -3.25,1.98156 c -3.5804,2.18303 -10.655,2.64543 -13.9004,0.90855 -2.54898,-1.36417 -4.8496,-6.78152 -4.8496,-11.41951 0,-4.63799 2.30062,-10.05534 4.8496,-11.41951 3.1648,-1.69374 9.3253,-1.27059 13.4152,0.92145 l 3.7352,2.00194 0,-3.46675 c 0,-3.94439 -1.4927,-5.11256 -7.8272,-6.12549 -8.2759,-1.32337 -15.23113,1.97617 -18.88187,8.95748 -2.34963,4.49322 -2.18189,14.2719 0.32951,19.20849 3.65428,7.18312 14.50546,10.48578 22.91166,6.97342 z m 33.131,-0.6518 c 4.9847,-3.08075 7.3403,-8.42527 7.3204,-16.60939 -0.0281,-11.62524 -5.8839,-18.28984 -16.07,-18.28984 -5.1172,0 -9.7989,2.56903 -13.3047,7.30073 -3.2744,4.41946 -3.4909,15.83337 -0.4096,21.59393 1.391,2.60059 3.7629,5.15209 5.8101,6.25 4.7522,2.54861 12.3132,2.43718 16.6538,-0.24543 z m -12.3548,-3.87098 c -6.9893,-2.93598 -8.2792,-19.38028 -1.8507,-23.59241 3.7126,-2.43263 10.3886,-1.54618 12.8024,1.69992 3.8301,5.15082 3.2158,16.31365 -1.1133,20.23144 -2.2637,2.04865 -7.0086,2.84975 -9.8384,1.66105 z m -56.3083,0.47175 0,-4.5 -4,0 -4,0 0,4.5 0,4.5 4,0 4,0 0,-4.5 z m 91,-8.38499 c 0,-12.82071 0.013,-12.89361 2.6384,-14.61372 3.6559,-2.39543 9.4113,-2.99063 11.7794,-1.21816 1.6817,1.25874 1.9748,3.11483 2.3805,15.07617 l 0.4626,13.6407 2.8695,0 2.8696,0 0,-13.0147 0,-13.0147 3.25,-1.98156 c 4.4272,-2.69934 9.2089,-2.59961 11.1933,0.23347 1.2118,1.73002 1.5567,5.05383 1.5567,15 l 0,12.77749 3.6135,0 3.6135,0 -0.4133,-13.75 c -0.3178,-10.5697 -0.8177,-14.51164 -2.1614,-17.04296 -3.0166,-5.68255 -10.2813,-6.84104 -17.8069,-2.83965 l -4.4524,2.36739 -2.7523,-2.36739 c -3.5019,-3.01223 -9.8098,-3.17136 -14.4149,-0.36365 -3.9243,2.39267 -4.2258,2.42808 -4.2258,0.49626 0,-1 -1,-1.5 -3,-1.5 l -3,0 0,17.5 0,17.5 3,0 3,0 0,-12.88499 z"
         style="fill:#336666;fill-opacity:0.49803922" />
      <path
         inkscape:connector-curvature="0"
         id="path19037"
         transform="matrix(2.3535005,0,0,2.3535005,-851.22029,-198.36994)"
         d="m 457.03125,208.5 c -0.70108,0.0309 -91.28418,0.0529 -201.3125,0.0312 -136.37164,-0.0268 -201.01446,0.10522 -203.09375,0.40625 -1.677629,0.24288 -3.540764,0.64142 -4.125,0.90625 -0.584236,0.26483 -1.183589,0.44198 -1.34375,0.40625 -0.275581,-0.0615 -3.216559,0.90601 -4.59375,1.5 -0.350542,0.15119 -0.726903,0.30338 -0.84375,0.34375 -2.811221,0.97118 -9.0475,4.05693 -11.90625,5.90625 -1.674336,1.08312 -4.844541,3.69706 -7.03125,5.8125 -6.184209,5.98266 -10.126364,12.33489 -12.34375,19.8125 -1.5825406,5.33674 -1.8808288,13.93262 -0.6875,19.65625 2.055984,9.86124 6.961258,18.34504 14.53125,25.09375 1.696469,1.51242 3.54026,3.17425 4.09375,3.6875 5.724091,5.30795 17.245627,10.15175 26.40625,11.125 1.810218,0.19232 93.81443,0.34139 204.46875,0.3125 187.29773,-0.0489 201.40831,-0.11222 204.375,-0.78125 12.61976,-2.84593 22.14415,-8.56508 29.5,-17.75 4.96291,-6.19702 7.76419,-12.4766 9.34375,-20.90625 0.74536,-3.9778 0.66113,-11.79337 -0.15625,-15.34375 -0.25906,-1.12525 -0.35378,-2.21901 -0.21875,-2.4375 0.13503,-0.21849 0.06,-0.40625 -0.1875,-0.40625 -0.24746,0 -0.46875,-0.56271 -0.46875,-1.25 0,-0.68729 -0.17256,-1.35557 -0.40625,-1.5 -0.23369,-0.14443 -0.4375,-0.74206 -0.4375,-1.3125 0,-0.57044 -0.20381,-1.03125 -0.4375,-1.03125 -0.23369,0 -0.4239,-0.34103 -0.4375,-0.75 -0.0822,-2.49547 -6.5453,-12.41947 -10.375,-15.9375 -0.6996,-0.64266 -1.07107,-1.1554 -0.84375,-1.15625 0.22736,-8.7e-4 -0.20924,-0.38067 -0.96875,-0.84375 -0.75951,-0.46308 -1.375,-1.1578 -1.375,-1.53125 0,-0.37345 -0.24024,-0.597 -0.53125,-0.5 -0.29097,0.097 -1.09121,-0.40371 -1.78125,-1.09375 -0.69008,-0.69004 -1.78953,-1.43036 -2.4375,-1.65625 -0.64801,-0.22589 -1.14533,-0.63461 -1.09375,-0.90625 0.0516,-0.27164 -0.21858,-0.46954 -0.625,-0.4375 -0.42023,0.0331 -0.6266,-0.11958 -0.46875,-0.375 0.17468,-0.28263 -0.01,-0.36357 -0.46875,-0.1875 -0.49135,0.18855 -0.61126,0.11297 -0.40625,-0.21875 0.20195,-0.3268 0.0541,-0.39541 -0.40625,-0.21875 -0.38139,0.14635 -0.80831,0.0721 -0.96875,-0.1875 -0.18891,-0.30569 -0.11023,-0.34763 0.25,-0.125 0.34434,0.21282 0.44896,0.17759 0.28125,-0.0937 -0.14897,-0.24105 -1.37101,-0.89745 -2.71875,-1.4375 -1.34769,-0.54005 -2.56961,-1.15527 -2.71875,-1.375 -0.14914,-0.21973 -0.49017,-0.28558 -0.75,-0.125 -0.25983,0.16058 -0.46875,0.10573 -0.46875,-0.125 0,-0.23072 -1.05843,-0.64986 -2.34375,-0.9375 -1.28532,-0.28764 -2.3125,-0.64485 -2.3125,-0.8125 0,-0.34699 -7.22164,-1.33536 -9.15625,-1.25 z m -350.375,5.9375 c 21.77323,-0.0263 51.38411,0 91.875,0 l 146.5625,0 0,40.78125 0,40.78125 -146.90625,-0.0312 C 75.533206,295.937 50.724268,295.83141 48.03125,295.3438 c -8.677547,-1.5712 -17.16178,-6.22241 -23.4375,-12.875 -4.673634,-4.9543 -7.499923,-9.83679 -9.53125,-16.5 -1.029641,-3.37746 -1.118754,-4.38226 -1.125,-10.53125 -0.008,-7.85834 0.653943,-11.10354 3.5625,-17.1875 2.33236,-4.87869 4.791289,-8.16227 9.03125,-12.15625 4.184873,-3.94209 9.00454,-6.95549 14.28125,-8.9375 5.828412,-2.18924 0.524064,-2.63993 65.84375,-2.71875 z m 167.46875,9.75 0,2.96875 0,2.9375 -13.90625,0.15625 c -13.22615,0.12142 -14.06144,0.15447 -16.46875,1.0625 -8.98,3.38724 -15.9375,12.92772 -15.9375,21.8125 l 0,1.65625 -3,0 -3,0 0.125,1.59375 0.125,1.59375 2.96875,0.21875 2.96875,0.21875 0.34375,2.125 c 0.19169,1.16847 1.10314,3.69969 2.03125,5.625 3.15233,6.53931 9.859,11.82135 16.34375,12.875 1.40217,0.22783 8.13319,0.40498 14.96875,0.40625 l 12.4375,0 0,2.96875 0,2.96875 1.6875,0 1.65625,0 0.125,-2.84375 0.15625,-2.875 12.71875,-0.21875 c 11.98335,-0.20549 12.90106,-0.28138 15.15625,-1.1875 7.70255,-3.09482 13.56641,-9.8883 15.25,-17.625 l 0.5625,-2.4375 2.90625,0 2.90625,0 0,-1.6875 0,-1.71875 -3,0 -2.96875,0 0,-2.28125 c 0,-2.82447 -1.33115,-7.33062 -3.09375,-10.4375 -1.78855,-3.15263 -6.31099,-7.57865 -9.46875,-9.25 -4.60005,-2.43473 -6.2884,-2.65625 -19.375,-2.65625 l -11.8125,0 0,-2.96875 0,-3 -1.71875,0 -1.6875,0 z m 142.4375,1.34375 c 1.97049,0.0409 2.64801,0.60545 3.5,2.1875 1.47657,2.74182 0.28449,4.35604 -8.0625,11.0625 -10.16111,8.16403 -20.82501,18.28595 -30.15625,28.59375 -4.35647,4.8124 -7.86349,9.66776 -7.34375,10.1875 0.12419,0.12419 1.24799,-0.0492 2.5,-0.40625 2.66142,-0.75892 13.43822,-2.79332 21.875,-4.125 5.24196,-0.8274 8.0047,-0.95851 24.53125,-1.125 13.38655,-0.13486 18.58061,-0.0514 18.375,0.28125 -0.15743,0.25473 -0.56512,0.46875 -0.875,0.46875 -0.30988,0 -0.87209,0.45453 -1.25,1.03125 -0.39095,0.5967 -0.94354,0.9421 -1.28125,0.8125 -0.32645,-0.12527 -0.72072,3.7e-4 -0.875,0.25 -0.15428,0.24962 -0.7391,0.4375 -1.3125,0.4375 -0.5734,0 -2.40858,0.37676 -4.09375,0.84375 -4.1418,1.14775 -10.36453,2.00093 -20.53125,2.78125 -12.75095,0.97867 -23.57184,2.65282 -37.15625,5.75 -6.507,1.48356 -8.15522,1.43072 -9.96875,-0.25 -1.54689,-1.43361 -1.49513,-4.08419 0.0937,-6.46875 1.05765,-1.58729 8.55461,-9.76061 21.71875,-23.6875 5.9988,-6.34638 13.89726,-13.77012 19.0625,-17.9375 2.16167,-1.74407 3.9375,-3.28138 3.9375,-3.40625 0,-0.84221 -14.61988,1.27966 -27.03125,3.9375 -3.76315,0.80586 -7.12004,1.46875 -7.46875,1.46875 -1.61227,0 -2.77236,-3.72723 -1.6875,-5.4375 0.50722,-0.79963 3.70288,-1.66486 10.46875,-2.84375 3.27172,-0.57007 6.61957,-1.24805 7.4375,-1.5 1.45441,-0.44801 16.19093,-2.21862 23.125,-2.78125 1.00116,-0.0812 1.81192,-0.13862 2.46875,-0.125 z m -280.09375,4.59375 0,24.65625 0,24.65625 1.6875,0 1.6875,0 0,-7.4375 0,-7.4375 30.75,0 c 34.85446,0 33.05839,-0.16491 37,3.4375 2.62927,2.403 3.87847,4.94495 4.3125,8.78125 l 0.28125,2.65625 1.71875,0 1.71875,0 -0.28125,-3 c -0.4242,-5.05984 -3.46367,-10.36391 -7.375,-12.78125 l -1.5,-0.9375 1.4375,-0.75 c 2.20345,-1.13044 4.96127,-4.07382 6.34375,-6.8125 4.48169,-8.87818 1.22151,-18.83022 -7.59375,-23.1875 l -3.21875,-1.59375 -33.5,-0.125 -33.46875,-0.125 z m -88.40625,0.0312 0,15.9375 0,15.9375 -9.125,0 -9.125,0 0,1.6875 0,1.6875 9.125,0 9.125,0 0,7.03125 0,7 1.71875,0 1.6875,0 0,-7 0,-7 30.28125,-0.125 30.28125,-0.0937 2.875,-1.4375 C 122.07722,260.25032 126.27509,252.54086 125,245.21875 123.83384,238.52216 119.03759,232.93239 112.78125,231 c -2.67242,-0.82543 -3.86653,-0.84375 -33.71875,-0.84375 l -31,0 z m 91.78125,3.375 31.5625,0.125 31.53125,0.0937 2.25,1.03125 c 2.59821,1.17471 5.32952,3.97452 6.625,6.78125 1.37897,2.98762 1.26844,8.35598 -0.21875,11.5625 -1.29502,2.79217 -3.52502,5.09494 -6.25,6.4375 l -1.96875,0.96875 -31.75,0.125 -31.78125,0.0937 0,-13.59375 0,-13.625 z m -88.375,0.0312 26.65625,0 c 29.67859,0.008 33.57674,0.23016 36.84375,2.0625 4.35741,2.4439 7.46466,8.54545 6.875,13.5625 -0.57572,4.8985 -3.48388,9.05801 -8,11.4375 l -2.25,1.1875 -30.0625,0.125 -30.0625,0.0937 0,-14.21875 0,-14.25 z m 203.21875,0 c 1.77116,-0.0202 3.92337,0 6.5625,0 l 12.875,0 0,10.625 0,10.59375 -21.46875,0 -21.4375,0 0,-1.78125 c 0.0219,-7.82787 6.80351,-16.41553 14.84375,-18.78125 1.41839,-0.41734 3.31151,-0.59569 8.625,-0.65625 z m 22.84375,0 10.5,0 c 14.39461,0.004 17.20794,0.52884 22.03125,4.25 4.28002,3.30201 7.79321,9.94927 7.8125,14.75 l 0,2.21875 -20.15625,0 -20.1875,0 0,-10.59375 0,-10.625 z m 172.875,7.625 c 4.32806,0 6.83181,2.8417 6.84375,7.78125 0.008,3.47742 -1.00701,5.75349 -3.125,7.0625 -1.84432,1.13984 -5.04329,1.17665 -7.0625,0.0937 -0.86985,-0.4665 -1.87772,-1.55126 -2.46875,-2.65625 -1.30924,-2.44766 -1.20379,-7.27843 0.1875,-9.15625 1.48961,-2.01049 3.45071,-3.125 5.625,-3.125 z m 18.25,0 c 1.10064,0.0278 2.16227,0.3913 2.90625,1.03125 l 1.15625,1 1.90625,-1 c 3.19762,-1.70019 6.28075,-1.22701 7.5625,1.1875 0.57094,1.07556 0.77122,2.75895 0.90625,7.25 l 0.1875,5.84375 -1.53125,0 -1.5625,0 0,-5.4375 c 0,-4.22612 -0.14136,-5.63992 -0.65625,-6.375 -0.84317,-1.20377 -2.86889,-1.2407 -4.75,-0.0937 l -1.375,0.84375 0,5.53125 0,5.53125 -1.21875,0 -1.21875,0 -0.1875,-5.8125 c -0.17238,-5.08236 -0.3167,-5.87141 -1.03125,-6.40625 -1.0062,-0.75312 -3.44661,-0.48657 -5,0.53125 -1.11553,0.73087 -1.125,0.77124 -1.125,6.21875 l 0,5.46875 -1.28125,0 -1.25,0 0,-7.4375 0,-7.4375 1.25,0 c 0.8498,0 1.28125,0.2001 1.28125,0.625 0,0.82083 0.14507,0.82914 1.8125,-0.1875 0.97835,-0.5965 2.11811,-0.90277 3.21875,-0.875 z m -31.75,0.0625 c 0.42037,0.01 0.87295,0.0547 1.3125,0.125 2.69152,0.43039 3.3125,0.91778 3.3125,2.59375 l 0,1.46875 -1.59375,-0.84375 c -1.73779,-0.9314 -4.34278,-1.09467 -5.6875,-0.375 -1.08306,0.57963 -2.0625,2.87307 -2.0625,4.84375 0,1.97068 0.97944,4.26412 2.0625,4.84375 1.37897,0.738 4.38494,0.55257 5.90625,-0.375 l 1.375,-0.84375 0,1.5 c 0,1.31296 -0.18118,1.58703 -1.46875,2.125 -3.57179,1.4924 -8.1973,0.0833 -9.75,-2.96875 -1.06709,-2.09755 -1.12336,-6.24709 -0.125,-8.15625 1.3573,-2.59556 3.77616,-4.00529 6.71875,-3.9375 z m 13.34375,2.53125 c -0.78379,0.0125 -1.56469,0.17489 -2.15625,0.5625 -2.73146,1.78973 -2.1885,8.78376 0.78125,10.03125 1.20238,0.50508 3.22566,0.18297 4.1875,-0.6875 1.83943,-1.66467 2.09616,-6.40517 0.46875,-8.59375 -0.64101,-0.86204 -1.97494,-1.33328 -3.28125,-1.3125 z m -28.6875,8.875 1.6875,0 1.71875,0 0,1.9375 0,1.90625 -1.71875,0 -1.6875,0 0,-1.90625 0,-1.9375 z m -190.03125,5.53125 21.28125,0 21.3125,0 0,8.71875 0,8.71875 -13.90625,-0.0312 c -13.51692,-0.01 -13.98516,-0.0241 -16.28125,-0.96875 -2.94906,-1.21325 -3.86063,-1.83879 -6.6875,-4.625 -2.51403,-2.47787 -5.12235,-7.21561 -5.5,-10.03125 l -0.21875,-1.78125 z m 46,0 20.21875,0 20.21875,0 -0.3125,1.375 c -1.38413,6.41725 -5.3786,11.52975 -11.65625,14.84375 -1.87722,0.99099 -2.15124,0.99875 -15.1875,1.125 l -13.28125,0.125 0,-8.71875 0,-8.75 z"
         style="fill:#336666;fill-opacity:0.49803922" />
    </g>
    <rect
       style="opacity:0.87000001999999999;fill:url(#linearGradient19921);fill-opacity:1;fill-rule:nonzero;stroke:none"
       id="rect19031"
       width="457.93304"
       height="84.519585"
       x="27.189659"
       y="753.65564"
       rx="51.069542" />
    <path
       sodipodi:nodetypes="csccssssssssssscssssccccccccccccccsssscccsccccssssssscccsssscsscscccssssscsssssssscccccsccscccccccccccsscccccccccscccccsssccccsccsssccsccsccsssscccccccccc"
       inkscape:connector-curvature="0"
       id="path19714"
       d="m 443.625,752.01843 c -0.65429,0.0288 -85.19108,0.0515 -187.875,0.0312 -127.26883,-0.025 -187.622003,0.12531 -189.5625,0.40625 -54.161373,3.62166 -57.686297,82.65991 2.03125,87.9375 1.689386,0.17948 87.54436,0.33946 190.8125,0.3125 174.7956,-0.0456 187.98134,-0.12562 190.75,-0.75 11.77739,-2.65596 20.66641,-7.99068 27.53125,-16.5625 4.63164,-5.78337 7.24463,-11.63303 8.71875,-19.5 0.69561,-3.71228 0.60657,-10.99911 -0.15625,-14.3125 -0.24177,-1.05014 -0.34477,-2.07734 -0.21875,-2.28125 0.12602,-0.20391 0.0747,-0.375 -0.15625,-0.375 -0.23094,0 -0.4375,-0.54609 -0.4375,-1.1875 0,-0.64141 -0.15691,-1.27146 -0.375,-1.40625 -0.21809,-0.13479 -0.40625,-0.68638 -0.40625,-1.21875 0,-0.53236 -0.21941,-0.9375 -0.4375,-0.9375 -0.21809,0 -0.39356,-0.33708 -0.40625,-0.71875 -0.0767,-2.3289 -6.08218,-11.5918 -9.65625,-14.875 -0.6529,-0.59976 -1.02464,-1.06171 -0.8125,-1.0625 0.21219,-7.9e-4 -0.19744,-0.38033 -0.90625,-0.8125 -0.70881,-0.43217 -1.28125,-1.05773 -1.28125,-1.40625 0,-0.34852 -0.19717,-0.55928 -0.46875,-0.46875 -0.27155,0.0905 -1.04352,-0.38727 -1.6875,-1.03125 -0.64402,-0.64398 -1.64528,-1.32044 -2.25,-1.53125 -0.60475,-0.21081 -1.07939,-0.59024 -1.03125,-0.84375 0.0482,-0.25351 -0.21446,-0.43615 -0.59375,-0.40625 -0.39218,0.0309 -0.58481,-0.13663 -0.4375,-0.375 0.16302,-0.26376 -0.009,-0.32057 -0.4375,-0.15625 -0.45855,0.17596 -0.56633,0.0908 -0.375,-0.21875 0.18847,-0.30498 0.0546,-0.35237 -0.375,-0.1875 -0.35594,0.13658 -0.75652,0.0548 -0.90625,-0.1875 -0.1763,-0.28528 -0.11743,-0.33277 0.21875,-0.125 0.32135,0.19861 0.43776,0.19068 0.28125,-0.0625 -0.13903,-0.22496 -1.27347,-0.83975 -2.53125,-1.34375 -1.25773,-0.504 -2.42332,-1.07618 -2.5625,-1.28125 -0.13918,-0.20506 -0.44501,-0.27486 -0.6875,-0.125 -0.24249,0.14986 -0.4375,0.0903 -0.4375,-0.125 0,-0.21532 -0.98797,-0.60656 -2.1875,-0.875 -1.19952,-0.26844 -2.15625,-0.59354 -2.15625,-0.75 0,-0.32383 -6.72578,-1.26716 -8.53125,-1.1875 z m -327,5.5625 c 20.31987,-0.0245 47.96188,0 85.75,0 l 136.78125,0 0,38.0625 0,38.0625 -137.125,-0.0312 c -114.467114,-0.0297 -137.611741,-0.13869 -140.125,-0.59375 -8.09832,-1.46632 -16.018185,-5.82272 -21.875,-12.03125 -4.361669,-4.6236 -6.979264,-9.15656 -8.875,-15.375 -0.960912,-3.15202 -1.056671,-4.1052 -1.0625,-9.84375 -0.0075,-7.33379 0.598089,-10.35339 3.3125,-16.03125 2.176675,-4.55304 4.480557,-7.61637 8.4375,-11.34375 3.905532,-3.67896 8.41926,-6.49404 13.34375,-8.34375 5.439365,-2.04311 0.477903,-2.45769 61.4375,-2.53125 z m 289.21875,10.34375 c 1.83896,0.0382 2.48613,0.5548 3.28125,2.03125 1.37801,2.55881 0.25858,4.08495 -7.53125,10.34375 -9.48286,7.61908 -19.44787,17.06775 -28.15625,26.6875 -4.06568,4.49117 -7.3288,9.01496 -6.84375,9.5 0.1159,0.1159 1.17531,-0.0418 2.34375,-0.375 2.48377,-0.70826 12.53263,-2.60096 20.40625,-3.84375 4.89206,-0.77217 7.4516,-0.90712 22.875,-1.0625 12.493,-0.12586 17.34814,-0.0604 17.15625,0.25 -0.14692,0.23773 -0.52331,0.4375 -0.8125,0.4375 -0.28919,0 -0.80356,0.43053 -1.15625,0.96875 -0.36485,0.55687 -0.90358,0.87095 -1.21875,0.75 -0.30466,-0.11691 -0.66852,0.017 -0.8125,0.25 -0.14398,0.23296 -0.68362,0.40625 -1.21875,0.40625 -0.53513,0 -2.23981,0.34543 -3.8125,0.78125 -3.86534,1.07114 -9.66816,1.86552 -19.15625,2.59375 -11.89982,0.91334 -22.00985,2.48455 -34.6875,5.375 -6.07266,1.38453 -7.62002,1.34978 -9.3125,-0.21875 -1.44364,-1.33792 -1.38903,-3.83711 0.0937,-6.0625 0.98705,-1.48134 7.99582,-9.09648 20.28125,-22.09375 5.59838,-5.92276 12.96079,-12.86079 17.78125,-16.75 2.01738,-1.62765 3.6875,-3.03972 3.6875,-3.15625 0,-0.78599 -13.66709,1.17582 -25.25,3.65625 -3.51196,0.75207 -6.64332,1.375 -6.96875,1.375 -1.50465,0 -2.57495,-3.46639 -1.5625,-5.0625 0.47336,-0.74625 3.467,-1.55605 9.78125,-2.65625 3.05333,-0.53202 6.17417,-1.17112 6.9375,-1.40625 1.35733,-0.4181 15.09128,-2.06868 21.5625,-2.59375 0.93433,-0.0758 1.69951,-0.13771 2.3125,-0.125 z m 31.59375,14.625 c 4.03917,0 6.36386,2.64017 6.375,7.25 0.007,3.2453 -0.92963,5.37212 -2.90625,6.59375 -1.72121,1.06376 -4.70932,1.10442 -6.59375,0.0937 -0.81179,-0.43536 -1.76092,-1.46877 -2.3125,-2.5 -1.22185,-2.28428 -1.11092,-6.77877 0.1875,-8.53125 1.39018,-1.87629 3.22084,-2.90625 5.25,-2.90625 z m 17.03125,0 c 1.02717,0.0259 2.02443,0.34026 2.71875,0.9375 l 1.0625,0.9375 1.78125,-0.9375 c 2.98418,-1.5867 5.86631,-1.12834 7.0625,1.125 0.53283,1.00377 0.71773,2.55873 0.84375,6.75 l 0.1875,5.46875 -1.4375,0 -1.46875,0 0,-5.0625 c 0,-3.94403 -0.11323,-5.28274 -0.59375,-5.96875 -0.78689,-1.12342 -2.68196,-1.16419 -4.4375,-0.0937 l -1.28125,0.8125 0,5.15625 0,5.15625 -1.15625,0 -1.125,0 -0.1875,-5.4375 c -0.16088,-4.74311 -0.3019,-5.46961 -0.96875,-5.96875 -0.93904,-0.70285 -3.20655,-0.44988 -4.65625,0.5 -1.04107,0.68208 -1.03125,0.72861 -1.03125,5.8125 l 0,5.09375 -1.21875,0 -1.15625,0 0,-6.9375 0,-6.9375 1.15625,0 c 0.79307,0 1.21875,0.16596 1.21875,0.5625 0,0.76604 0.13137,0.79253 1.6875,-0.15625 0.91305,-0.55668 1.97283,-0.83842 3,-0.8125 z m -29.625,0.0312 c 0.39231,0.009 0.80854,0.0594 1.21875,0.125 2.51186,0.40166 3.09375,0.8734 3.09375,2.4375 l 0,1.375 -1.5,-0.8125 c -1.62179,-0.86923 -4.05754,-1.01538 -5.3125,-0.34375 -1.01076,0.54094 -1.90625,2.69211 -1.90625,4.53125 0,1.83913 0.89549,3.95906 1.90625,4.5 1.28693,0.68874 4.11149,0.52191 5.53125,-0.34375 l 1.28125,-0.78125 0,1.40625 c 0,1.22532 -0.17337,1.46669 -1.375,1.96875 -3.33337,1.39278 -7.64469,0.0983 -9.09375,-2.75 -0.99586,-1.95754 -1.05672,-5.84328 -0.125,-7.625 1.2667,-2.42231 3.53508,-3.75076 6.28125,-3.6875 z m 12.4375,2.375 c -0.73147,0.0117 -1.44793,0.16951 -2,0.53125 -2.54913,1.67027 -2.05277,8.17953 0.71875,9.34375 1.12212,0.47136 3.00861,0.18737 3.90625,-0.625 1.71665,-1.55356 1.95628,-5.98876 0.4375,-8.03125 -0.59822,-0.8045 -1.84339,-1.23814 -3.0625,-1.21875 z m -26.78125,8.2813 1.59375,0 1.59375,0 0,1.8125 0,1.78125 -1.59375,0 -1.59375,0 0,-1.78125 z"
       style="fill:#336666;fill-opacity:1" />
    <path
       sodipodi:nodetypes="csccccssssssscc"
       inkscape:connector-curvature="0"
       id="path19583"
       d="m 116.81211,757.57393 c 20.30277,-0.0245 47.92018,-0.69056 85.67023,0 l 136.6644,0 0,38.05907 0,38.0591 -136.98494,-0.029 c -114.370845,-0.03 -137.504313,-0.1282 -140.015459,-0.5833 -8.091509,-1.4663 -16.00276,-5.807 -21.85465,-12.0155 -4.358,-4.6237 -6.993415,-9.1802 -8.887557,-15.3987 -0.960104,-3.152 -1.0432,-4.0897 -1.049024,-9.8283 -0.0075,-7.3338 0.609781,-10.36234 3.321908,-16.04019 2.174845,-4.55304 4.46771,-7.61744 8.421325,-11.34482 3.902248,-3.67896 8.396419,-6.49122 13.316767,-8.34093 5.434791,-2.0431 0.488669,-2.46371 61.397,-2.53727 z"
       style="fill:url(#linearGradient19934);fill-opacity:1;stroke:url(#radialGradient19936);stroke-width:2.49894857;stroke-linecap:round;stroke-linejoin:round;stroke-miterlimit:4;stroke-dasharray:none" />
    <path
       inkscape:connector-curvature="0"
       id="path19710"
       d="m 272.90625,766.67468 0,2.78125 0,2.71875 -12.96875,0.15625 c -12.3433,0.11331 -13.12838,0.15258 -15.375,1 -8.38059,3.16114 -14.875,12.05203 -14.875,20.34375 l 0,1.5625 -2.78125,0 -2.8125,0 0.125,1.46875 0.0937,1.5 2.78125,0.1875 2.78125,0.21875 0.3125,1.96875 c 0.17889,1.09047 1.04009,3.4532 1.90625,5.25 2.94191,6.10281 9.19811,11.04793 15.25,12.03125 1.30858,0.21262 7.58947,0.37381 13.96875,0.375 l 11.59375,0 0,2.78125 0,2.75 1.59375,0 1.53125,0 0.125,-2.65625 0.15625,-2.6875 11.84375,-0.1875 c 11.18346,-0.19177 12.05159,-0.27937 14.15625,-1.125 7.18841,-2.88824 12.64754,-9.21722 14.21875,-16.4375 l 0.53125,-2.28125 2.71875,0 2.71875,0 0,-1.5625 0,-1.59375 -2.8125,0 -2.75,0 0,-2.15625 c 0,-2.63594 -1.2613,-6.81926 -2.90625,-9.71875 -1.66916,-2.94219 -5.89677,-7.06521 -8.84375,-8.625 -4.293,-2.27221 -5.84943,-2.5 -18.0625,-2.5 l -11.03125,0 0,-2.75 0,-2.8125 -1.59375,0 -1.59375,0 z m -18.125,8.75 c 1.65293,-0.0188 3.66203,0 6.125,0 l 12,0 0,9.90625 0,9.90625 -20.03125,0 -20,0 0,-1.6875 c 0.0205,-7.30536 6.3402,-15.29219 13.84375,-17.5 1.32371,-0.38948 3.10369,-0.56848 8.0625,-0.625 z m 21.3125,0 9.8125,0 c 13.43377,0.004 16.06115,0.49598 20.5625,3.96875 3.99433,3.0816 7.26325,9.26972 7.28125,13.75 l 0,2.09375 -18.8125,0 -18.84375,0 0,-9.90625 0,-9.90625 z m -42.9375,22.96875 19.875,0 19.875,0 0,8.15625 0,8.125 -12.96875,-0.0312 c -12.61467,-0.009 -13.04467,-0.0247 -15.1875,-0.90625 -2.75221,-1.13226 -3.61182,-1.71227 -6.25,-4.3125 -2.34622,-2.31247 -4.77256,-6.71605 -5.125,-9.34375 l -0.21875,-1.6875 z m 42.9375,0 18.875,0 18.875,0 -0.3125,1.28125 c -1.29174,5.9889 -5.01638,10.78221 -10.875,13.875 -1.75192,0.92484 -1.99016,0.91343 -14.15625,1.03125 l -12.40625,0.125 0,-8.125 0,-8.1875 z"
       style="fill:#336666;fill-opacity:1" />
    <path
       inkscape:connector-curvature="0"
       id="path19706"
       d="m 144.4375,772.20593 0,23.03125 0,23 1.59375,0 1.5625,0 0,-6.9375 0,-6.9375 28.6875,0 c 32.52792,0 30.85274,-0.17445 34.53125,3.1875 2.45377,2.2426 3.62619,4.63852 4.03125,8.21875 l 0.28125,2.46875 1.59375,0 1.59375,0 -0.25,-2.8125 c -0.39588,-4.7221 -3.22475,-9.65027 -6.875,-11.90625 l -1.40625,-0.875 1.34375,-0.71875 c 2.05637,-1.05498 4.61605,-3.78787 5.90625,-6.34375 4.18254,-8.28556 1.13309,-17.58982 -7.09375,-21.65625 l -3,-1.46875 -31.25,-0.125 -31.25,-0.125 z m 3.15625,3.1875 29.46875,0.125 29.40625,0.0937 2.125,0.9375 c 2.42478,1.0963 4.94724,3.72437 6.15625,6.34375 1.28693,2.7882 1.20042,7.78876 -0.1875,10.78125 -1.20858,2.60579 -3.30066,4.74705 -5.84375,6 l -1.84375,0.90625 -29.625,0.125 -29.65625,0.0937 0,-12.6875 0,-12.71875 z"
       style="fill:#336666;fill-opacity:1" />
    <path
       sodipodi:nodetypes="ccccccccccccccccccssscccsscccccc"
       inkscape:connector-curvature="0"
       id="path19704"
       d="m 61.9375,772.23718 0,14.875 0,14.875 -8.5,0 -8.53125,0 0,1.59375 0,1.5625 8.53125,0 8.5,0 0,6.5625 0,6.53125 1.59375,0 1.59375,0 0,-6.53125 0,-6.53125 28.25,-0.125 28.28125,-0.0937 2.65625,-1.34375 c 6.69231,-3.29524 10.62748,-10.47914 9.4375,-17.3125 -1.08832,-6.24959 -5.56752,-11.47785 -11.40625,-13.28125 -2.49404,-0.77033 -3.60916,-0.7812 -31.46875,-0.78125 z m 3.1875,3.1875 24.875,0 c 27.69754,0.007 31.32606,0.22747 34.375,1.9375 4.06655,2.28077 6.9878,7.97409 6.4375,12.65625 -0.53729,4.57153 -3.25408,8.43559 -7.46875,10.65625 l -2.125,1.125 -28.03125,0.0937 -28.0625,0.0937 0,-13.28125 z"
       style="fill:#336666;fill-opacity:1" />
    <path
       style="fill:url(#linearGradient19861);fill-opacity:1;stroke:url(#linearGradient19845);stroke-width:2.49894857;stroke-linecap:round;stroke-linejoin:round;stroke-miterlimit:4;stroke-dasharray:none"
       d="m 116.81211,962.64857 c 20.30277,0.0245 47.92018,0.69056 85.67023,0 l 136.6644,0 0,-38.05907 0,-38.0591 -136.98494,0.029 c -114.370845,0.03 -137.504313,0.1282 -140.015459,0.5833 -8.091509,1.4663 -16.00276,5.807 -21.85465,12.0155 -4.358,4.6237 -6.993415,9.1802 -8.887557,15.3987 -0.960104,3.152 -1.0432,4.0897 -1.049024,9.8283 -0.0075,7.3338 0.609781,10.36234 3.321908,16.04019 2.174845,4.55304 4.46771,7.61744 8.421325,11.34482 3.902248,3.67896 8.396419,6.49122 13.316767,8.34093 5.434791,2.0431 0.488669,2.46371 61.397,2.53727 z"
       id="path19792"
       inkscape:connector-curvature="0"
       sodipodi:nodetypes="csccccssssssscc" />
    <path
       style="fill:url(#linearGradient19843);fill-opacity:1"
       d="m 443.625,968.20407 c -0.65429,-0.0288 -85.19108,-0.0515 -187.875,-0.0312 -127.26883,0.025 -187.622003,-0.12531 -189.5625,-0.40625 -57.9549561,-6.01845 -55.976219,-84.8219 2.03125,-87.9375 1.689386,-0.17948 87.54436,-0.33946 190.8125,-0.3125 174.7956,0.0456 187.98134,0.12562 190.75,0.75 11.77739,2.65596 20.66641,7.99068 27.53125,16.5625 4.63164,5.78337 7.24463,11.63303 8.71875,19.5 0.69561,3.71228 0.60657,10.99911 -0.15625,14.3125 -0.24177,1.05014 -0.34477,2.07734 -0.21875,2.28125 0.12602,0.20391 0.0747,0.375 -0.15625,0.375 -0.23094,0 -0.4375,0.54609 -0.4375,1.1875 0,0.64141 -0.15691,1.27146 -0.375,1.40625 -0.21809,0.13479 -0.40625,0.68638 -0.40625,1.21875 0,0.53236 -0.21941,0.9375 -0.4375,0.9375 -0.21809,0 -0.39356,0.33708 -0.40625,0.71875 -0.0767,2.3289 -6.08218,11.5918 -9.65625,14.875 -0.6529,0.59976 -1.02464,1.06171 -0.8125,1.0625 0.21219,7.9e-4 -0.19744,0.38033 -0.90625,0.8125 -0.70881,0.43217 -1.28125,1.05773 -1.28125,1.40625 0,0.34852 -0.19717,0.55928 -0.46875,0.46875 -0.27155,-0.0905 -1.04352,0.38727 -1.6875,1.03125 -0.64402,0.64398 -1.64528,1.32044 -2.25,1.53125 -0.60475,0.21081 -1.07939,0.59024 -1.03125,0.84375 0.0482,0.25351 -0.21446,0.43615 -0.59375,0.40625 -0.39218,-0.0309 -0.58481,0.13663 -0.4375,0.375 0.16302,0.26376 -0.009,0.32057 -0.4375,0.15625 -0.45855,-0.17596 -0.56633,-0.0908 -0.375,0.21875 0.18847,0.30498 0.0546,0.35237 -0.375,0.1875 -0.35594,-0.13658 -0.75652,-0.0548 -0.90625,0.1875 -0.1763,0.28528 -0.11743,0.33277 0.21875,0.125 0.32135,-0.19861 0.43776,-0.19068 0.28125,0.0625 -0.13903,0.22496 -1.27347,0.83975 -2.53125,1.34375 -1.25773,0.504 -2.42332,1.07618 -2.5625,1.28125 -0.13918,0.20506 -0.44501,0.27486 -0.6875,0.125 -0.24249,-0.14986 -0.4375,-0.0903 -0.4375,0.125 0,0.21532 -0.98797,0.60656 -2.1875,0.875 -1.19952,0.26844 -2.15625,0.59354 -2.15625,0.75 0,0.32383 -6.72578,1.26716 -8.53125,1.1875 z m -327,-5.5625 c 20.31987,0.0245 47.96188,0 85.75,0 l 136.78125,0 0,-38.0625 0,-38.0625 -137.125,0.0312 c -114.467114,0.0297 -137.611741,0.13869 -140.125,0.59375 -8.09832,1.46632 -16.018185,5.82272 -21.875,12.03125 -4.361669,4.6236 -6.979264,9.15656 -8.875,15.375 -0.960912,3.15202 -1.056671,4.1052 -1.0625,9.84375 -0.0075,7.33379 0.598089,10.35339 3.3125,16.03125 2.176675,4.55304 4.480557,7.61637 8.4375,11.34375 3.905532,3.67896 8.41926,6.49404 13.34375,8.34375 5.439365,2.04311 0.477903,2.45769 61.4375,2.53125 z m 289.21875,-10.34375 c 1.83896,-0.0382 2.48613,-0.5548 3.28125,-2.03125 1.37801,-2.55881 0.25858,-4.08495 -7.53125,-10.34375 -9.48286,-7.61908 -19.44787,-17.06775 -28.15625,-26.6875 -4.06568,-4.49117 -7.3288,-9.01496 -6.84375,-9.5 0.1159,-0.1159 1.17531,0.0418 2.34375,0.375 2.48377,0.70826 12.53263,2.60096 20.40625,3.84375 4.89206,0.77217 7.4516,0.90712 22.875,1.0625 12.493,0.12586 17.34814,0.0604 17.15625,-0.25 -0.14692,-0.23773 -0.52331,-0.4375 -0.8125,-0.4375 -0.28919,0 -0.80356,-0.43053 -1.15625,-0.96875 -0.36485,-0.55687 -0.90358,-0.87095 -1.21875,-0.75 -0.30466,0.11691 -0.66852,-0.017 -0.8125,-0.25 -0.14398,-0.23296 -0.68362,-0.40625 -1.21875,-0.40625 -0.53513,0 -2.23981,-0.34543 -3.8125,-0.78125 -3.86534,-1.07114 -9.66816,-1.86552 -19.15625,-2.59375 -11.89982,-0.91334 -22.00985,-2.48455 -34.6875,-5.375 -6.07266,-1.38453 -7.62002,-1.34978 -9.3125,0.21875 -1.44364,1.33792 -1.38903,3.83711 0.0937,6.0625 0.98705,1.48134 7.99582,9.09648 20.28125,22.09375 5.59838,5.92276 12.96079,12.86079 17.78125,16.75 2.01738,1.62765 3.6875,3.03972 3.6875,3.15625 0,0.78599 -13.66709,-1.17582 -25.25,-3.65625 -3.51196,-0.75207 -6.64332,-1.375 -6.96875,-1.375 -1.50465,0 -2.57495,3.46639 -1.5625,5.0625 0.47336,0.74625 3.467,1.55605 9.78125,2.65625 3.05333,0.53202 6.17417,1.17112 6.9375,1.40625 1.35733,0.4181 15.09128,2.06868 21.5625,2.59375 0.93433,0.0758 1.69951,0.13771 2.3125,0.125 z m 31.59375,-14.625 c 4.03917,0 6.36386,-2.64017 6.375,-7.25 0.007,-3.2453 -0.92963,-5.37212 -2.90625,-6.59375 -1.72121,-1.06376 -4.70932,-1.10442 -6.59375,-0.0937 -0.81179,0.43536 -1.76092,1.46877 -2.3125,2.5 -1.22185,2.28428 -1.11092,6.77877 0.1875,8.53125 1.39018,1.87629 3.22084,2.90625 5.25,2.90625 z m 17.03125,0 c 1.02717,-0.0259 2.02443,-0.34026 2.71875,-0.9375 l 1.0625,-0.9375 1.78125,0.9375 c 2.98418,1.5867 5.86631,1.12834 7.0625,-1.125 0.53283,-1.00377 0.71773,-2.55873 0.84375,-6.75 l 0.1875,-5.46875 -1.4375,0 -1.46875,0 0,5.0625 c 0,3.94403 -0.11323,5.28274 -0.59375,5.96875 -0.78689,1.12342 -2.68196,1.16419 -4.4375,0.0937 l -1.28125,-0.8125 0,-5.15625 0,-5.15625 -1.15625,0 -1.125,0 -0.1875,5.4375 c -0.16088,4.74311 -0.3019,5.46961 -0.96875,5.96875 -0.93904,0.70285 -3.20655,0.44988 -4.65625,-0.5 -1.04107,-0.68208 -1.03125,-0.72861 -1.03125,-5.8125 l 0,-5.09375 -1.21875,0 -1.15625,0 0,6.9375 0,6.9375 1.15625,0 c 0.79307,0 1.21875,-0.16596 1.21875,-0.5625 0,-0.76604 0.13137,-0.79253 1.6875,0.15625 0.91305,0.55668 1.97283,0.83842 3,0.8125 z m -29.625,-0.0312 c 0.39231,-0.009 0.80854,-0.0594 1.21875,-0.125 2.51186,-0.40166 3.09375,-0.8734 3.09375,-2.4375 l 0,-1.375 -1.5,0.8125 c -1.62179,0.86923 -4.05754,1.01538 -5.3125,0.34375 -1.01076,-0.54094 -1.90625,-2.69211 -1.90625,-4.53125 0,-1.83913 0.89549,-3.95906 1.90625,-4.5 1.28693,-0.68874 4.11149,-0.52191 5.53125,0.34375 l 1.28125,0.78125 0,-1.40625 c 0,-1.22532 -0.17337,-1.46669 -1.375,-1.96875 -3.33337,-1.39278 -7.64469,-0.0983 -9.09375,2.75 -0.99586,1.95754 -1.05672,5.84328 -0.125,7.625 1.2667,2.42231 3.53508,3.75076 6.28125,3.6875 z m 12.4375,-2.375 c -0.73147,-0.0117 -1.44793,-0.16951 -2,-0.53125 -2.54913,-1.67027 -2.05277,-8.17953 0.71875,-9.34375 1.12212,-0.47136 3.00861,-0.18737 3.90625,0.625 1.71665,1.55356 1.95628,5.98876 0.4375,8.03125 -0.59822,0.8045 -1.84339,1.23814 -3.0625,1.21875 z m -26.78125,-8.2813 1.59375,0 1.59375,0 0,-1.8125 0,-1.78125 -1.59375,0 -1.59375,0 0,1.78125 z"
       id="path19790"
       inkscape:connector-curvature="0"
       sodipodi:nodetypes="cscccssssssssssscssssccccccccccccccsssscccsccccssssssscccsssscsscscccssssscsssssssscccccsccscccccccccccsscccccccccscccccssscsccsccsssccsccsscssssccccccccc" />
    <path
       style="fill:url(#linearGradient19841);fill-opacity:1"
       d="m 272.90625,953.54782 0,-2.78125 0,-2.71875 -12.96875,-0.15625 c -12.3433,-0.11331 -13.12838,-0.15258 -15.375,-1 -8.38059,-3.16114 -14.875,-12.05203 -14.875,-20.34375 l 0,-1.5625 -2.78125,0 -2.8125,0 0.125,-1.46875 0.0937,-1.5 2.78125,-0.1875 2.78125,-0.21875 0.3125,-1.96875 c 0.17889,-1.09047 1.04009,-3.4532 1.90625,-5.25 2.94191,-6.10281 9.19811,-11.04793 15.25,-12.03125 1.30858,-0.21262 7.58947,-0.37381 13.96875,-0.375 l 11.59375,0 0,-2.78125 0,-2.75 1.59375,0 1.53125,0 0.125,2.65625 0.15625,2.6875 11.84375,0.1875 c 11.18346,0.19177 12.05159,0.27937 14.15625,1.125 7.18841,2.88824 12.64754,9.21722 14.21875,16.4375 l 0.53125,2.28125 2.71875,0 2.71875,0 0,1.5625 0,1.59375 -2.8125,0 -2.75,0 0,2.15625 c 0,2.63594 -1.2613,6.81926 -2.90625,9.71875 -1.66916,2.94219 -5.89677,7.06521 -8.84375,8.625 -4.293,2.27221 -5.84943,2.5 -18.0625,2.5 l -11.03125,0 0,2.75 0,2.8125 -1.59375,0 -1.59375,0 z m -18.125,-8.75 c 1.65293,0.0188 3.66203,0 6.125,0 l 12,0 0,-9.90625 0,-9.90625 -20.03125,0 -20,0 0,1.6875 c 0.0205,7.30536 6.3402,15.29219 13.84375,17.5 1.32371,0.38948 3.10369,0.56848 8.0625,0.625 z m 21.3125,0 9.8125,0 c 13.43377,-0.004 16.06115,-0.49598 20.5625,-3.96875 3.99433,-3.0816 7.26325,-9.26972 7.28125,-13.75 l 0,-2.09375 -18.8125,0 -18.84375,0 0,9.90625 0,9.90625 z m -42.9375,-22.96875 19.875,0 19.875,0 0,-8.15625 0,-8.125 -12.96875,0.0312 c -12.61467,0.009 -13.04467,0.0247 -15.1875,0.90625 -2.75221,1.13226 -3.61182,1.71227 -6.25,4.3125 -2.34622,2.31247 -4.77256,6.71605 -5.125,9.34375 l -0.21875,1.6875 z m 42.9375,0 18.875,0 18.875,0 -0.3125,-1.28125 c -1.29174,-5.9889 -5.01638,-10.78221 -10.875,-13.875 -1.75192,-0.92484 -1.99016,-0.91343 -14.15625,-1.03125 l -12.40625,-0.125 0,8.125 0,8.1875 z"
       id="path19794"
       inkscape:connector-curvature="0" />
    <path
       style="fill:url(#linearGradient19839);fill-opacity:1"
       d="m 144.4375,948.01657 0,-23.03125 0,-23 1.59375,0 1.5625,0 0,6.9375 0,6.9375 28.6875,0 c 32.52792,0 30.85274,0.17445 34.53125,-3.1875 2.45377,-2.2426 3.62619,-4.63852 4.03125,-8.21875 l 0.28125,-2.46875 1.59375,0 1.59375,0 -0.25,2.8125 c -0.39588,4.7221 -3.22475,9.65027 -6.875,11.90625 l -1.40625,0.875 1.34375,0.71875 c 2.05637,1.05498 4.61605,3.78787 5.90625,6.34375 4.18254,8.28556 1.13309,17.58982 -7.09375,21.65625 l -3,1.46875 -31.25,0.125 -31.25,0.125 z m 3.15625,-3.1875 29.46875,-0.125 29.40625,-0.0937 2.125,-0.9375 c 2.42478,-1.0963 4.94724,-3.72437 6.15625,-6.34375 1.28693,-2.7882 1.20042,-7.78876 -0.1875,-10.78125 -1.20858,-2.60579 -3.30066,-4.74705 -5.84375,-6 l -1.84375,-0.90625 -29.625,-0.125 -29.65625,-0.0937 0,12.6875 0,12.71875 z"
       id="path19796"
       inkscape:connector-curvature="0" />
    <path
       style="fill:url(#linearGradient19837);fill-opacity:1"
       d="m 61.9375,947.98532 0,-14.875 0,-14.875 -8.5,0 -8.53125,0 0,-1.59375 0,-1.5625 8.53125,0 8.5,0 0,-6.5625 0,-6.53125 1.59375,0 1.59375,0 0,6.53125 0,6.53125 28.25,0.125 28.28125,0.0937 2.65625,1.34375 c 6.69231,3.29524 10.62748,10.47914 9.4375,17.3125 -1.08832,6.24959 -5.56752,11.47785 -11.40625,13.28125 -2.49404,0.77033 -3.60916,0.7812 -31.46875,0.78125 z m 3.1875,-3.1875 24.875,0 c 27.69754,-0.007 31.32606,-0.22747 34.375,-1.9375 4.06655,-2.28077 6.9878,-7.97409 6.4375,-12.65625 -0.53729,-4.57153 -3.25408,-8.43559 -7.46875,-10.65625 l -2.125,-1.125 -28.03125,-0.0937 -28.0625,-0.0937 0,13.28125 z"
       id="path19798"
       inkscape:connector-curvature="0"
       sodipodi:nodetypes="ccccccccccccccccccssscccsscccccc" />
  </g>
</svg>
