<?xml version="1.0" encoding="UTF-8" standalone="no"?>
<!-- Created with Inkscape (http://www.inkscape.org/) -->

<svg
   xmlns:dc="http://purl.org/dc/elements/1.1/"
   xmlns:cc="http://creativecommons.org/ns#"
   xmlns:rdf="http://www.w3.org/1999/02/22-rdf-syntax-ns#"
   xmlns:svg="http://www.w3.org/2000/svg"
   xmlns="http://www.w3.org/2000/svg"
   xmlns:xlink="http://www.w3.org/1999/xlink"
   xmlns:sodipodi="http://sodipodi.sourceforge.net/DTD/sodipodi-0.dtd"
   xmlns:inkscape="http://www.inkscape.org/namespaces/inkscape"
   version="1.0"
   width="512"
   height="512"
   id="svg2"
   inkscape:version="0.48.2 r9819"
   sodipodi:docname="YouTubeIcon.svg">
  <metadata
     id="metadata3159">
    <rdf:RDF>
      <cc:Work
         rdf:about="">
        <dc:format>image/svg+xml</dc:format>
        <dc:type
           rdf:resource="http://purl.org/dc/dcmitype/StillImage" />
        <dc:title />
      </cc:Work>
    </rdf:RDF>
  </metadata>
  <sodipodi:namedview
     pagecolor="#ffffff"
     bordercolor="#666666"
     borderopacity="1"
     objecttolerance="10"
     gridtolerance="10"
     guidetolerance="10"
     inkscape:pageopacity="0"
     inkscape:pageshadow="2"
     inkscape:window-width="1680"
     inkscape:window-height="1001"
     id="namedview3157"
     showgrid="false"
     inkscape:zoom="1.5322896"
     inkscape:cx="281.4521"
     inkscape:cy="256"
     inkscape:window-x="0"
     inkscape:window-y="0"
     inkscape:window-maximized="0"
     inkscape:current-layer="svg2" />
  <defs
     id="defs4">
    <linearGradient
       id="linearGradient4002">
      <stop
         id="stop4004"
         offset="0"
         style="stop-color:#ffffff;stop-opacity:1;" />
      <stop
         style="stop-color:#ffffff;stop-opacity:0.74901962;"
         offset="0.2"
         id="stop4006" />
      <stop
         id="stop4008"
         offset="0.80000001"
         style="stop-color:#ffffff;stop-opacity:0.74901962;" />
      <stop
         id="stop4010"
         offset="1"
         style="stop-color:#ffffff;stop-opacity:1;" />
    </linearGradient>
    <linearGradient
       id="linearGradient4061">
      <stop
         style="stop-color:#ffffff;stop-opacity:0.87450981;"
         offset="0"
         id="stop4063" />
      <stop
         id="stop3990"
         offset="0.2"
         style="stop-color:#ffffff;stop-opacity:0.49803922;" />
      <stop
         style="stop-color:#ffffff;stop-opacity:0.49803922;"
         offset="0.80000001"
         id="stop3992" />
      <stop
         style="stop-color:#ffffff;stop-opacity:0.87450981;"
         offset="1"
         id="stop4065" />
    </linearGradient>
    <linearGradient
       id="linearGradient14049">
      <stop
         style="stop-color:#000000;stop-opacity:1"
         offset="0"
         id="stop14051" />
      <stop
         style="stop-color:#404040;stop-opacity:1"
         offset="1"
         id="stop14053" />
    </linearGradient>
    <linearGradient
       id="linearGradient14036">
      <stop
         style="stop-color:#000000;stop-opacity:0.50196081"
         offset="0"
         id="stop14038" />
      <stop
         style="stop-color:#000000;stop-opacity:0"
         offset="1"
         id="stop14040" />
    </linearGradient>
    <linearGradient
       id="linearGradient13059">
      <stop
         style="stop-color:#000000;stop-opacity:0.50196081"
         offset="0"
         id="stop13061" />
      <stop
         style="stop-color:#000000;stop-opacity:0"
         offset="1"
         id="stop13063" />
    </linearGradient>
    <linearGradient
       id="linearGradient12082">
      <stop
         style="stop-color:#000000;stop-opacity:0.50196081"
         offset="0"
         id="stop12084" />
      <stop
         style="stop-color:#000000;stop-opacity:0"
         offset="1"
         id="stop12086" />
    </linearGradient>
    <linearGradient
       id="linearGradient12058">
      <stop
         style="stop-color:#000000;stop-opacity:0.50196081"
         offset="0"
         id="stop12060" />
      <stop
         style="stop-color:#000000;stop-opacity:0"
         offset="1"
         id="stop12062" />
    </linearGradient>
    <linearGradient
       id="linearGradient10108">
      <stop
         style="stop-color:#000000;stop-opacity:0.50196081"
         offset="0"
         id="stop10110" />
      <stop
         style="stop-color:#ffffff;stop-opacity:0"
         offset="1"
         id="stop10112" />
    </linearGradient>
    <linearGradient
       id="linearGradient8038">
      <stop
         style="stop-color:#ff0000;stop-opacity:1"
         offset="0"
         id="stop8040" />
      <stop
         style="stop-color:#c00000;stop-opacity:1"
         offset="1"
         id="stop8042" />
    </linearGradient>
    <linearGradient
       id="linearGradient7053">
      <stop
         style="stop-color:#ffffff;stop-opacity:1"
         offset="0"
         id="stop7055" />
      <stop
         style="stop-color:#ffffff;stop-opacity:0"
         offset="1"
         id="stop7057" />
    </linearGradient>
    <linearGradient
       x1="423.16599"
       y1="623.01343"
       x2="413.59689"
       y2="639.58759"
       id="linearGradient7059"
       xlink:href="#linearGradient7053"
       gradientUnits="userSpaceOnUse"
       gradientTransform="matrix(1.63204,0,0,1.63204,-289.132,-505.709)" />
    <linearGradient
       x1="395.26282"
       y1="646.20868"
       x2="395.26282"
       y2="670.38055"
       id="linearGradient8044"
       xlink:href="#linearGradient8038"
       gradientUnits="userSpaceOnUse"
       gradientTransform="matrix(1.63204,0,0,1.63204,-289.132,-505.709)" />
    <linearGradient
       x1="365.53217"
       y1="630.9007"
       x2="365.53217"
       y2="632.00916"
       id="linearGradient12064"
       xlink:href="#linearGradient12058"
       gradientUnits="userSpaceOnUse"
       gradientTransform="matrix(1.63204,0,0,1.63204,-289.132,-505.709)" />
    <linearGradient
       x1="387.01151"
       y1="638.50104"
       x2="387.01151"
       y2="639.5943"
       id="linearGradient12088"
       xlink:href="#linearGradient12082"
       gradientUnits="userSpaceOnUse"
       gradientTransform="matrix(1.63204,0,0,1.63204,-289.132,-505.709)" />
    <linearGradient
       x1="403.69189"
       y1="630.9007"
       x2="403.69189"
       y2="642.89679"
       id="linearGradient13065"
       xlink:href="#linearGradient13059"
       gradientUnits="userSpaceOnUse"
       gradientTransform="matrix(1.63204,0,0,1.63204,-289.132,-505.709)" />
    <linearGradient
       x1="419.64102"
       y1="637.98547"
       x2="419.64102"
       y2="642.13934"
       id="linearGradient14042"
       xlink:href="#linearGradient14036"
       gradientUnits="userSpaceOnUse"
       gradientTransform="matrix(1.63204,0,0,1.63204,-289.132,-505.709)" />
    <linearGradient
       x1="205.41145"
       y1="646.99188"
       x2="205.41145"
       y2="615.11768"
       id="linearGradient14055"
       xlink:href="#linearGradient14049"
       gradientUnits="userSpaceOnUse" />
    <linearGradient
       x1="205.41145"
       y1="646.99188"
       x2="205.41145"
       y2="615.11768"
       id="linearGradient14057"
       xlink:href="#linearGradient14049"
       gradientUnits="userSpaceOnUse" />
    <linearGradient
       x1="205.41145"
       y1="646.99188"
       x2="205.41145"
       y2="615.11768"
       id="linearGradient14059"
       xlink:href="#linearGradient14049"
       gradientUnits="userSpaceOnUse" />
    <linearGradient
       x1="205.41145"
       y1="646.99188"
       x2="205.41145"
       y2="615.11768"
       id="linearGradient14061"
       xlink:href="#linearGradient14049"
       gradientUnits="userSpaceOnUse" />
    <linearGradient
       inkscape:collect="always"
       xlink:href="#linearGradient12058"
       id="linearGradient3166"
       gradientUnits="userSpaceOnUse"
       gradientTransform="matrix(1.63204,0,0,1.63204,-503.865,-582.08908)"
       x1="365.53217"
       y1="630.9007"
       x2="365.53217"
       y2="632.00916" />
    <linearGradient
       inkscape:collect="always"
       xlink:href="#linearGradient14036"
       id="linearGradient3169"
       gradientUnits="userSpaceOnUse"
       gradientTransform="matrix(1.63204,0,0,1.63204,-503.865,-582.08908)"
       x1="419.64102"
       y1="637.98547"
       x2="419.64102"
       y2="642.13934" />
    <linearGradient
       inkscape:collect="always"
       xlink:href="#linearGradient13059"
       id="linearGradient3172"
       gradientUnits="userSpaceOnUse"
       gradientTransform="matrix(1.63204,0,0,1.63204,-503.865,-582.08908)"
       x1="403.69189"
       y1="630.9007"
       x2="403.69189"
       y2="642.89679" />
    <linearGradient
       inkscape:collect="always"
       xlink:href="#linearGradient12082"
       id="linearGradient3175"
       gradientUnits="userSpaceOnUse"
       gradientTransform="matrix(1.63204,0,0,1.63204,-503.865,-582.08908)"
       x1="387.01151"
       y1="638.50104"
       x2="387.01151"
       y2="639.5943" />
    <linearGradient
       inkscape:collect="always"
       xlink:href="#linearGradient7053"
       id="linearGradient3178"
       gradientUnits="userSpaceOnUse"
       gradientTransform="matrix(1.63204,0,0,1.63204,-503.865,-582.08908)"
       x1="423.16599"
       y1="623.01343"
       x2="413.59689"
       y2="639.58759" />
    <linearGradient
       inkscape:collect="always"
       xlink:href="#linearGradient8038"
       id="linearGradient3181"
       gradientUnits="userSpaceOnUse"
       gradientTransform="matrix(1.63204,0,0,1.63204,-503.865,-582.08908)"
       x1="395.26282"
       y1="646.20868"
       x2="395.26282"
       y2="670.38055" />
    <linearGradient
       inkscape:collect="always"
       xlink:href="#linearGradient14049"
       id="linearGradient3183"
       gradientUnits="userSpaceOnUse"
       x1="205.41145"
       y1="646.99188"
       x2="205.41145"
       y2="615.11768" />
    <linearGradient
       inkscape:collect="always"
       xlink:href="#linearGradient14049"
       id="linearGradient3185"
       gradientUnits="userSpaceOnUse"
       x1="205.41145"
       y1="646.99188"
       x2="205.41145"
       y2="615.11768" />
    <linearGradient
       inkscape:collect="always"
       xlink:href="#linearGradient14049"
       id="linearGradient3187"
       gradientUnits="userSpaceOnUse"
       x1="205.41145"
       y1="646.99188"
       x2="205.41145"
       y2="615.11768" />
    <linearGradient
       inkscape:collect="always"
       xlink:href="#linearGradient14049"
       id="linearGradient3189"
       gradientUnits="userSpaceOnUse"
       x1="205.41145"
       y1="646.99188"
       x2="205.41145"
       y2="615.11768" />
    <linearGradient
       inkscape:collect="always"
       xlink:href="#linearGradient8038"
       id="linearGradient3973"
       gradientUnits="userSpaceOnUse"
       gradientTransform="matrix(1.63204,0,0,1.63204,-503.865,-582.08908)"
       x1="395.26282"
       y1="646.20868"
       x2="395.26282"
       y2="670.38055" />
    <linearGradient
       inkscape:collect="always"
       xlink:href="#linearGradient7053"
       id="linearGradient3975"
       gradientUnits="userSpaceOnUse"
       gradientTransform="matrix(1.63204,0,0,1.63204,-503.865,-582.08908)"
       x1="423.16599"
       y1="623.01343"
       x2="413.59689"
       y2="639.58759" />
    <linearGradient
       inkscape:collect="always"
       xlink:href="#linearGradient12082"
       id="linearGradient3977"
       gradientUnits="userSpaceOnUse"
       gradientTransform="matrix(1.63204,0,0,1.63204,-503.865,-582.08908)"
       x1="387.01151"
       y1="638.50104"
       x2="387.01151"
       y2="639.5943" />
    <linearGradient
       inkscape:collect="always"
       xlink:href="#linearGradient13059"
       id="linearGradient3979"
       gradientUnits="userSpaceOnUse"
       gradientTransform="matrix(1.63204,0,0,1.63204,-503.865,-582.08908)"
       x1="403.69189"
       y1="630.9007"
       x2="403.69189"
       y2="642.89679" />
    <linearGradient
       inkscape:collect="always"
       xlink:href="#linearGradient14036"
       id="linearGradient3981"
       gradientUnits="userSpaceOnUse"
       gradientTransform="matrix(1.63204,0,0,1.63204,-503.865,-582.08908)"
       x1="419.64102"
       y1="637.98547"
       x2="419.64102"
       y2="642.13934" />
    <linearGradient
       inkscape:collect="always"
       xlink:href="#linearGradient12058"
       id="linearGradient3983"
       gradientUnits="userSpaceOnUse"
       gradientTransform="matrix(1.63204,0,0,1.63204,-503.865,-582.08908)"
       x1="365.53217"
       y1="630.9007"
       x2="365.53217"
       y2="632.00916" />
    <linearGradient
       inkscape:collect="always"
       xlink:href="#linearGradient14049"
       id="linearGradient3985"
       gradientUnits="userSpaceOnUse"
       x1="205.41145"
       y1="646.99188"
       x2="205.41145"
       y2="615.11768" />
    <linearGradient
       inkscape:collect="always"
       xlink:href="#linearGradient14049"
       id="linearGradient3987"
       gradientUnits="userSpaceOnUse"
       x1="205.41145"
       y1="646.99188"
       x2="205.41145"
       y2="615.11768" />
    <linearGradient
       inkscape:collect="always"
       xlink:href="#linearGradient14049"
       id="linearGradient3989"
       gradientUnits="userSpaceOnUse"
       x1="205.41145"
       y1="646.99188"
       x2="205.41145"
       y2="615.11768" />
    <linearGradient
       inkscape:collect="always"
       xlink:href="#linearGradient14049"
       id="linearGradient3991"
       gradientUnits="userSpaceOnUse"
       x1="205.41145"
       y1="646.99188"
       x2="205.41145"
       y2="615.11768" />
    <linearGradient
       inkscape:collect="always"
       xlink:href="#linearGradient12058"
       id="linearGradient3998"
       gradientUnits="userSpaceOnUse"
       gradientTransform="matrix(5.8340992,0,0,5.8340992,-2050.0056,-3415.0727)"
       x1="365.53217"
       y1="630.9007"
       x2="365.53217"
       y2="632.00916" />
    <linearGradient
       inkscape:collect="always"
       xlink:href="#linearGradient14036"
       id="linearGradient4001"
       gradientUnits="userSpaceOnUse"
       gradientTransform="matrix(5.8340992,0,0,5.8340992,-2050.0056,-3415.0727)"
       x1="419.64102"
       y1="637.98547"
       x2="419.64102"
       y2="642.13934" />
    <linearGradient
       inkscape:collect="always"
       xlink:href="#linearGradient13059"
       id="linearGradient4004"
       gradientUnits="userSpaceOnUse"
       gradientTransform="matrix(5.8340992,0,0,5.8340992,-2050.0056,-3415.0727)"
       x1="403.69189"
       y1="630.9007"
       x2="403.69189"
       y2="642.89679" />
    <linearGradient
       inkscape:collect="always"
       xlink:href="#linearGradient12082"
       id="linearGradient4007"
       gradientUnits="userSpaceOnUse"
       gradientTransform="matrix(5.8340992,0,0,5.8340992,-2050.0056,-3415.0727)"
       x1="387.01151"
       y1="638.50104"
       x2="387.01151"
       y2="639.5943" />
    <linearGradient
       inkscape:collect="always"
       xlink:href="#linearGradient7053"
       id="linearGradient4010"
       gradientUnits="userSpaceOnUse"
       gradientTransform="matrix(5.8340992,0,0,5.8340992,-2050.0056,-3415.0727)"
       x1="423.16599"
       y1="623.01343"
       x2="413.59689"
       y2="639.58759" />
    <linearGradient
       inkscape:collect="always"
       xlink:href="#linearGradient8038"
       id="linearGradient4013"
       gradientUnits="userSpaceOnUse"
       gradientTransform="matrix(5.8340992,0,0,5.8340992,-2050.0056,-3415.0727)"
       x1="395.26282"
       y1="646.20868"
       x2="395.26282"
       y2="670.38055" />
    <linearGradient
       inkscape:collect="always"
       xlink:href="#linearGradient12082"
       id="linearGradient4031"
       gradientUnits="userSpaceOnUse"
       gradientTransform="matrix(5.8340992,0,0,5.8340992,-2050.0056,-3415.0727)"
       x1="387.01151"
       y1="638.50104"
       x2="387.01151"
       y2="639.5943" />
    <linearGradient
       inkscape:collect="always"
       xlink:href="#linearGradient13059"
       id="linearGradient4033"
       gradientUnits="userSpaceOnUse"
       gradientTransform="matrix(5.8340992,0,0,5.8340992,-2050.0056,-3415.0727)"
       x1="403.69189"
       y1="630.9007"
       x2="403.69189"
       y2="642.89679" />
    <linearGradient
       inkscape:collect="always"
       xlink:href="#linearGradient14036"
       id="linearGradient4035"
       gradientUnits="userSpaceOnUse"
       gradientTransform="matrix(5.8340992,0,0,5.8340992,-2050.0056,-3415.0727)"
       x1="419.64102"
       y1="637.98547"
       x2="419.64102"
       y2="642.13934" />
    <linearGradient
       inkscape:collect="always"
       xlink:href="#linearGradient12058"
       id="linearGradient4037"
       gradientUnits="userSpaceOnUse"
       gradientTransform="matrix(5.8340992,0,0,5.8340992,-2050.0056,-3415.0727)"
       x1="365.53217"
       y1="630.9007"
       x2="365.53217"
       y2="632.00916" />
    <linearGradient
       inkscape:collect="always"
       xlink:href="#linearGradient12082"
       id="linearGradient4051"
       gradientUnits="userSpaceOnUse"
       gradientTransform="matrix(5.8340992,0,0,5.8340992,-2050.0056,-3415.0727)"
       x1="387.01151"
       y1="638.50104"
       x2="387.01151"
       y2="639.5943" />
    <linearGradient
       inkscape:collect="always"
       xlink:href="#linearGradient13059"
       id="linearGradient4053"
       gradientUnits="userSpaceOnUse"
       gradientTransform="matrix(5.8340992,0,0,5.8340992,-2050.0056,-3415.0727)"
       x1="403.69189"
       y1="630.9007"
       x2="403.69189"
       y2="642.89679" />
    <linearGradient
       inkscape:collect="always"
       xlink:href="#linearGradient14036"
       id="linearGradient4055"
       gradientUnits="userSpaceOnUse"
       gradientTransform="matrix(5.8340992,0,0,5.8340992,-2050.0056,-3415.0727)"
       x1="419.64102"
       y1="637.98547"
       x2="419.64102"
       y2="642.13934" />
    <linearGradient
       inkscape:collect="always"
       xlink:href="#linearGradient12058"
       id="linearGradient4057"
       gradientUnits="userSpaceOnUse"
       gradientTransform="matrix(5.8340992,0,0,5.8340992,-2050.0056,-3415.0727)"
       x1="365.53217"
       y1="630.9007"
       x2="365.53217"
       y2="632.00916" />
    <linearGradient
       inkscape:collect="always"
       xlink:href="#linearGradient4061"
       id="linearGradient4067"
       x1="157.7699"
       y1="3.3409331"
       x2="352.61664"
       y2="509.29535"
       gradientUnits="userSpaceOnUse"
       gradientTransform="matrix(0.99021526,0,0,0.99021526,2.5048924,2.5048924)" />
    <radialGradient
       inkscape:collect="always"
       xlink:href="#linearGradient4002"
       id="radialGradient4000"
       cx="256"
       cy="256"
       fx="256"
       fy="256"
       r="254.00488"
       gradientUnits="userSpaceOnUse" />
  </defs>
  <path
     d="M 255.89045,3.4951077 C 255.87758,3.4949195 52.048614,3.9482797 27.814454,40.056895 3.5360035,76.231637 3.4959691,254.81798 3.4951076,255.83678 c 0,0 0,0.32324 0,0.32644 8.615e-4,1.0188 0.042975,179.27909 24.3193464,215.45345 24.23416,36.10843 228.062036,36.88822 228.075996,36.88822 0.0129,0 203.84185,-0.77979 228.07601,-36.88822 24.34783,-36.27735 24.53843,-215.77611 24.53843,-215.77989 -8.1e-4,-1.01841 -0.2599,-179.605143 -24.53843,-215.779885 C 459.7323,3.9484678 255.90434,3.4949195 255.89045,3.4951077 z"
     style="fill:url(#linearGradient4067);fill-opacity:1;fill-rule:evenodd;stroke:url(#radialGradient4000);stroke-width:3;stroke-opacity:1;stroke-miterlimit:4;stroke-dasharray:none"
     id="path3191"
     inkscape:connector-curvature="0" />
  <path
     style="fill:url(#linearGradient4013);fill-opacity:1;fill-rule:evenodd;stroke:none"
     d="M 255.90625 213.96875 C 255.89555 213.96864 86.291185 214.20871 66.125 234.375 C 45.921959 254.57822 45.875715 354.30601 45.875 354.875 L 45.875 355.0625 C 45.875715 355.63149 45.923678 455.20325 66.125 475.40625 C 86.291185 495.57244 255.89463 496 255.90625 496 C 255.91695 496 425.52131 495.57244 445.6875 475.40625 C 465.94827 455.14573 466.125 354.87711 466.125 354.875 C 466.12432 354.30623 465.89061 254.57822 445.6875 234.375 C 425.52131 214.20882 255.91779 213.96864 255.90625 213.96875 z M 84 267.125 L 128.84375 267.125 L 173.6875 267.125 L 173.6875 280.21875 L 173.6875 293.34375 L 158.0625 293.34375 L 142.46875 293.34375 L 142.46875 369.90625 L 142.46875 446.5 L 128.84375 446.5 L 115.25 446.5 L 115.25 369.90625 L 115.25 293.34375 L 99.625 293.34375 L 84 293.34375 L 84 280.21875 L 84 267.125 z M 268.4375 267.125 L 281.03125 267.125 L 293.625 267.125 L 293.625 295.03125 L 293.625 322.9375 L 296.53125 318.375 C 298.12822 315.85693 300.94517 312.70676 302.8125 311.375 C 305.80394 309.24153 307.30031 308.9375 315.4375 308.9375 C 324.07712 308.9375 324.96342 309.13177 329 311.96875 C 333.84033 315.37064 337.41273 321.48093 339.75 330.34375 C 341.70022 337.73908 342.76919 408.24782 341.09375 419 C 338.87638 433.22931 334.87099 441.48857 327.5625 446.90625 C 323.9878 449.55609 310.95872 450.34631 306.1875 448.1875 C 302.23832 446.40063 297.11377 441.21362 294.65625 436.5625 L 292.6875 432.90625 L 292.65625 439.71875 L 292.625 446.5 L 280.53125 446.5 L 268.4375 446.5 L 268.4375 356.8125 L 268.4375 267.125 z M 397.09375 308.46875 C 403.27144 308.35423 409.72296 308.91528 413.46875 310.125 C 419.71674 312.14305 426.95656 318.22963 429.875 323.9375 C 434.26712 332.52797 434.93514 337.21716 435.4375 362.125 L 435.9375 386.03125 L 411 386.03125 L 386.09375 386.03125 L 386.5625 400.40625 C 387.12613 417.67241 388.35871 421.60375 394.09375 424 C 403.43241 427.90196 409.5 421.39669 409.5 407.5 L 409.5 400.15625 L 422.625 400.15625 L 435.71875 400.15625 L 435.6875 407.46875 C 435.6392 427.58621 427.78965 442.67581 414.8125 447.53125 C 408.09176 450.04575 392.29418 450.2059 385.21875 447.84375 C 373.61078 443.96832 365.9107 433.99729 362.4375 418.28125 C 359.91267 406.85692 359.86875 345.99411 362.375 336.9375 C 366.23735 322.98073 374.47562 312.97349 384.59375 309.96875 C 387.65118 309.0608 392.28888 308.55782 397.09375 308.46875 z M 171.46875 311.46875 L 184.6875 311.46875 L 197.875 311.46875 L 197.90625 361.59375 C 197.93125 413.66621 198.30416 418.99254 202.15625 423.09375 C 205.05753 426.18267 210.8564 426.18267 213.75 423.09375 C 218.4369 418.09035 218.49997 417.59177 218.84375 363.125 L 219.15625 311.46875 L 231.6875 311.46875 L 244.25 311.46875 L 244.25 379 L 244.25 446.5 L 232.15625 446.5 L 220.0625 446.5 L 220.03125 438.1875 L 220 429.875 L 217.96875 434.375 C 212.84442 445.67172 207.1253 449.56156 195.65625 449.5 C 191.61574 449.4786 186.95433 448.85403 185.28125 448.125 C 180.82596 446.18378 176.04594 440.2418 174.09375 434.1875 C 172.5885 429.51965 172.33219 421.83996 171.9375 370.1875 L 171.46875 311.46875 z M 398.4375 332.8125 C 397.20605 332.8125 395.96851 333.06324 394.40625 333.53125 C 388.6583 335.25341 387.11022 338.76418 386.53125 351.53125 L 386.0625 361.84375 L 398.4375 361.84375 L 410.78125 361.84375 L 410.3125 351.53125 C 409.73354 338.76418 408.21681 335.25341 402.46875 333.53125 C 400.90654 333.06324 399.66895 332.8125 398.4375 332.8125 z M 305.71875 333.1875 C 300.66834 333.1875 297.45525 336.21356 295.40625 342.96875 C 293.59494 348.94034 293.62441 408.93207 295.4375 414.96875 C 297.9224 423.24596 303.21352 427.01115 309.1875 424.71875 C 310.0878 424.37343 311.83905 422.22476 313.0625 419.9375 C 315.20608 415.93016 315.31071 414.57718 315.625 382.53125 C 315.80446 364.24036 315.64196 346.86553 315.28125 343.9375 C 314.37541 336.5721 311.36785 333.1875 305.71875 333.1875 z "
     id="path3144" />
  <path
     style="fill:url(#linearGradient4010);fill-opacity:1;fill-rule:evenodd;stroke:none"
     d="M 255.90625 222.4375 C 255.89555 222.4374 93.357374 222.67294 74.03125 241.625 C 54.669665 260.61207 54.625751 354.37151 54.625 354.90625 L 54.625 355.0625 C 54.625751 355.59724 54.669197 449.16948 74.03125 468.15625 C 93.357374 487.10853 255.89502 487.5 255.90625 487.5 C 255.91695 487.5 418.48634 487.10853 437.8125 468.15625 C 457.22943 449.11539 457.375 354.90818 457.375 354.90625 C 457.37432 354.37176 457.17413 260.61206 437.8125 241.625 C 418.48634 222.67279 255.91726 222.43739 255.90625 222.4375 z M 84 267.125 L 128.84375 267.125 L 173.6875 267.125 L 173.6875 280.21875 L 173.6875 293.34375 L 158.0625 293.34375 L 142.46875 293.34375 L 142.46875 369.90625 L 142.46875 446.5 L 128.84375 446.5 L 115.25 446.5 L 115.25 369.90625 L 115.25 293.34375 L 99.625 293.34375 L 84 293.34375 L 84 280.21875 L 84 267.125 z M 268.4375 267.125 L 281.03125 267.125 L 293.625 267.125 L 293.625 295.03125 L 293.625 322.9375 L 296.53125 318.375 C 298.12822 315.85693 300.94517 312.70676 302.8125 311.375 C 305.80394 309.24153 307.30031 308.9375 315.4375 308.9375 C 324.07712 308.9375 324.96342 309.13177 329 311.96875 C 333.84033 315.37064 337.41273 321.48093 339.75 330.34375 C 341.70022 337.73908 342.76919 408.24782 341.09375 419 C 338.87638 433.22931 334.87099 441.48857 327.5625 446.90625 C 323.9878 449.55609 310.95872 450.34631 306.1875 448.1875 C 302.23832 446.40063 297.11377 441.21362 294.65625 436.5625 L 292.6875 432.90625 L 292.65625 439.71875 L 292.625 446.5 L 280.53125 446.5 L 268.4375 446.5 L 268.4375 356.8125 L 268.4375 267.125 z M 397.09375 308.46875 C 403.27144 308.35423 409.72296 308.91528 413.46875 310.125 C 419.71674 312.14305 426.95656 318.22963 429.875 323.9375 C 434.26712 332.52797 434.93514 337.21716 435.4375 362.125 L 435.9375 386.03125 L 411 386.03125 L 386.09375 386.03125 L 386.5625 400.40625 C 387.12613 417.67241 388.35871 421.60375 394.09375 424 C 403.43241 427.90196 409.5 421.39669 409.5 407.5 L 409.5 400.15625 L 422.625 400.15625 L 435.71875 400.15625 L 435.6875 407.46875 C 435.6392 427.58621 427.78965 442.67581 414.8125 447.53125 C 408.09176 450.04575 392.29418 450.2059 385.21875 447.84375 C 373.61078 443.96832 365.9107 433.99729 362.4375 418.28125 C 359.91267 406.85692 359.86875 345.99411 362.375 336.9375 C 366.23735 322.98073 374.47562 312.97349 384.59375 309.96875 C 387.65118 309.0608 392.28888 308.55782 397.09375 308.46875 z M 171.46875 311.46875 L 184.6875 311.46875 L 197.875 311.46875 L 197.90625 361.59375 C 197.93125 413.66621 198.30416 418.99254 202.15625 423.09375 C 205.05753 426.18267 210.8564 426.18267 213.75 423.09375 C 218.4369 418.09035 218.49997 417.59177 218.84375 363.125 L 219.15625 311.46875 L 231.6875 311.46875 L 244.25 311.46875 L 244.25 379 L 244.25 446.5 L 232.15625 446.5 L 220.0625 446.5 L 220.03125 438.1875 L 220 429.875 L 217.96875 434.375 C 212.84442 445.67172 207.1253 449.56156 195.65625 449.5 C 191.61574 449.4786 186.95433 448.85403 185.28125 448.125 C 180.82596 446.18378 176.04594 440.2418 174.09375 434.1875 C 172.5885 429.51965 172.33219 421.83996 171.9375 370.1875 L 171.46875 311.46875 z M 398.4375 332.8125 C 397.20605 332.8125 395.96851 333.06324 394.40625 333.53125 C 388.6583 335.25341 387.11022 338.76418 386.53125 351.53125 L 386.0625 361.84375 L 398.4375 361.84375 L 410.78125 361.84375 L 410.3125 351.53125 C 409.73354 338.76418 408.21681 335.25341 402.46875 333.53125 C 400.90654 333.06324 399.66895 332.8125 398.4375 332.8125 z M 305.71875 333.1875 C 300.66834 333.1875 297.45525 336.21356 295.40625 342.96875 C 293.59494 348.94034 293.62441 408.93207 295.4375 414.96875 C 297.9224 423.24596 303.21352 427.01115 309.1875 424.71875 C 310.0878 424.37343 311.83905 422.22476 313.0625 419.9375 C 315.20608 415.93016 315.31071 414.57718 315.625 382.53125 C 315.80446 364.24036 315.64196 346.86553 315.28125 343.9375 C 314.37541 336.5721 311.36785 333.1875 305.71875 333.1875 z "
     id="path6082" />
  <g
     id="g4015"
     style="fill:#000000;fill-opacity:1;stroke:#000000;stroke-opacity:1" />
  <g
     id="g14044"
     style="fill:url(#linearGradient3991);fill-opacity:1"
     transform="matrix(5.8340992,0,0,5.8340992,-946.80267,-3572.6574)">
    <path
       inkscape:connector-curvature="0"
       id="path9110"
       style="fill:url(#linearGradient3985);fill-opacity:1"
       d="m 202.78524,646.89914 c -2.59277,-0.27245 -4.02936,-1.74665 -4.74624,-4.87046 -0.51841,-2.25907 -0.46121,-12.55188 0.0825,-14.84594 0.38182,-1.61098 0.97909,-2.72706 1.9269,-3.60072 1.10949,-1.02271 2.23591,-1.32382 4.66752,-1.24774 1.69576,0.053 2.00192,0.11459 2.92753,0.58849 1.77187,0.90717 2.62108,2.47182 3.06195,5.64159 0.306,2.20014 0.25432,11.09094 -0.0755,12.99232 -0.33227,1.9153 -1.0945,3.56551 -1.98947,4.30709 -1.10739,0.91762 -3.29481,1.30442 -5.85516,1.03537 z m 2.54205,-4.44179 c 1.04103,-0.43497 1.07949,-0.70821 1.07949,-7.66931 0,-4.79784 -0.055,-6.39682 -0.23789,-6.91409 -0.5902,-1.66945 -2.84962,-1.78345 -3.64356,-0.18385 -0.30869,0.62195 -0.34288,1.17946 -0.39468,6.43722 -0.0609,6.18464 0.0471,7.38018 0.72358,8.00362 0.63398,0.58431 1.5625,0.70686 2.47306,0.32641 z" />
    <path
       inkscape:connector-curvature="0"
       id="path9106"
       style="fill:url(#linearGradient3987);fill-opacity:1"
       d="m 216.00039,646.67385 c -0.77723,-0.33866 -1.60967,-1.37742 -1.95025,-2.43361 -0.26259,-0.81433 -0.30783,-2.15531 -0.37667,-11.16634 l -0.0782,-10.24085 2.30301,0 2.30301,0 0.004,8.74648 c 0.004,9.0843 0.0683,10.00886 0.74029,10.72434 0.50616,0.53887 1.5212,0.53887 2.02599,0 0.81767,-0.87287 0.82492,-0.95864 0.88489,-10.46062 l 0.0569,-9.0102 2.18743,0 2.18743,0 0,11.77918 0,11.77919 -2.1097,0 -2.10971,0 -0.004,-1.45043 -0.004,-1.45041 -0.3566,0.78613 c -0.89396,1.97078 -1.8912,2.646 -3.89204,2.63526 -0.70489,-0.004 -1.52042,-0.11095 -1.81231,-0.23812 z" />
    <path
       inkscape:connector-curvature="0"
       id="path9047"
       style="fill:url(#linearGradient3989);fill-opacity:1"
       d="m 187.3766,639.75987 0,-6.63154 -3.18813,-8.79568 c -1.75346,-4.83762 -3.22634,-8.89668 -3.27307,-9.02012 -0.0671,-0.17725 0.4791,-0.21423 2.59749,-0.17581 l 2.68243,0.0486 1.55531,4.89404 c 0.85542,2.69172 1.66568,5.42116 1.80056,6.06541 0.25666,1.22587 0.30957,1.20545 0.63394,-0.24462 0.10932,-0.48871 0.89667,-3.09947 1.74966,-5.80169 l 1.55091,-4.91314 2.67984,-0.0486 c 2.50625,-0.0455 2.67206,-0.0284 2.55968,0.26371 -0.0661,0.1718 -1.57853,4.27526 -3.36098,9.11881 l -3.24081,8.80646 0,6.53286 0,6.53286 -2.37342,0 -2.37341,0 0,-6.63155 z" />
  </g>
  <g
     style="fill:#ffffff;fill-opacity:0.56078434"
     id="g4021">
    <path
       inkscape:connector-curvature="0"
       id="path4023"
       style="fill:#ffffff;fill-opacity:0.56078434;stroke:url(#linearGradient4031);stroke-width:2.91705489000000018;stroke-miterlimit:4;stroke-opacity:1;stroke-dasharray:none"
       d="m 185.268,448.12892 c -4.45529,-1.94122 -9.22691,-7.89546 -11.1791,-13.94976 -1.50525,-4.66785 -1.76445,-12.35455 -2.15914,-64.00701 l -0.44848,-58.70211 13.20118,0 13.20126,0 0.025,50.1362 c 0.025,52.07246 0.39147,57.37221 4.24356,61.47342 2.90128,3.08892 8.71958,3.08892 11.61318,0 4.6869,-5.0034 4.72858,-5.49511 5.07236,-59.96188 l 0.32602,-51.64774 12.53861,0 12.53875,0 0,67.52003 0,67.51997 -12.0932,0 -12.09316,0 -0.0214,-8.31403 -0.0215,-8.31407 -2.04403,4.50637 c -5.12433,11.29672 -10.84072,15.16718 -22.30977,15.10562 -4.04051,-0.0214 -8.71529,-0.63598 -10.38837,-1.36501 z" />
    <path
       inkscape:connector-curvature="0"
       id="path4025"
       style="fill:#ffffff;fill-opacity:0.56078434;stroke:url(#linearGradient4033);stroke-width:2.91705489000000018;stroke-miterlimit:4;stroke-opacity:1;stroke-dasharray:none"
       d="m 306.18379,448.17379 c -3.94918,-1.78687 -9.08525,-6.94802 -11.54277,-11.59914 l -1.93871,-3.66935 -0.0443,6.80246 -0.0447,6.80228 -12.09306,0 -12.09313,0 0,-89.69065 0,-89.69075 12.59695,0 12.59702,0 0,27.91073 0,27.91069 2.90347,-4.57826 c 1.59697,-2.51807 4.43123,-5.66795 6.29856,-6.99971 2.99144,-2.13347 4.49279,-2.42134 12.62998,-2.42134 8.63962,0 9.51314,0.19553 13.54972,3.03251 4.84033,3.40189 8.41248,9.50599 10.74975,18.36881 1.95022,7.39533 3.01764,77.90666 1.3422,88.65884 -2.21737,14.22931 -6.22121,22.48732 -13.5297,27.905 -3.5747,2.64984 -16.60991,3.41669 -21.38113,1.25788 z m 3.01803,-23.45494 c 0.9003,-0.34532 2.63801,-2.49955 3.86146,-4.78681 2.14358,-4.00734 2.23638,-5.36885 2.55067,-37.41478 0.17946,-18.29089 0.0322,-35.65173 -0.32851,-38.57976 -0.90584,-7.3654 -3.92227,-10.75471 -9.57137,-10.75471 -5.05041,0 -8.24601,3.04067 -10.29501,9.79586 -1.81131,5.97159 -1.80609,65.95638 0.007,71.99306 2.4849,8.27721 7.80263,12.03954 13.77661,9.74714 z" />
    <path
       inkscape:connector-curvature="0"
       id="path4027"
       style="fill:#ffffff;fill-opacity:0.56078434;stroke:url(#linearGradient4035);stroke-width:2.91705489000000018;stroke-miterlimit:4;stroke-opacity:1;stroke-dasharray:none"
       d="m 385.20505,447.8541 c -11.60797,-3.87543 -19.28252,-13.84535 -22.75572,-29.56139 -2.52483,-11.42433 -2.57985,-72.30453 -0.0736,-81.36114 3.86235,-13.95677 12.10624,-23.95836 22.22437,-26.9631 6.98841,-2.07531 22.21997,-1.99119 28.87915,0.15943 6.24799,2.01805 13.46676,8.1022 16.3852,13.81007 4.39212,8.59047 5.07511,13.26432 5.57747,38.17216 l 0.48284,23.93438 -24.92186,0 -24.9219,0 0.46886,14.36061 c 0.56363,17.26616 1.81986,21.18756 7.5549,23.58381 9.33866,3.90196 15.40858,-2.59443 15.40858,-16.49112 l 0,-7.34474 13.10092,0 13.10084,0 -0.0179,7.30635 c -0.0483,20.11746 -7.92157,35.21272 -20.89872,40.06816 -6.72074,2.5145 -22.51857,2.68888 -29.594,0.32673 z m 25.11192,-96.32548 c -0.57896,-12.76707 -2.11573,-16.28646 -7.86379,-18.00862 -3.12442,-0.93601 -4.92573,-0.93601 -8.05025,0 -5.74795,1.72216 -7.28483,5.24155 -7.8638,18.00862 l -0.46832,10.32953 12.3573,0 12.3573,0 -0.46844,-10.32953 z" />
    <path
       inkscape:connector-curvature="0"
       id="path4029"
       style="fill:#ffffff;fill-opacity:0.56078434;stroke:url(#linearGradient4037);stroke-width:2.91705489000000018;stroke-miterlimit:4;stroke-opacity:1;stroke-dasharray:none"
       d="m 115.24733,369.92031 0,-76.58991 -15.62027,0 -15.620311,0 0,-13.10084 0,-13.10092 44.845391,0 44.84536,0 0,13.10092 0,13.10084 -15.62031,0 -15.62031,0 0,76.58991 0,76.58973 -13.60474,0 -13.60481,0 0,-76.58973 z" />
  </g>
  <g
     id="g4041"
     style="fill:#ffffff;fill-opacity:0.49803922" />
</svg>
