<?xml version="1.0" encoding="UTF-8" standalone="no"?>
<!-- Created with Inkscape (http://www.inkscape.org/) -->

<svg
   xmlns:dc="http://purl.org/dc/elements/1.1/"
   xmlns:cc="http://creativecommons.org/ns#"
   xmlns:rdf="http://www.w3.org/1999/02/22-rdf-syntax-ns#"
   xmlns:svg="http://www.w3.org/2000/svg"
   xmlns="http://www.w3.org/2000/svg"
   xmlns:sodipodi="http://sodipodi.sourceforge.net/DTD/sodipodi-0.dtd"
   xmlns:inkscape="http://www.inkscape.org/namespaces/inkscape"
   version="1.1"
   width="512"
   height="512"
   id="svg3862"
   inkscape:version="0.48.2 r9819"
   sodipodi:docname="daum_communication.svg"
   inkscape:export-filename="/Users/axolotl/Pictures/FLUID LOGOS/daum_communication.png"
   inkscape:export-xdpi="90"
   inkscape:export-ydpi="90">
  <metadata
     id="metadata14123">
    <rdf:RDF>
      <cc:Work
         rdf:about="">
        <dc:format>image/svg+xml</dc:format>
        <dc:type
           rdf:resource="http://purl.org/dc/dcmitype/StillImage" />
        <dc:title />
      </cc:Work>
    </rdf:RDF>
  </metadata>
  <sodipodi:namedview
     pagecolor="#ffffff"
     bordercolor="#666666"
     borderopacity="1"
     objecttolerance="10"
     gridtolerance="10"
     guidetolerance="10"
     inkscape:pageopacity="0"
     inkscape:pageshadow="2"
     inkscape:window-width="1152"
     inkscape:window-height="854"
     id="namedview14121"
     showgrid="false"
     inkscape:zoom="1.1269531"
     inkscape:cx="256"
     inkscape:cy="256"
     inkscape:window-x="0"
     inkscape:window-y="0"
     inkscape:window-maximized="0"
     inkscape:current-layer="svg3862" />
  <defs
     id="defs3864">
    <filter
       inkscape:collect="always"
       id="filter14665">
      <feGaussianBlur
         inkscape:collect="always"
         stdDeviation="1.0587012"
         id="feGaussianBlur14667" />
    </filter>
  </defs>
  <path
     d="m 19.2875,488.63245 -6.2025,0 0,-16.08625 6.2025,0 c 4.61875,0 8.38125,3.60875 8.38125,8.0475 0,4.43125 -3.7625,8.03875 -8.38125,8.03875 m 20.66125,-13.54 C 37.435,466.3987 29.13625,459.98495 19.2875,459.98495 l -19.2875,0 0,41.21 19.2875,0 c 4.895,0 9.3925,-1.59875 13.01,-4.25625 -0.42,-1.57875 -0.66625,-3.22 -0.66625,-4.92375 l 0,-0.97875 c 0,-6.51625 3.27625,-12.28875 8.3175,-15.94375"
     id="path14143"
     style="fill:#000000;fill-opacity:0.49803922000000000;fill-rule:nonzero;stroke:none;filter:url(#filter14665)"
     inkscape:connector-curvature="0"
     transform="matrix(2.9755342,0,0,2.9755342,32.000006,-1168.9533)" />
  <path
     d="m 40.7475,480.5937 c 0,-1.90875 -0.2925,-3.74875 -0.79875,-5.50125 -5.03875,3.655 -8.3175,9.4275 -8.3175,15.9425 l 0,0.97875 c 0,1.70375 0.24625,3.3475 0.66375,4.9275 5.13,-3.76875 8.4525,-9.68625 8.4525,-16.3475"
     id="path14145"
     style="fill:#cccccc;fill-opacity:0.49803922;fill-rule:nonzero;stroke:none;filter:url(#filter14665)"
     inkscape:connector-curvature="0"
     transform="matrix(2.9755342,0,0,2.9755342,32.000006,-1168.9533)" />
  <path
     d="m 60.19125,492.0162 c 0,4.09375 -3.47375,7.42375 -7.73875,7.42375 -4.26625,0 -7.7375,-3.33 -7.7375,-7.42375 l 0,-0.98 c 0,-4.09125 3.47125,-7.42375 7.7375,-7.42375 4.265,0 7.73875,3.3325 7.73875,7.42375 l 0,0.98 z m -0.65375,-19.76 c -0.1275,-0.045 -0.25125,-0.0925 -0.385,-0.135 -0.0363,-0.0113 -0.0763,-0.0225 -0.10875,-0.0362 -0.0937,-0.03 -0.18625,-0.0625 -0.27875,-0.09 -1.995,-0.61125 -4.11125,-0.94625 -6.3125,-0.94625 -4.69375,0 -9.01625,1.52 -12.5025,4.04375 0.5075,1.7525 0.7975,3.595 0.7975,5.50125 0,6.66125 -3.3225,12.57875 -8.44875,16.34625 2.2925,8.64125 10.44625,15.06 20.15375,15.06 4.5525,0 8.75375,-1.42375 12.18375,-3.81375 1.9625,1.7025 4.73125,2.8025 8.63875,3.365 l 0,-19.12875 0,-0.40625 0,-0.55125 0,-0.42875 c 0,-0.255 -0.0325,-0.5 -0.0412,-0.75 0,-0.0288 -0.002,-0.0562 -0.005,-0.0813 l 0,-0.0325 c 0,-0.0412 -0.009,-0.0813 -0.01,-0.11875 -7.865,-2.435 -13.5925,-9.47125 -13.68125,-17.7975"
     id="path14147"
     style="fill:#000000;fill-opacity:0.49803922000000000;fill-rule:nonzero;stroke:none;filter:url(#filter14665)"
     inkscape:connector-curvature="0"
     transform="matrix(2.9755342,0,0,2.9755342,32.000006,-1168.9533)" />
  <path
     d="m 98.67,464.19495 c 0.005,-0.001 0.009,-0.007 0.0138,-0.009 0.006,-0.006 0.0112,-0.01 0.02,-0.015 0.0863,-0.0613 0.17375,-0.1225 0.255,-0.18625 l 0,-13.16375 -13.08,0 0,21.24125 c 0,3.5125 -2.97625,6.3625 -6.63125,6.3625 -3.65875,0 -6.62875,-2.85 -6.62875,-6.3625 l 0,-21.24125 -13.085,0 0,21.24125 0,0.0225 0,0.0375 c 0,0.045 0.002,0.0888 0.002,0.1325 7.69125,2.68375 13.265,9.59375 13.68375,17.7975 0.1325,0.04 0.2575,0.08 0.38875,0.11875 0.0362,0.0125 0.0763,0.02 0.11625,0.0337 0.0913,0.0275 0.18,0.0562 0.2775,0.08 1.67125,0.4425 3.4275,0.7025 5.245,0.7025 4.50125,0 8.64875,-1.475 11.97,-3.9275 0.1325,-0.095 0.2575,-0.19875 0.39,-0.3 l 0,-8.8725 c 0,-5.5725 2.77375,-10.53 7.0625,-13.6925"
     id="path14149"
     style="fill:#000000;fill-opacity:0.49803922000000000;fill-rule:nonzero;stroke:none;filter:url(#filter14665)"
     inkscape:connector-curvature="0"
     transform="matrix(2.9755342,0,0,2.9755342,32.000006,-1168.9533)" />
  <path
     d="m 132.56625,460.60745 c -4.35875,0 -8.3625,1.5025 -11.48125,3.98625 -3.12,-2.48375 -7.11875,-3.98625 -11.4775,-3.98625 -3.8275,0 -7.36625,1.1625 -10.285,3.1175 -0.1225,0.0863 -0.24,0.175 -0.365,0.26 l 0,8.075 c 0,5.82125 -2.765,11.02125 -7.08375,14.49125 -0.002,0.004 -0.005,0.004 -0.0113,0.006 -0.0825,0.0675 -0.16875,0.135 -0.25625,0.2025 l 0,14.4375 13.0425,0 0,-23.31 c 0,-2.62375 2.22375,-4.75125 4.95875,-4.75125 2.73125,0 4.9575,2.1275 4.9575,4.75125 l 0,23.31 13.0425,0 0,-23.31 c 0,-2.62375 2.22125,-4.75125 4.95875,-4.75125 2.73125,0 4.9575,2.1275 4.9575,4.75125 l 0,23.31 13.0375,0 0,-23.31 c 0,-9.525 -8.07,-17.28 -17.995,-17.28"
     id="path14151"
     style="fill:#000000;fill-opacity:0.49803922000000000;fill-rule:nonzero;stroke:none;filter:url(#filter14665)"
     inkscape:connector-curvature="0"
     transform="matrix(2.9755342,0,0,2.9755342,32.000006,-1168.9533)" />
  <path
     d="m 91.875,486.5512 c 4.3175,-3.47 7.085,-8.67 7.085,-14.49 l 0,-8.07375 c -0.0825,0.0625 -0.1725,0.12 -0.255,0.1825 -0.0112,0.005 -0.0162,0.01 -0.0225,0.0175 -0.005,0 -0.009,0.007 -0.0125,0.01 -4.2875,3.16 -7.06375,8.11875 -7.06375,13.6925 l 0,8.87 c 0.0863,-0.0675 0.1725,-0.1325 0.255,-0.2025 0.007,-0.002 0.01,-0.002 0.0138,-0.006"
     id="path14153"
     style="fill:#cccccc;fill-opacity:0.49803922;fill-rule:nonzero;stroke:none;filter:url(#filter14665)"
     inkscape:connector-curvature="0"
     transform="matrix(2.9755342,0,0,2.9755342,32.000006,-1168.9533)" />
  <path
     d="m 59.53625,472.2562 c 0.09,8.32625 5.8175,15.3625 13.68125,17.7975 -0.4175,-8.20375 -5.98875,-15.115 -13.68125,-17.7975"
     id="path14155"
     style="fill:#cccccc;fill-opacity:0.49803922;fill-rule:nonzero;stroke:none;filter:url(#filter14665)"
     inkscape:connector-curvature="0"
     transform="matrix(2.9755342,0,0,2.9755342,32.000006,-1168.9533)" />
  <path
     inkscape:connector-curvature="0"
     style="fill:#5ea8e0;fill-opacity:0.87450981;fill-rule:nonzero;stroke:none"
     id="path2896"
     d="m 77.489949,271.52423 -19.774019,0 0,-51.28413 19.774019,0 c 14.72491,0 26.720031,11.50495 26.720031,25.65601 0,14.12715 -11.995121,25.62812 -26.720031,25.62812 m 65.869561,-43.1665 c -8.01402,-27.71631 -34.47103,-48.16381 -65.869561,-48.16381 l -61.489946,0 0,131.38047 61.489946,0 c 15.605615,0 29.943971,-5.09693 41.476821,-13.56924 -1.33899,-5.03317 -2.12405,-10.26559 -2.12405,-15.69727 l 0,-3.12032 c 0,-20.77428 10.44492,-39.17743 26.51679,-50.82983" />
  <path
     inkscape:connector-curvature="0"
     style="fill:#2d71c1;fill-opacity:1;fill-rule:nonzero;stroke:none"
     id="path2898"
     d="m 145.90598,245.89611 c 0,-6.08523 -0.93251,-11.95129 -2.54647,-17.53838 -16.0639,11.6524 -26.51679,30.05555 -26.51679,50.82584 l 0,3.12033 c 0,5.43168 0.78506,10.67207 2.11608,15.70922 16.35481,-12.01504 26.94718,-30.88046 26.94718,-52.11701" />
  <path
     inkscape:connector-curvature="0"
     style="fill:#a6d71c;fill-opacity:0.87450981;fill-rule:nonzero;stroke:none"
     id="path2900"
     d="m 207.89407,282.31187 c 0,13.05117 -11.07457,23.66745 -24.6717,23.66745 -13.60111,0 -24.66771,-10.61628 -24.66771,-23.66745 l 0,-3.12431 c 0,-13.0432 11.0666,-23.66746 24.66771,-23.66746 13.59713,0 24.6717,10.62426 24.6717,23.66746 l 0,3.12431 z m -2.08421,-62.99631 c -0.40648,-0.14347 -0.801,-0.2949 -1.2274,-0.43039 -0.11573,-0.036 -0.24325,-0.0717 -0.34671,-0.11541 -0.29872,-0.0956 -0.59378,-0.19926 -0.88867,-0.28693 -6.36021,-1.94871 -13.10697,-3.01671 -20.12471,-3.01671 -14.96401,0 -28.74446,4.84587 -39.85887,12.89177 1.61794,5.58709 2.54248,11.46112 2.54248,17.53838 0,21.23655 -10.59237,40.10197 -26.93522,52.11303 7.30865,27.54893 33.3034,48.01237 64.25161,48.01237 14.5137,0 27.90759,-4.53902 38.84268,-12.15851 6.25659,5.42769 15.08357,8.93457 27.54096,10.72786 l 0,-60.98384 0,-1.29515 0,-1.75743 0,-1.36688 c 0,-0.81296 -0.10361,-1.59404 -0.13135,-2.39106 0,-0.0918 -0.006,-0.17917 -0.0159,-0.25919 l 0,-0.10361 c 0,-0.13135 -0.0287,-0.25919 -0.0319,-0.37858 -25.07419,-7.76296 -43.33388,-30.19504 -43.61682,-56.73972" />
  <path
     inkscape:connector-curvature="0"
     style="fill:#fab812;fill-opacity:0.87450981;fill-rule:nonzero;stroke:none"
     id="path2902"
     d="m 330.56711,193.61571 c 0.0159,-0.003 0.0287,-0.0223 0.044,-0.0287 0.0191,-0.0191 0.0357,-0.0319 0.0638,-0.0478 0.27513,-0.19542 0.55393,-0.39053 0.81296,-0.59377 l 0,-41.96699 -41.69998,0 0,67.71864 c 0,11.19811 -9.48851,20.28411 -21.14091,20.28411 -11.66436,0 -21.13293,-9.086 -21.13293,-20.28411 l 0,-67.71864 -41.71593,0 0,67.71864 0,0.0717 0,0.11956 c 0,0.14346 0.006,0.2831 0.006,0.42241 24.52027,8.55599 42.28978,30.58557 43.62479,56.73972 0.42242,0.12753 0.82093,0.25505 1.23936,0.37859 0.11541,0.0399 0.24325,0.0638 0.37062,0.10744 0.29107,0.0877 0.57385,0.17916 0.88469,0.25504 5.32806,1.41072 10.92711,2.23962 16.72144,2.23962 14.35031,0 27.57284,-4.70241 38.16122,-12.52115 0.42242,-0.30287 0.82093,-0.63363 1.24335,-0.95642 l 0,-28.28618 c 0,-17.76553 8.84292,-33.5704 22.51576,-43.65268" />
  <path
     inkscape:connector-curvature="0"
     style="fill:#f46855;fill-opacity:0.87450981;fill-rule:nonzero;stroke:none"
     id="path2904"
     d="m 438.63081,182.1785 c -13.89601,0 -26.66026,4.79008 -36.60306,12.70845 -9.94679,-7.91837 -22.69509,-12.70845 -36.5911,-12.70845 -12.20235,0 -23.48414,3.70613 -32.78933,9.93881 -0.39053,0.27513 -0.76513,0.55792 -1.16364,0.8289 l 0,25.74369 c 0,18.55856 -8.81502,35.13654 -22.58351,46.19915 -0.006,0.0127 -0.0159,0.0127 -0.036,0.0191 -0.26301,0.2152 -0.53798,0.43039 -0.81694,0.64559 l 0,46.02779 41.58044,0 0,-74.31397 c 0,-8.3647 7.08947,-15.14733 15.80885,-15.14733 8.70742,0 15.80487,6.78263 15.80487,15.14733 l 0,74.31397 41.58043,0 0,-74.31397 c 0,-8.3647 7.08151,-15.14733 15.80886,-15.14733 8.70742,0 15.80487,6.78263 15.80487,15.14733 l 0,74.31397 41.56449,0 0,-74.31397 c 0,-30.36639 -25.72775,-55.08989 -57.36936,-55.08989" />
  <path
     inkscape:connector-curvature="0"
     style="fill:#ea3a1e;fill-opacity:1;fill-rule:nonzero;stroke:none"
     id="path2906"
     d="m 308.90415,264.88905 c 13.76451,-11.06261 22.5875,-27.64059 22.5875,-46.19517 l 0,-25.7397 c -0.26302,0.19926 -0.54994,0.38257 -0.81296,0.58183 -0.0357,0.0159 -0.0516,0.0319 -0.0717,0.0558 -0.0159,0 -0.0287,0.0223 -0.0399,0.0319 -13.66886,10.07431 -22.51975,25.88316 -22.51975,43.65268 l 0,28.2782 c 0.27513,-0.21519 0.54994,-0.42242 0.81296,-0.64558 0.0223,-0.006 0.0319,-0.006 0.044,-0.0191" />
  <path
     inkscape:connector-curvature="0"
     style="fill:#609f20;fill-opacity:1;fill-rule:nonzero;stroke:none"
     id="path2908"
     d="m 205.80588,219.31556 c 0.28692,26.54468 18.54661,48.97676 43.61681,56.73972 -1.33102,-26.15415 -19.09256,-48.18772 -43.61681,-56.73972" />
</svg>
