<?xml version="1.0" encoding="UTF-8" standalone="no"?>
<!-- Created with Inkscape (http://www.inkscape.org/) -->

<svg
   xmlns:dc="http://purl.org/dc/elements/1.1/"
   xmlns:cc="http://creativecommons.org/ns#"
   xmlns:rdf="http://www.w3.org/1999/02/22-rdf-syntax-ns#"
   xmlns:svg="http://www.w3.org/2000/svg"
   xmlns="http://www.w3.org/2000/svg"
   xmlns:xlink="http://www.w3.org/1999/xlink"
   xmlns:sodipodi="http://sodipodi.sourceforge.net/DTD/sodipodi-0.dtd"
   xmlns:inkscape="http://www.inkscape.org/namespaces/inkscape"
   width="512"
   height="512"
   id="svg2"
   version="1.1"
   inkscape:version="0.48.2 r9819"
   sodipodi:docname="TED_badge.svg"
   inkscape:export-filename="/Users/axolotl/Pictures/FLUID LOGOS/TED_badge.png"
   inkscape:export-xdpi="90"
   inkscape:export-ydpi="90">
  <defs
     id="defs4"><linearGradient
   id="linearGradient4063">
  <stop
     id="stop4065"
     offset="0"
     style="stop-color:#ff0000;stop-opacity:0.05882353;" />
  <stop
     id="stop4067"
     offset="1"
     style="stop-color:#978787;stop-opacity:0.05882353;" />
</linearGradient>
<linearGradient
   id="linearGradient4036">
  <stop
     id="stop4038"
     offset="0"
     style="stop-color:#ffffff;stop-opacity:0.81176472;" />
  <stop
     id="stop4040"
     offset="1"
     style="stop-color:#9f9f9f;stop-opacity:0.81176472;" />
</linearGradient>
<linearGradient
   id="linearGradient4028">
  <stop
     id="stop4030"
     offset="0"
     style="stop-color:#000000;stop-opacity:1;" />
  <stop
     id="stop4032"
     offset="1"
     style="stop-color:#000000;stop-opacity:0.81176472;" />
</linearGradient>
<linearGradient
   id="linearGradient4006">
  <stop
     style="stop-color:#ffffff;stop-opacity:0.81176472;"
     offset="0"
     id="stop4008" />
  <stop
     style="stop-color:#978787;stop-opacity:0.81176472;"
     offset="1"
     id="stop4010" />
</linearGradient>
<linearGradient
   inkscape:collect="always"
   xlink:href="#linearGradient4006"
   id="linearGradient4012"
   x1="430.60736"
   y1="378.24963"
   x2="76.073143"
   y2="131.09065"
   gradientUnits="userSpaceOnUse" />
<radialGradient
   inkscape:collect="always"
   xlink:href="#linearGradient4036"
   id="radialGradient4034"
   cx="437.19211"
   cy="387.76666"
   fx="437.19211"
   fy="387.76666"
   r="240.7065"
   gradientTransform="matrix(0.53687548,-0.80870312,1.5714286,0.95856349,-384.40523,368.37693)"
   gradientUnits="userSpaceOnUse" />
<linearGradient
   inkscape:collect="always"
   xlink:href="#linearGradient4063"
   id="linearGradient4069"
   gradientUnits="userSpaceOnUse"
   x1="59.957951"
   y1="115.64321"
   x2="446.72256"
   y2="393.69705" />
<filter
   inkscape:collect="always"
   id="filter4085">
  <feGaussianBlur
     inkscape:collect="always"
     stdDeviation="6.4808349"
     id="feGaussianBlur4087" />
</filter>

	
	
	
	
	
	
	
	
	
	
	
	
	
	
	
	
	
	
	

	
</defs>
  <sodipodi:namedview
     id="base"
     pagecolor="#ffffff"
     bordercolor="#666666"
     borderopacity="1.0"
     inkscape:pageopacity="0.0"
     inkscape:pageshadow="2"
     inkscape:zoom="1.5039062"
     inkscape:cx="260.88231"
     inkscape:cy="256"
     inkscape:document-units="px"
     inkscape:current-layer="layer1"
     showgrid="false"
     inkscape:window-width="1554"
     inkscape:window-height="988"
     inkscape:window-x="4"
     inkscape:window-y="0"
     inkscape:window-maximized="0">
    <inkscape:grid
       type="xygrid"
       id="grid4014"
       empspacing="5"
       visible="true"
       enabled="true"
       snapvisiblegridlinesonly="true"
       spacingx="16px"
       spacingy="16px"
       originx="16px"
       originy="16px" />
  </sodipodi:namedview>
  <metadata
     id="metadata7">
    <rdf:RDF>
      <cc:Work
         rdf:about="">
        <dc:format>image/svg+xml</dc:format>
        <dc:type
           rdf:resource="http://purl.org/dc/dcmitype/StillImage" />
        <dc:title></dc:title>
      </cc:Work>
    </rdf:RDF>
  </metadata>
  <g
     inkscape:label="Ebene 1"
     inkscape:groupmode="layer"
     id="layer1"
     transform="translate(0,-540.36218)">
    <path
       sodipodi:type="arc"
       style="fill:#000000;fill-opacity:0.49803922;fill-rule:nonzero;stroke:none;stroke-width:15.77778174000000000;stroke-linecap:round;stroke-linejoin:round;stroke-miterlimit:4;stroke-opacity:0.81176472000000000;stroke-dasharray:none;filter:url(#filter4085)"
       id="path4071"
       sodipodi:cx="253.34026"
       sodipodi:cy="254.67014"
       sodipodi:rx="240.7065"
       sodipodi:ry="230.73247"
       d="m 494.04675,254.67014 a 240.7065,230.73247 0 1 1 -481.412991,0 240.7065,230.73247 0 1 1 481.412991,0 z"
       transform="matrix(0.99285196,0,0,1.0357706,4.4706305,532.58234)" />
    <path
       sodipodi:type="arc"
       style="fill:url(#linearGradient4012);fill-opacity:1;fill-rule:nonzero;stroke:#9f9f9f;stroke-width:15.77778174000000000;stroke-linecap:round;stroke-linejoin:round;stroke-miterlimit:4;stroke-opacity:0.81176472000000000;stroke-dasharray:none"
       id="path3236"
       sodipodi:cx="253.34026"
       sodipodi:cy="254.67014"
       sodipodi:rx="240.7065"
       sodipodi:ry="230.73247"
       d="m 494.04675,254.67014 a 240.7065,230.73247 0 1 1 -481.412991,0 240.7065,230.73247 0 1 1 481.412991,0 z"
       transform="matrix(0.99285196,0,0,1.0357706,4.4706305,532.58234)" />
    <path
       transform="matrix(0.9305939,0,0,0.97082133,20.243101,549.12298)"
       d="m 494.04675,254.67014 a 240.7065,230.73247 0 1 1 -481.412991,0 240.7065,230.73247 0 1 1 481.412991,0 z"
       sodipodi:ry="230.73247"
       sodipodi:rx="240.7065"
       sodipodi:cy="254.67014"
       sodipodi:cx="253.34026"
       id="path4016"
       style="fill:url(#radialGradient4034);fill-opacity:1;fill-rule:nonzero;stroke:none"
       sodipodi:type="arc" />
    <g
       id="g3103"
       transform="translate(118.2505,685.57307)"
       style="stroke:#7f0000;stroke-opacity:0.68627453;stroke-width:1.50000000000000000;stroke-miterlimit:4;stroke-dasharray:none;fill:#ff2b06;fill-opacity:1">
		<path
   id="path3105"
   d="M 27.898,25.514 H 0 V 0 H 86.435 V 25.514 H 58.548 V 99.546 H 27.898 V 25.514 z"
   inkscape:connector-curvature="0"
   style="fill:#ff2b06;stroke:#7f0000;stroke-opacity:0.68627453;stroke-width:1.50000000000000000;stroke-miterlimit:4;stroke-dasharray:none;fill-opacity:1" />

		<path
   id="path3107"
   d="m 91.199,0 h 83.906 v 25.514 h -53.236 v 12.405 h 53.236 v 23.709 h -53.236 v 12.405 h 53.25 V 99.546 H 91.199 V 0 z"
   inkscape:connector-curvature="0"
   style="fill:#ff2b06;stroke:#7f0000;stroke-opacity:0.68627453;stroke-width:1.50000000000000000;stroke-miterlimit:4;stroke-dasharray:none;fill-opacity:1" />

		<path
   id="path3109"
   d="m 180.267,0 h 50.331 c 33.176,0 44.901,24.539 44.901,49.627 0,30.542 -16.172,49.919 -50.89,49.919 H 180.268 V 0 z m 30.669,74.033 h 11.995 c 19.105,0 21.899,-15.48 21.899,-24.832 0,-6.262 -1.962,-23.687 -24.132,-23.687 h -9.761 v 48.519 z"
   inkscape:connector-curvature="0"
   style="fill:#ff2b06;stroke:#7f0000;stroke-opacity:0.68627453;stroke-width:1.50000000000000000;stroke-miterlimit:4;stroke-dasharray:none;fill-opacity:1" />

	</g>
    <g
       id="g4148">
      <path
         inkscape:connector-curvature="0"
         d="m 121.8675,801.045 h 2.4 v 38.958 h -2.4 v -38.958 z"
         id="path3113" />
      <path
         inkscape:connector-curvature="0"
         d="m 153.5685,834.001 h -0.109 c -2.292,4.419 -5.729,6.656 -10.748,6.656 -8.457,0 -12.113,-6.875 -12.113,-14.623 0,-8.293 4.038,-14.731 12.494,-14.731 4.584,0 8.895,2.51 10.367,6.929 h 0.109 v -17.187 h 2.074 v 38.958 h -2.074 v -6.002 z m -0.055,-7.967 c 0,-6.547 -3.219,-12.931 -10.422,-12.931 -7.419,0 -10.421,6.166 -10.421,12.931 0,6.603 3.273,12.823 10.477,12.823 7.093,0 10.366,-6.384 10.366,-12.823 z"
         id="path3115" />
      <path
         inkscape:connector-curvature="0"
         d="m 164.2095,826.253 c -0.11,6.602 3.383,12.604 10.312,12.604 5.293,0 9.059,-3.165 10.039,-8.348 h 2.074 c -1.091,6.547 -5.456,10.148 -12.113,10.148 -8.184,0 -12.494,-6.438 -12.386,-14.186 -0.108,-7.694 3.928,-15.168 12.386,-15.168 8.784,0 12.713,6.929 12.331,14.95 h -22.643 z m 20.569,-1.801 c -0.109,-5.893 -3.819,-11.349 -10.258,-11.349 -6.22,0 -9.876,5.784 -10.312,11.349 h 20.57 z"
         id="path3117" />
      <path
         inkscape:connector-curvature="0"
         d="m 213.5335,834.819 c 0,1.637 0,3.383 1.854,3.383 0.382,0 0.874,-0.055 1.528,-0.164 v 1.746 c -0.601,0.109 -1.146,0.218 -1.692,0.218 -3.272,0 -3.765,-1.8 -3.765,-4.092 v -1.473 h -0.108 c -1.31,3.329 -5.074,6.22 -10.421,6.22 -5.293,0 -9.386,-2.019 -9.386,-7.912 0,-6.547 5.675,-7.912 10.313,-8.293 9.274,-0.655 9.657,-1.255 9.657,-5.838 0,-1.255 -1.419,-5.511 -7.803,-5.511 -5.02,0 -8.349,2.619 -8.621,7.475 h -2.073 c 0.272,-6.166 4.092,-9.275 10.694,-9.275 4.91,0 9.821,1.528 9.821,7.312 v 16.204 z m -2.074,-10.749 c -1.637,1.855 -6.111,1.637 -10.147,2.183 -4.911,0.545 -7.693,2.291 -7.693,6.493 0,3.383 2.455,6.111 7.366,6.111 9.438,0 10.475,-8.075 10.475,-9.549 v -5.238 z"
         id="path3119" />
      <path
         inkscape:connector-curvature="0"
         d="m 222.2625,830.672 c 0.327,5.183 4.201,8.185 9.276,8.185 3.655,0 8.893,-1.091 8.893,-5.948 0,-4.747 -4.801,-5.456 -9.603,-6.438 -4.855,-0.982 -9.657,-2.237 -9.657,-7.966 0,-5.565 5.401,-7.202 10.148,-7.202 5.948,0 10.367,2.564 10.367,8.948 h -2.073 c -0.055,-5.074 -3.601,-7.147 -8.294,-7.147 -3.818,0 -8.075,1.418 -8.075,5.402 0,4.474 4.801,5.184 9.33,6.166 5.565,1.037 9.931,2.346 9.931,8.239 0,6.057 -6.057,7.748 -10.967,7.748 -6.384,0 -11.185,-3.438 -11.35,-9.985 h 2.074 z"
         id="path3121" />
      <path
         inkscape:connector-curvature="0"
         d="m 271.9685,837.602 h 0.109 l 7.639,-25.645 h 2.783 l 7.693,25.645 h 0.109 l 7.856,-25.645 h 2.291 l -9.002,28.045 h -2.565 l -7.693,-25.426 h -0.108 l -7.748,25.426 h -2.619 l -8.894,-28.045 h 2.237 l 7.912,25.645 z"
         id="path3123" />
      <path
         inkscape:connector-curvature="0"
         d="m 316.1105,811.302 c 8.239,0 12.876,6.711 12.876,14.677 0,7.966 -4.637,14.677 -12.876,14.677 -8.239,0 -12.876,-6.711 -12.876,-14.677 0,-7.966 4.637,-14.677 12.876,-14.677 z m 0,27.555 c 7.038,0 10.803,-6.166 10.803,-12.877 0,-6.711 -3.765,-12.877 -10.803,-12.877 -7.039,0 -10.804,6.166 -10.804,12.877 0,6.711 3.765,12.877 10.804,12.877 z"
         id="path3125" />
      <path
         inkscape:connector-curvature="0"
         d="m 337.0625,818.177 h 0.163 c 1.092,-3.656 5.675,-6.603 10.749,-6.384 v 2.074 c -2.183,-0.273 -5.237,0.273 -7.748,2.728 -2.073,2.128 -2.946,3.874 -3.164,8.075 v 15.332 h -2.074 v -28.045 h 2.074 v 6.22 z"
         id="path3127" />
      <path
         inkscape:connector-curvature="0"
         d="m 363.4985,813.757 h -6.111 v 19.588 c 0,4.529 2.127,4.965 6.057,4.856 v 1.8 c -4.256,0.273 -8.349,-0.328 -8.131,-6.657 v -19.587 h -5.183 v -1.801 h 5.183 v -8.73 h 2.074 v 8.73 h 6.111 v 1.801 z"
         id="path3129" />
      <path
         inkscape:connector-curvature="0"
         d="m 371.4755,801.045 v 16.915 h 0.109 c 1.418,-4.202 5.674,-6.657 10.039,-6.657 9.876,0 9.984,7.912 9.984,11.349 v 17.351 h -2.073 v -17.734 c 0,-2.892 -0.327,-9.167 -7.966,-9.167 -6.274,0 -10.094,4.856 -10.094,11.731 v 15.168 h -2.073 v -38.956 h 2.074 z"
         id="path3131" />
    </g>
    <g
       id="g4137"
       transform="translate(21.298,0)">
      <path
         inkscape:connector-curvature="0"
         d="m 122.4675,887.116 c 0.327,5.184 4.201,8.186 9.275,8.186 3.655,0 8.894,-1.092 8.894,-5.947 0,-4.748 -4.801,-5.457 -9.603,-6.439 -4.856,-0.981 -9.658,-2.236 -9.658,-7.966 0,-5.565 5.401,-7.202 10.149,-7.202 5.947,0 10.367,2.564 10.367,8.948 h -2.074 c -0.054,-5.074 -3.602,-7.147 -8.293,-7.147 -3.819,0 -8.075,1.418 -8.075,5.401 0,4.475 4.801,5.184 9.33,6.166 5.565,1.036 9.931,2.347 9.931,8.239 0,6.056 -6.058,7.747 -10.968,7.747 -6.384,0 -11.186,-3.437 -11.35,-9.985 h 2.075 z"
         id="path3133" />
      <path
         inkscape:connector-curvature="0"
         d="m 151.4405,874.84 h 0.109 c 0.872,-2.783 4.036,-7.094 10.202,-7.094 8.621,0 12.604,6.82 12.604,14.732 0,8.512 -4.038,14.622 -12.604,14.622 -4.637,0 -8.565,-1.964 -10.202,-6.493 h -0.109 v 15.879 h -2.074 v -38.085 h 2.074 v 6.439 z m 20.842,7.639 c 0,-6.385 -3,-12.932 -10.53,-12.932 -7.475,0 -10.258,6.274 -10.258,12.932 0,6.656 2.347,12.822 10.258,12.822 7.311,0 10.53,-5.892 10.53,-12.822 z"
         id="path3135" />
      <path
         inkscape:connector-curvature="0"
         d="m 182.4325,874.622 h 0.163 c 1.092,-3.656 5.674,-6.602 10.749,-6.384 v 2.073 c -2.183,-0.272 -5.238,0.273 -7.749,2.729 -2.073,2.128 -2.945,3.874 -3.163,8.075 v 15.332 h -2.075 v -28.046 h 2.075 v 6.221 z"
         id="path3137" />
      <path
         inkscape:connector-curvature="0"
         d="m 197.4915,882.697 c -0.109,6.603 3.383,12.604 10.313,12.604 5.293,0 9.058,-3.165 10.04,-8.349 h 2.073 c -1.092,6.548 -5.457,10.148 -12.113,10.148 -8.185,0 -12.495,-6.438 -12.386,-14.187 -0.109,-7.693 3.929,-15.168 12.386,-15.168 8.784,0 12.713,6.93 12.332,14.95 h -22.645 z m 20.569,-1.8 c -0.108,-5.894 -3.818,-11.35 -10.257,-11.35 -6.221,0 -9.876,5.783 -10.313,11.35 h 20.57 z"
         id="path3139" />
      <path
         inkscape:connector-curvature="0"
         d="m 246.8165,891.263 c 0,1.637 0,3.383 1.854,3.383 0.382,0 0.873,-0.055 1.528,-0.163 v 1.746 c -0.601,0.108 -1.146,0.218 -1.691,0.218 -3.274,0 -3.766,-1.801 -3.766,-4.093 v -1.473 h -0.109 c -1.309,3.328 -5.073,6.22 -10.421,6.22 -5.293,0 -9.385,-2.019 -9.385,-7.911 0,-6.548 5.675,-7.912 10.313,-8.293 9.276,-0.656 9.657,-1.256 9.657,-5.839 0,-1.255 -1.419,-5.511 -7.803,-5.511 -5.02,0 -8.348,2.619 -8.621,7.475 h -2.072 c 0.272,-6.165 4.092,-9.275 10.693,-9.275 4.911,0 9.822,1.527 9.822,7.312 v 16.204 z m -2.074,-10.749 c -1.637,1.855 -6.11,1.637 -10.148,2.183 -4.91,0.546 -7.693,2.292 -7.693,6.493 0,3.383 2.456,6.111 7.366,6.111 9.439,0 10.476,-8.076 10.476,-9.549 v -5.238 z"
         id="path3141" />
      <path
         inkscape:connector-curvature="0"
         d="m 276.2255,890.445 h -0.108 c -2.292,4.419 -5.73,6.656 -10.75,6.656 -8.456,0 -12.112,-6.874 -12.112,-14.622 0,-8.294 4.037,-14.732 12.494,-14.732 4.584,0 8.895,2.51 10.368,6.93 h 0.108 v -17.188 h 2.073 v 38.958 h -2.073 v -6.002 z m -0.055,-7.966 c 0,-6.549 -3.219,-12.932 -10.422,-12.932 -7.42,0 -10.421,6.165 -10.421,12.932 0,6.602 3.273,12.822 10.477,12.822 7.092,0 10.366,-6.384 10.366,-12.822 z"
         id="path3143" />
      <path
         inkscape:connector-curvature="0"
         d="m 286.5385,863.108 v -5.619 h 2.073 v 5.619 h -2.073 z m 0,33.339 v -28.046 h 2.073 v 28.046 h -2.073 z"
         id="path3145" />
      <path
         inkscape:connector-curvature="0"
         d="m 296.3595,868.401 h 2.073 v 6.002 h 0.109 c 1.419,-4.201 5.674,-6.656 10.04,-6.656 9.876,0 9.984,7.912 9.984,11.35 v 17.351 h -2.074 v -17.734 c 0,-2.892 -0.326,-9.166 -7.966,-9.166 -6.274,0 -10.094,4.855 -10.094,11.73 v 15.169 h -2.073 v -28.046 z"
         id="path3147" />
      <path
         inkscape:connector-curvature="0"
         d="m 349.0115,868.401 v 26.572 c 0,2.183 0,12.55 -12.113,12.168 -6.002,0 -10.64,-2.237 -10.966,-8.73 h 2.073 c 0.437,4.965 4.364,6.93 8.948,6.93 9.82,0 9.984,-8.021 9.984,-9.876 v -6.438 h -0.108 c -1.965,4.146 -5.402,6.384 -10.149,6.384 -8.238,0 -12.112,-6.056 -12.112,-13.858 0,-7.42 4.201,-13.805 12.112,-13.805 4.365,0 8.621,2.292 10.149,6.493 h 0.108 v -5.84 h 2.074 z m -22.37,13.15 c 0,6.602 3.437,12.059 10.039,12.059 6.82,0 10.203,-5.729 10.203,-12.059 0,-6.275 -3.328,-12.004 -10.203,-12.004 -6.765,0 -10.039,6.057 -10.039,12.004 z"
         id="path3149" />
    </g>
    <path
       transform="matrix(0.99285196,0,0,1.0357706,4.4706305,532.58234)"
       d="m 494.04675,254.67014 a 240.7065,230.73247 0 1 1 -481.412991,0 240.7065,230.73247 0 1 1 481.412991,0 z"
       sodipodi:ry="230.73247"
       sodipodi:rx="240.7065"
       sodipodi:cy="254.67014"
       sodipodi:cx="253.34026"
       id="path4061"
       style="fill:url(#linearGradient4069);fill-opacity:1;fill-rule:nonzero;stroke:none"
       sodipodi:type="arc" />
  </g>
</svg>
