<?xml version="1.0" encoding="UTF-8" standalone="no"?>
<!-- Created with Inkscape (http://www.inkscape.org/) -->

<svg
   xmlns:dc="http://purl.org/dc/elements/1.1/"
   xmlns:cc="http://creativecommons.org/ns#"
   xmlns:rdf="http://www.w3.org/1999/02/22-rdf-syntax-ns#"
   xmlns:svg="http://www.w3.org/2000/svg"
   xmlns="http://www.w3.org/2000/svg"
   xmlns:xlink="http://www.w3.org/1999/xlink"
   xmlns:sodipodi="http://sodipodi.sourceforge.net/DTD/sodipodi-0.dtd"
   xmlns:inkscape="http://www.inkscape.org/namespaces/inkscape"
   width="512"
   height="512"
   id="svg17761"
   version="1.1"
   inkscape:version="0.48.2 r9819"
   sodipodi:docname="oanda_badge.svg"
   inkscape:export-filename="/Users/axolotl/Pictures/FLUID LOGOS/oanda_badge.png"
   inkscape:export-xdpi="90"
   inkscape:export-ydpi="90">
  <defs
     id="defs17763">
    <linearGradient
       id="linearGradient18729">
      <stop
         id="stop18731"
         offset="0"
         style="stop-color:#000000;stop-opacity:0.81176472;" />
      <stop
         style="stop-color:#000000;stop-opacity:0.87450981;"
         offset="0.47999978"
         id="stop18737" />
      <stop
         style="stop-color:#000000;stop-opacity:0.90588236;"
         offset="0.68000013"
         id="stop18735" />
      <stop
         id="stop18733"
         offset="1"
         style="stop-color:#000000;stop-opacity:0.93725491;" />
    </linearGradient>
    <linearGradient
       id="linearGradient18711">
      <stop
         style="stop-color:#b1d628;stop-opacity:0.49803922;"
         offset="0"
         id="stop18713" />
      <stop
         style="stop-color:#b1db28;stop-opacity:0;"
         offset="1"
         id="stop18715" />
    </linearGradient>
    <linearGradient
       id="linearGradient18677">
      <stop
         style="stop-color:#b1db28;stop-opacity:1;"
         offset="0"
         id="stop18679" />
      <stop
         style="stop-color:#b1db28;stop-opacity:0;"
         offset="1"
         id="stop18681" />
    </linearGradient>
    <linearGradient
       id="linearGradient18632">
      <stop
         style="stop-color:#ffffff;stop-opacity:0.81176472;"
         offset="0"
         id="stop18634" />
      <stop
         id="stop18719"
         offset="0.5"
         style="stop-color:#dfffdf;stop-opacity:0.90588236;" />
      <stop
         style="stop-color:#ffffff;stop-opacity:0.81176472;"
         offset="1"
         id="stop18636" />
    </linearGradient>
    <linearGradient
       id="linearGradient18596">
      <stop
         style="stop-color:#ceff2f;stop-opacity:1;"
         offset="0"
         id="stop18598" />
      <stop
         id="stop18630"
         offset="0.5"
         style="stop-color:#333f0c;stop-opacity:1;" />
      <stop
         style="stop-color:#ceff2f;stop-opacity:1;"
         offset="1"
         id="stop18600" />
    </linearGradient>
    <radialGradient
       inkscape:collect="always"
       xlink:href="#linearGradient18677"
       id="radialGradient18703"
       gradientUnits="userSpaceOnUse"
       gradientTransform="matrix(-0.85144124,0.92239473,-2.1496566,-1.9842982,1703.9118,1497.2866)"
       cx="372.0625"
       cy="526.1875"
       fx="372.0625"
       fy="526.1875"
       r="225.5" />
    <radialGradient
       inkscape:collect="always"
       xlink:href="#linearGradient18711"
       id="radialGradient18717"
       cx="43.411781"
       cy="-350.50742"
       fx="43.411781"
       fy="-350.50742"
       r="225"
       gradientTransform="matrix(-0.42666625,-1.137778,5.4145871,-2.0304674,2156.3752,-406.30085)"
       gradientUnits="userSpaceOnUse" />
    <radialGradient
       inkscape:collect="always"
       xlink:href="#linearGradient18729"
       id="radialGradient18727"
       cx="448.00003"
       cy="988.36224"
       fx="448.00003"
       fy="988.36224"
       r="240"
       gradientTransform="matrix(1.8666665,-1.8666663,1.6666666,1.6666667,-2035.5369,177.35816)"
       gradientUnits="userSpaceOnUse" />
    <radialGradient
       inkscape:collect="always"
       xlink:href="#linearGradient18632"
       id="radialGradient18739"
       cx="372.04724"
       cy="526.18109"
       fx="372.04724"
       fy="526.18109"
       r="203.02779"
       gradientTransform="matrix(2.5231305,-2.5230227,1.0244151,1.0244586,-1105.7044,925.81395)"
       gradientUnits="userSpaceOnUse" />
    <filter
       inkscape:collect="always"
       id="filter18841"
       x="-0.29312832"
       width="1.5862566"
       y="-0.281015"
       height="1.56203">
      <feGaussianBlur
         inkscape:collect="always"
         stdDeviation="26.307028"
         id="feGaussianBlur18843" />
    </filter>
    <filter
       inkscape:collect="always"
       id="filter18845"
       x="-1.38004"
       width="3.7600801"
       y="-0.30566728"
       height="1.6113346">
      <feGaussianBlur
         inkscape:collect="always"
         stdDeviation="26.307028"
         id="feGaussianBlur18847" />
    </filter>
    <filter
       inkscape:collect="always"
       id="filter18849"
       x="-0.61333912"
       width="2.2266782"
       y="-0.40374099"
       height="1.807482">
      <feGaussianBlur
         inkscape:collect="always"
         stdDeviation="26.307028"
         id="feGaussianBlur18851" />
    </filter>
  </defs>
  <sodipodi:namedview
     id="base"
     pagecolor="#ffffff"
     bordercolor="#666666"
     borderopacity="1.0"
     inkscape:pageopacity="0.0"
     inkscape:pageshadow="2"
     inkscape:zoom="0.5"
     inkscape:cx="256"
     inkscape:cy="256"
     inkscape:document-units="px"
     inkscape:current-layer="layer1"
     showgrid="false"
     inkscape:window-width="1661"
     inkscape:window-height="981"
     inkscape:window-x="0"
     inkscape:window-y="0"
     inkscape:window-maximized="0">
    <inkscape:grid
       type="xygrid"
       id="grid18604"
       empspacing="5"
       visible="true"
       enabled="true"
       snapvisiblegridlinesonly="true"
       spacingx="16px"
       spacingy="16px"
       originx="16px"
       originy="16px" />
  </sodipodi:namedview>
  <metadata
     id="metadata17766">
    <rdf:RDF>
      <cc:Work
         rdf:about="">
        <dc:format>image/svg+xml</dc:format>
        <dc:type
           rdf:resource="http://purl.org/dc/dcmitype/StillImage" />
        <dc:title></dc:title>
      </cc:Work>
    </rdf:RDF>
  </metadata>
  <g
     inkscape:label="Ebene 1"
     inkscape:groupmode="layer"
     id="layer1"
     transform="translate(0,-540.36217)">
    <path
       id="path18820"
       d="m 230.02916,929.51011 c -5.07662,-0.91637 -9.63612,-2.30501 -10.13223,-3.0859 -0.49612,-0.78089 -0.91003,-35.2193 -0.9198,-76.5298 -0.0167,-70.78447 0.0992,-75.10729 2.01224,-75.06309 2.07182,0.0479 99.78761,131.51916 100.89295,135.74596 1.11442,4.26155 -26.16867,15.59147 -45.82486,19.02983 -12.43967,2.17599 -33.68401,2.13123 -46.0283,-0.097 z"
       style="fill:#000000;fill-opacity:1;filter:url(#filter18849)"
       inkscape:connector-curvature="0" />
    <path
       id="path18822"
       d="m 171.40977,895.77105 c -17.25297,-19.14015 -29.77183,-44.29351 -34.88558,-70.09341 -2.7383,-13.81521 -2.74536,-41.30837 -0.0142,-55.08224 3.92807,-19.80971 11.62095,-38.25136 22.97602,-55.07884 7.37211,-10.92501 17.58237,-21.88622 19.36217,-20.78625 1.0338,0.63892 1.36788,25.87147 1.36788,103.31283 0,88.5092 -0.22945,102.55548 -1.68442,103.1138 -1.05449,0.40464 -3.71787,-1.60951 -7.12191,-5.38589 z"
       style="fill:#000000;fill-opacity:1;filter:url(#filter18845)"
       inkscape:connector-curvature="0" />
    <path
       id="path18824"
       d="m 287.72662,786.34042 -73.46951,-97.73 -20.54099,-0.31676 c -24.23579,-0.37375 -24.8911,-0.86712 -11.90357,-8.96189 60.4341,-37.66692 140.91283,-20.43744 181.50833,38.85865 16.97505,24.7947 24.22973,47.14194 25.28859,77.89855 0.69669,20.23653 -0.51925,31.59168 -5.06126,47.26522 -4.78983,16.5287 -17.1363,40.71623 -20.78351,40.71623 -0.86272,0 -34.62985,-43.9785 -75.03808,-97.73 z"
       style="fill:#000000;fill-opacity:1;filter:url(#filter18841)"
       inkscape:connector-curvature="0" />
    <path
       style="opacity:0.75000000000000000;fill:url(#radialGradient18727);fill-opacity:1;fill-rule:nonzero;stroke:none"
       d="m 76,556.36217 c -33.24,0 -60,26.76 -60,60 l 0,360 c 0,33.24003 26.76,60.00003 60,60.00003 l 360,0 c 33.24,0 60,-26.76 60,-60.00003 l 0,-360 c 0,-33.24 -26.76,-60 -60,-60 l -360,0 z m 180.0625,37.0625 c 11.04952,0 22.10189,0.55213 29.46875,1.65625 91.51906,13.71658 162.05397,86.49606 172.5,178 1.3357,11.70031 1.3152,34.00036 -0.0312,46.28125 -2.10059,19.15873 -8.96399,45.2842 -11.84375,45.09375 -0.87581,-0.0579 -4.74375,-1.30227 -8.59375,-2.78125 -8.13049,-3.12332 -7.97188,-2.54648 -4.09375,-15.59375 12.52568,-42.14043 8.0762,-90.49135 -12,-130.8125 -19.6664,-39.49811 -51.32325,-69.92331 -91.34375,-87.78125 -49.06996,-21.89599 -105.93372,-20.74315 -154.5625,3.125 -20.26079,9.94448 -34.50955,20.30044 -51.5,37.4375 -8.52728,8.60086 -9.19282,9.52878 -6.5,9.0625 3.51827,-0.60923 35.26495,-3.53125 38.375,-3.53125 1.22446,0 2.125,0.63533 2.125,1.5 0,0.82587 -3.90908,6.33837 -8.6875,12.25 -4.77841,5.91163 -8.86511,10.96378 -9.0625,11.21875 -0.45419,0.58669 -49.28892,5.88587 -55,5.96875 -2.3375,0.0339 -4.25,-0.35605 -4.25,-0.84375 0,-1.79327 -5.00808,-49.68975 -5.46875,-52.3125 -0.39455,-2.24633 1.1036,-4.69226 8.65625,-14.25 5.13087,-6.49301 9.83904,-11.53125 10.78125,-11.53125 1.43754,0 1.91279,2.51016 3.40625,17.75 0.9567,9.7625 1.96482,18.38686 2.21875,19.15625 0.29938,0.90706 4.05792,-2.23653 10.6875,-8.90625 31.74362,-31.93582 71.0252,-51.87173 115.25,-58.5 7.36686,-1.10412 18.41923,-1.65625 29.46875,-1.65625 z m -188.65625,128.625 c 2.67974,0.0864 16.65625,5.41091 16.65625,6.46875 0,0.44006 -1.56918,5.54487 -3.46875,11.34375 -14.57141,44.48259 -10.8139,95.1934 10.125,137.0625 10.73493,21.46539 21.06664,35.40745 39,52.65625 14.33809,13.79077 26.52941,22.34498 44.84375,31.4375 20.73047,10.29206 36.42628,15.0639 59.0625,18.03125 35.14106,4.60659 72.22909,-1.79922 104.75,-18.09375 12.70848,-6.36755 19.17231,-10.36968 30.1875,-18.75 8.63183,-6.56707 27.13095,-24.3378 26.25,-25.21875 -0.29605,-0.29605 -7.97039,0.16996 -17.03125,1.03125 -19.71374,1.87391 -24.71875,1.94056 -24.71875,0.40625 0,-0.627 4.08963,-6.19746 9.09375,-12.40625 8.01727,-9.94731 9.53232,-11.36211 12.75,-11.84375 8.47741,-1.26897 54.34839,-5.74536 54.75,-5.34375 0.91047,0.91048 6.32703,56.01847 5.625,57.21875 -2.19268,3.74889 -17.90229,22.42275 -18.90625,22.46875 -1.67897,0.0769 -1.93076,-1.31886 -3.9375,-21.65625 l -1.78125,-18.21875 -6.84375,7.4375 c -3.75922,4.07972 -10.96819,10.87691 -16.03125,15.125 -42.21312,35.41835 -95.39301,52.08358 -150.71875,47.25 -22.74342,-1.98701 -49.62867,-9.53725 -70.5,-19.84375 C 75.90973,933.84684 32.01126,830.29606 62.65625,733.51842 c 1.89183,-5.97446 3.862,-11.12045 4.375,-11.4375 0.0708,-0.0438 0.19635,-0.037 0.375,-0.0312 z"
       id="rect18561"
       inkscape:connector-curvature="0" />
    <path
       inkscape:connector-curvature="0"
       id="path18642"
       d="m 76,556.36215 c -33.24,0 -60,26.76003 -60,60.00003 l 0,360 c 0,33.24002 26.76,60.00002 60,60.00002 l 360,0 c 33.24,0 60,-26.76 60,-60.00002 l 0,-360 c 0,-33.24 -26.76,-60.00002 -60,-60.00002 l -360,0 z m 180.0625,37.06253 c 11.0495,0 22.1019,0.5521 29.4688,1.6562 91.519,13.7166 162.0539,86.4961 172.5,178 1.3357,11.7003 1.3152,34.0004 -0.031,46.2813 -2.1006,19.1587 -8.964,45.2842 -11.8438,45.0937 -0.8758,-0.058 -4.7437,-1.30229 -8.5937,-2.7812 -8.1305,-3.1234 -7.9719,-2.5465 -4.0938,-15.5938 12.5257,-42.1404 8.0762,-90.4913 -12,-130.8125 -19.6664,-39.4981 -51.3232,-69.9233 -91.3437,-87.7812 -49.07,-21.896 -105.93377,-20.7432 -154.56255,3.125 -20.26079,9.9445 -34.50955,20.3004 -51.5,37.4375 -8.52728,8.6008 -9.19282,9.5288 -6.5,9.0625 3.51827,-0.6093 35.26495,-3.5313 38.375,-3.5313 1.22446,0 2.125,0.6354 2.125,1.5 0,0.82591 -3.90908,6.3384 -8.6875,12.25 -4.77841,5.9117 -8.86511,10.9638 -9.0625,11.2188 -0.45419,0.5867 -49.28892,5.8858 -55,5.9687 -2.3375,0.034 -4.25,-0.356 -4.25,-0.8437 0,-1.7933 -5.00808,-49.6898 -5.46875,-52.3125 -0.39455,-2.2464 1.1036,-4.6923 8.65625,-14.25 5.13087,-6.493 9.83904,-11.5313 10.78125,-11.5313 1.43754,0 1.91279,2.51021 3.40625,17.75 0.9567,9.7625 1.96482,18.3869 2.21875,19.1563 0.29938,0.907 4.05792,-2.2366 10.6875,-8.9063 31.74362,-31.9358 71.0252,-51.8717 115.25,-58.5 7.36686,-1.1041 18.41923,-1.6562 29.46875,-1.6562 z m -188.65625,128.625 c 2.67974,0.086 16.65625,5.4109 16.65625,6.4687 0,0.4401 -1.56918,5.5449 -3.46875,11.3438 -14.57141,44.4826 -10.8139,95.1934 10.125,137.0625 10.73493,21.4654 21.06664,35.4074 39,52.6562 14.33809,13.7908 26.52941,22.345 44.84375,31.4375 20.73047,10.2921 36.42628,15.0639 59.0625,18.0313 35.1411,4.6066 72.2291,-1.7992 104.75,-18.0938 12.7085,-6.36749 19.1723,-10.3697 30.1875,-18.75 8.6318,-6.5671 27.131,-24.3378 26.25,-25.2187 -0.296,-0.2961 -7.9704,0.1699 -17.0312,1.0312 -19.7138,1.87391 -24.7188,1.9406 -24.7188,0.4063 0,-0.627 4.0896,-6.1975 9.0938,-12.4063 8.0172,-9.9473 9.5323,-11.3621 12.75,-11.8437 8.4774,-1.269 54.3483,-5.7454 54.75,-5.3438 0.9104,0.9105 6.327,56.0185 5.625,57.2188 -2.1927,3.7489 -17.9023,22.4227 -18.9063,22.4687 -1.679,0.077 -1.9308,-1.3188 -3.9375,-21.6562 l -1.7812,-18.2188 -6.8438,7.4375 c -3.7592,4.0797 -10.9682,10.8769 -16.0312,15.125 -42.2132,35.4184 -95.3931,52.08362 -150.7188,47.25 -22.74342,-1.987 -49.62867,-9.5372 -70.5,-19.8437 -90.65277,-44.7654 -134.55124,-148.3161 -103.90625,-245.0938 1.89183,-5.97439 3.862,-11.1204 4.375,-11.4375 0.0708,-0.044 0.19635,-0.037 0.375,-0.031 z"
       style="opacity:0.87000002;fill:#e7ffe7;fill-opacity:0.12156863;fill-rule:nonzero;stroke:none" />
    <g
       id="g18591"
       transform="translate(-116.0625,270.17467)"
       style="fill:#b1db28;fill-opacity:1">
      <path
         id="path18047"
         d="m 351.66634,648.78519 c -4.37639,-0.78997 -8.307,-1.98708 -8.73468,-2.66026 -0.42769,-0.67318 -0.78451,-30.36146 -0.79293,-65.97396 -0.0144,-61.0211 0.0855,-64.74767 1.73469,-64.70956 1.78605,0.0413 86.0238,113.37858 86.97668,117.02238 0.96071,3.67375 -22.5592,13.44092 -39.50419,16.40502 -10.72385,1.87586 -29.03794,1.83727 -39.67957,-0.0836 z"
         style="fill:#b1db28;fill-opacity:1"
         inkscape:connector-curvature="0" />
      <path
         id="path18043"
         d="m 285.53176,612.1012 c -14.87325,-16.50013 -25.66537,-38.18406 -30.07378,-60.42535 -2.3606,-11.90967 -2.36669,-35.61067 -0.0122,-47.48469 3.38626,-17.07734 10.01806,-32.97531 19.80691,-47.48176 6.35527,-9.41811 15.15722,-18.86743 16.69153,-17.91918 0.8912,0.55079 1.1792,22.30299 1.1792,89.06278 0,76.30104 -0.1978,88.4099 -1.45208,88.89121 -0.90905,0.34883 -3.20506,-1.38751 -6.13958,-4.64301 z"
         style="fill:#b1db28;fill-opacity:1"
         inkscape:connector-curvature="0" />
      <path
         id="path18039"
         d="m 402.8747,514.15097 -63.33578,-84.25 -17.70775,-0.27307 c -20.89292,-0.3222 -21.45785,-0.74752 -10.2617,-7.72577 52.09836,-32.47148 121.47658,-17.61848 156.4727,33.49884 14.63366,21.37474 20.8877,40.6396 21.80051,67.15392 0.60059,17.44528 -0.44763,27.23421 -4.36316,40.74588 -4.12916,14.24888 -14.77267,35.1002 -17.91682,35.1002 -0.74372,0 -29.85332,-37.9125 -64.688,-84.25 z"
         style="fill:#b1db28;fill-opacity:1"
         inkscape:connector-curvature="0" />
    </g>
    <g
       id="g18587"
       transform="translate(-116.0625,270.17467)"
       style="stroke:none;fill-opacity:1;fill:url(#radialGradient18739)">
      <path
         id="path18051"
         d="m 353.12342,728.29595 c -22.74342,-1.98701 -49.62867,-9.56503 -70.5,-19.87153 C 191.97065,663.65909 148.0805,560.13348 178.72549,463.35584 c 1.89183,-5.97446 3.85941,-11.12205 4.37241,-11.4391 1.13324,-0.70038 17.02552,5.30134 17.02552,6.4297 0,0.44006 -1.5542,5.54464 -3.45377,11.34352 -14.57141,44.48259 -10.83332,95.17612 10.10558,137.04522 10.73493,21.46539 21.06624,35.41699 38.9996,52.66579 14.33809,13.79077 26.53425,22.33801 44.84859,31.43053 20.73047,10.29206 36.41657,15.08809 59.05279,18.05544 35.14106,4.60659 72.23211,-1.80052 104.75302,-18.09505 12.70848,-6.36755 19.179,-10.38996 30.19419,-18.77028 8.63183,-6.56707 27.12059,-24.33338 26.23964,-25.21433 -0.29605,-0.29605 -7.9517,0.16642 -17.01256,1.02771 -19.71374,1.87391 -24.72708,1.96027 -24.72708,0.42596 0,-0.627 4.09428,-6.21993 9.0984,-12.42872 8.01727,-9.94731 9.53232,-11.35367 12.75,-11.83531 8.47741,-1.26897 54.33252,-5.74837 54.73413,-5.34676 0.91047,0.91048 6.3546,56.03819 5.65257,57.23847 -2.19268,3.74889 -17.91375,22.41216 -18.91771,22.45816 -1.67897,0.0769 -1.93282,-1.31849 -3.93956,-21.65588 l -1.79683,-18.21007 -6.83493,7.41768 c -3.75922,4.07972 -10.97744,10.89339 -16.0405,15.14148 -42.21312,35.41835 -95.37983,52.08956 -150.70557,47.25595 z"
         style="fill:url(#radialGradient18739);stroke:none;fill-opacity:1"
         inkscape:connector-curvature="0" />
      <path
         id="path18035"
         d="m 553.62342,591.5013 c -8.13049,-3.12332 -7.977,-2.53961 -4.09887,-15.58688 12.52568,-42.14043 8.09647,-90.51319 -11.97973,-130.83434 -19.6664,-39.49811 -51.32183,-69.91736 -91.34233,-87.7753 -49.06996,-21.89599 -105.95029,-20.7478 -154.57907,3.12035 -20.26079,9.94448 -34.50955,20.30328 -51.5,37.44034 -8.52728,8.60086 -9.19282,9.52878 -6.5,9.0625 3.51827,-0.60923 35.26356,-3.527 38.37361,-3.527 1.22446,0 2.12639,0.63692 2.12639,1.50159 0,0.82587 -3.90961,6.33837 -8.68803,12.25 -4.77841,5.91163 -8.84953,10.95703 -9.04692,11.212 -0.45419,0.58669 -49.30397,5.89186 -55.01505,5.97474 -2.3375,0.0339 -4.25,-0.33736 -4.25,-0.82506 0,-1.79327 -4.99774,-49.70231 -5.45841,-52.32506 -0.39455,-2.24633 1.08869,-4.69227 8.64134,-14.25001 5.13087,-6.49301 9.84976,-11.5382 10.79197,-11.5382 1.43754,0 1.9203,2.51016 3.41376,17.75 0.9567,9.7625 1.94721,18.3795 2.20114,19.14889 0.29938,0.90706 4.05637,-2.21755 10.68595,-8.88727 31.74362,-31.93582 71.03355,-51.8807 115.25835,-58.50897 14.73373,-2.20824 44.19807,-2.20824 58.9318,0 91.51906,13.71658 162.04423,86.49341 172.49026,177.99735 1.3357,11.70031 1.32565,34.00852 -0.0208,46.28941 -2.10059,19.15873 -8.96318,45.29573 -11.84294,45.10528 -0.87581,-0.0579 -4.74238,-1.31538 -8.59238,-2.79436 z"
         style="fill:url(#radialGradient18739);stroke:none;fill-opacity:1"
         inkscape:connector-curvature="0" />
    </g>
    <path
       style="opacity:0.75;fill:url(#radialGradient18717);fill-opacity:1;fill-rule:nonzero;stroke:none"
       d="M 87.25,31 C 56.0875,31 31,56.0875 31,87.25 l 0,287.9375 c 2.958302,0.54624 5.962434,0.8125 9,0.8125 14.627992,0 28.425077,-6.48707 40.5625,-17.96875 -28.104242,-48.34798 -35.98546,-107.78041 -17.90625,-164.875 1.89183,-5.97446 3.862,-11.12045 4.375,-11.4375 0.0708,-0.0438 0.19635,-0.037 0.375,-0.0312 2.67974,0.0864 16.65625,5.41091 16.65625,6.46875 0,0.44006 -1.56918,5.54487 -3.46875,11.34375 -14.57141,44.48259 -10.8139,95.1934 10.125,137.0625 1.042461,2.08449 2.082814,4.07874 3.125,6.03125 C 106.58173,309.30233 117.84951,241.1312 146,198 182.23591,142.48061 224.10184,108.17037 350.875,97.96875 344.23761,93.962856 337.3249,90.337739 330.125,87.125 281.05504,65.22901 224.19128,66.38185 175.5625,90.25 c -20.26079,9.94448 -34.50955,20.30044 -51.5,37.4375 -8.52728,8.60086 -9.19282,9.52878 -6.5,9.0625 3.51827,-0.60923 35.26495,-3.53125 38.375,-3.53125 1.22446,0 2.125,0.63533 2.125,1.5 0,0.82587 -3.90908,6.33837 -8.6875,12.25 -4.77841,5.91163 -8.86511,10.96378 -9.0625,11.21875 -0.45419,0.58669 -49.28892,5.88587 -55,5.96875 -2.3375,0.0339 -4.25,-0.35605 -4.25,-0.84375 0,-1.79327 -5.00808,-49.68975 -5.46875,-52.3125 -0.39455,-2.24633 1.1036,-4.69226 8.65625,-14.25 5.13087,-6.49301 9.83904,-11.53125 10.78125,-11.53125 1.43754,0 1.91279,2.51016 3.40625,17.75 0.9567,9.7625 1.96482,18.38686 2.21875,19.15625 0.29938,0.90706 4.05792,-2.23653 10.6875,-8.90625 31.74362,-31.93582 71.0252,-51.87173 115.25,-58.5 7.36686,-1.10412 18.41923,-1.65625 29.46875,-1.65625 11.04952,0 22.10189,0.55213 29.46875,1.65625 36.22344,5.429051 69.15102,20.129173 96.375,41.5625 C 387.88651,96.107984 393.92038,96 400,96 c 28.21324,0 55.41161,1.920149 81,5.4375 L 481,87.25 C 481,56.0875 455.9125,31 424.75,31 z"
       id="path18674"
       transform="translate(0,540.36217)"
       inkscape:connector-curvature="0"
       sodipodi:nodetypes="sscscsccssscscsssssssssssssscsssscscsss" />
    <path
       style="opacity:0.75000000000000000;fill:none;fill-opacity:1;fill-rule:nonzero;stroke:url(#radialGradient18703);stroke-opacity:1;stroke-width:5;stroke-miterlimit:4;stroke-dasharray:none;stroke-linejoin:round;stroke-linecap:round"
       d="m 87.25,571.36217 c -31.1625,0 -56.25,25.0875 -56.25,56.25 l 0,337.5 c 0,31.1625 25.0875,56.25003 56.25,56.25003 l 337.5,0 c 31.1625,0 56.25,-25.08753 56.25,-56.25003 l 0,-337.5 c 0,-31.1625 -25.0875,-56.25 -56.25,-56.25 l -337.5,0 z m 168.8125,22.0625 c 11.04952,0 22.10189,0.55213 29.46875,1.65625 91.51906,13.71658 162.05397,86.49606 172.5,178 1.3357,11.70031 1.3152,34.00036 -0.0312,46.28125 -2.10059,19.15873 -8.96399,45.2842 -11.84375,45.09375 -0.87581,-0.0579 -4.74375,-1.30227 -8.59375,-2.78125 -8.13049,-3.12332 -7.97188,-2.54648 -4.09375,-15.59375 12.52568,-42.14043 8.0762,-90.49135 -12,-130.8125 -19.6664,-39.49811 -51.32325,-69.92331 -91.34375,-87.78125 -49.06996,-21.89599 -105.93372,-20.74315 -154.5625,3.125 -20.26079,9.94448 -34.50955,20.30044 -51.5,37.4375 -8.52728,8.60086 -9.19282,9.52878 -6.5,9.0625 3.51827,-0.60923 35.26495,-3.53125 38.375,-3.53125 1.22446,0 2.125,0.63533 2.125,1.5 0,0.82587 -3.90908,6.33837 -8.6875,12.25 -4.77841,5.91163 -8.86511,10.96378 -9.0625,11.21875 -0.45419,0.58669 -49.28892,5.88587 -55,5.96875 -2.3375,0.0339 -4.25,-0.35605 -4.25,-0.84375 0,-1.79327 -5.00808,-49.68975 -5.46875,-52.3125 -0.39455,-2.24633 1.1036,-4.69226 8.65625,-14.25 5.13087,-6.49301 9.83904,-11.53125 10.78125,-11.53125 1.43754,0 1.91279,2.51016 3.40625,17.75 0.9567,9.7625 1.96482,18.38686 2.21875,19.15625 0.29938,0.90706 4.05792,-2.23653 10.6875,-8.90625 31.74362,-31.93582 71.0252,-51.87173 115.25,-58.5 7.36686,-1.10412 18.41923,-1.65625 29.46875,-1.65625 z m -188.65625,128.625 c 2.67974,0.0864 16.65625,5.41091 16.65625,6.46875 0,0.44006 -1.56918,5.54487 -3.46875,11.34375 -14.57141,44.48259 -10.8139,95.1934 10.125,137.0625 10.73493,21.46539 21.06664,35.40745 39,52.65625 14.33809,13.79077 26.52941,22.34498 44.84375,31.4375 20.73047,10.29206 36.42628,15.0639 59.0625,18.03125 35.14106,4.60659 72.22909,-1.79922 104.75,-18.09375 12.70848,-6.36755 19.17231,-10.36968 30.1875,-18.75 8.63183,-6.56707 27.13095,-24.3378 26.25,-25.21875 -0.29605,-0.29605 -7.97039,0.16996 -17.03125,1.03125 -19.71374,1.87391 -24.71875,1.94056 -24.71875,0.40625 0,-0.627 4.08963,-6.19746 9.09375,-12.40625 8.01727,-9.94731 9.53232,-11.36211 12.75,-11.84375 8.47741,-1.26897 54.34839,-5.74536 54.75,-5.34375 0.91047,0.91048 6.32703,56.01847 5.625,57.21875 -2.19268,3.74889 -17.90229,22.42275 -18.90625,22.46875 -1.67897,0.0769 -1.93076,-1.31886 -3.9375,-21.65625 l -1.78125,-18.21875 -6.84375,7.4375 c -3.75922,4.07972 -10.96819,10.87691 -16.03125,15.125 -42.21312,35.41835 -95.39301,52.08358 -150.71875,47.25 -22.74342,-1.98701 -49.62867,-9.53725 -70.5,-19.84375 C 75.90973,933.84684 32.01126,830.29606 62.65625,733.51842 c 1.89183,-5.97446 3.862,-11.12045 4.375,-11.4375 0.0708,-0.0438 0.19635,-0.037 0.375,-0.0312 z"
       id="rect18579"
       inkscape:connector-curvature="0" />
  </g>
</svg>
