<?xml version="1.0" encoding="UTF-8" standalone="no"?>
<!-- Created with Inkscape (http://www.inkscape.org/) -->

<svg
   xmlns:dc="http://purl.org/dc/elements/1.1/"
   xmlns:cc="http://creativecommons.org/ns#"
   xmlns:rdf="http://www.w3.org/1999/02/22-rdf-syntax-ns#"
   xmlns:svg="http://www.w3.org/2000/svg"
   xmlns="http://www.w3.org/2000/svg"
   xmlns:xlink="http://www.w3.org/1999/xlink"
   xmlns:sodipodi="http://sodipodi.sourceforge.net/DTD/sodipodi-0.dtd"
   xmlns:inkscape="http://www.inkscape.org/namespaces/inkscape"
   width="512"
   height="512"
   id="svg2"
   version="1.1"
   inkscape:version="0.48.2 r9819"
   sodipodi:docname="vimeo_badge.svg"
   inkscape:export-filename="/Users/axolotl/Pictures/FLUID LOGOS/vimeo_badge.png"
   inkscape:export-xdpi="90"
   inkscape:export-ydpi="90">
  <defs
     id="defs4">
    <linearGradient
       y2="425.39993"
       x2="-395.84943"
       y1="274.711"
       x1="-344.15295"
       gradientTransform="matrix(-0.5914583,0,0,0.5914584,210.0216,142.2324)"
       gradientUnits="userSpaceOnUse"
       id="linearGradient2449"
       xlink:href="#linearGradient2555"
       inkscape:collect="always" />
    <linearGradient
       id="linearGradient2555"
       inkscape:collect="always">
      <stop
         id="stop2557"
         offset="0"
         style="stop-color: rgb(255, 255, 255); stop-opacity: 1;" />
      <stop
         id="stop2559"
         offset="1"
         style="stop-color: rgb(255, 255, 255); stop-opacity: 0;" />
    </linearGradient>
    <linearGradient
       inkscape:collect="always"
       xlink:href="#linearGradient2555"
       id="linearGradient3192"
       gradientUnits="userSpaceOnUse"
       gradientTransform="matrix(-1.006704,0,0,1.0067825,-240.35852,-306.65981)"
       x1="-344.15295"
       y1="274.711"
       x2="-395.84943"
       y2="425.39993" />
    <linearGradient
       inkscape:collect="always"
       xlink:href="#linearGradient2555"
       id="linearGradient4006"
       gradientUnits="userSpaceOnUse"
       gradientTransform="matrix(-1.006704,0,0,1.0067825,-240.35852,-306.65981)"
       x1="-344.15295"
       y1="274.711"
       x2="-395.84943"
       y2="425.39993" />
    <linearGradient
       inkscape:collect="always"
       xlink:href="#linearGradient2555"
       id="linearGradient4012"
       gradientUnits="userSpaceOnUse"
       gradientTransform="matrix(-1.006704,0,0,1.0067825,-240.35852,244.75378)"
       x1="-344.15295"
       y1="274.711"
       x2="-395.84943"
       y2="425.39993" />
  </defs>
  <sodipodi:namedview
     id="base"
     pagecolor="#ffffff"
     bordercolor="#666666"
     borderopacity="1.0"
     inkscape:pageopacity="0.0"
     inkscape:pageshadow="2"
     inkscape:zoom="1.3808594"
     inkscape:cx="252.55278"
     inkscape:cy="284.96747"
     inkscape:document-units="px"
     inkscape:current-layer="layer1"
     showgrid="false"
     inkscape:window-width="1285"
     inkscape:window-height="925"
     inkscape:window-x="4"
     inkscape:window-y="0"
     inkscape:window-maximized="0" />
  <metadata
     id="metadata7">
    <rdf:RDF>
      <cc:Work
         rdf:about="">
        <dc:format>image/svg+xml</dc:format>
        <dc:type
           rdf:resource="http://purl.org/dc/dcmitype/StillImage" />
        <dc:title></dc:title>
      </cc:Work>
    </rdf:RDF>
  </metadata>
  <g
     inkscape:label="Ebene 1"
     inkscape:groupmode="layer"
     id="layer1"
     transform="translate(0,-540.36218)">
    <path
       inkscape:connector-curvature="0"
       style="fill:#00dbff;fill-opacity:1;fill-rule:evenodd;stroke:none"
       d="M 116.40625,562.41359 C 82.943407,562.41359 56,589.35439 56,622.81984 l 0,279.1875 c 0,33.46545 26.943407,60.40625 60.40625,60.40625 l 279.1875,0 c 33.46284,0 60.40625,-26.9408 60.40625,-60.40625 l 0,-279.1875 c 0,-33.46545 -26.94341,-60.40625 -60.40625,-60.40625 l -279.1875,0 z m 244.65625,72.15625 c 0.74616,-0.003 1.49707,0.0315 2.25,0.0625 20.26189,3.38517 55.88594,26.13937 49.34375,80.75 -13.5609,81.25885 -132.87501,208.85806 -172.75,204.15625 -45.65136,10.07158 -68.85518,-134.15327 -103.1875,-201.90625 l -31.40625,12.15625 c -12.946055,2.0404 -11.167689,-6.23813 -9.53125,-14.40625 34.65527,-31.09703 65.6144,-85.28632 101.53125,-74.03125 59.52148,15.40672 33.80209,129.29382 67.625,182.53125 46.32378,-26.12583 76.3613,-81.10642 63.875,-109.625 -2.79228,-7.9698 0.62461,-27.83273 -37.40625,-10.46875 -9.87128,4.50697 -9.4872,-12.94916 -7.75,-15.3125 34.11004,-37.48548 54.27543,-53.82366 77.40625,-53.90625 z m -172.71875,301.5 c 2.03921,-0.0594 3.56881,0.36726 4.90625,1.375 1.4435,1.0877 2.77445,2.96165 3.28125,4.65625 0.2485,0.8307 0.2966,2.26845 0.125,3.28125 -0.3977,2.3476 -1.7033,4.5753 -4,6.8125 -2.4373,2.3741 -5.0421,3.70455 -8.1875,4.15625 -0.9191,0.132 -2.80845,0.17545 -3.71875,0.0937 -1.6024,-0.1439 -3.23195,-0.5901 -4.28125,-1.1875 -0.5796,-0.3299 -1.4835,-1.1542 -1.875,-1.6875 -0.5644,-0.7689 -0.9776,-1.82095 -1.1875,-3.03125 -0.1635,-0.9423 -0.15095,-2.7308 0.0312,-3.625 0.3716,-1.8244 1.376,-3.53405 3.0625,-5.28125 3.1476,-3.2608 6.875,-5.1253 10.9375,-5.5 0.31211,-0.0288 0.61493,-0.054 0.90625,-0.0625 z"
       id="rect1942" />
    <path
       inkscape:connector-curvature="0"
       style="fill:url(#linearGradient4012);fill-opacity:1;fill-rule:evenodd;stroke:none"
       d="m 161.6875,579.50734 c -49.93345,0 -90.125,40.53178 -90.125,90.875 l 0,184.0625 c 1.616287,39.29715 7.822211,14.45646 19.65625,-29.0625 8.458967,-31.10701 28.66717,-59.80801 55.65625,-85 -3.28798,-8.20352 -6.67448,-15.87892 -10.15625,-22.75 l -31.40625,12.15625 c -12.946055,2.0404 -11.167689,-6.23813 -9.53125,-14.40625 34.65527,-31.09703 65.6144,-85.28632 101.53125,-74.03125 19.30171,4.99611 29.62572,20.34547 35.9375,40.625 22.06193,-10.15439 47.04494,-17.87143 78.71875,-22.53125 19.49871,-17.85514 34.52193,-25.50419 51.34375,-24.8125 8.83625,1.47628 20.58988,6.61726 30.5,16.5 29.33684,-13.11123 17.9402,-60.76279 -43.5,-71.625 l -188.625,0 z"
       id="path1950" />
    <path
       inkscape:connector-curvature="0"
       style="fill:#aaeeff;fill-opacity:0.81176471;stroke:none"
       d="m 95.788504,715.38705 c 34.655266,-31.09703 65.593216,-85.29027 101.510066,-74.0352 59.52148,15.40672 33.80508,129.27851 67.62799,182.51594 46.32378,-26.12583 76.38097,-81.08392 63.89467,-109.6025 -2.79228,-7.9698 0.60627,-27.84534 -37.42459,-10.48136 -9.87128,4.50697 -9.4676,-12.95544 -7.7304,-15.31878 35.21036,-38.69469 55.54393,-54.83449 79.63772,-53.84379 20.26189,3.38517 55.89515,26.15504 49.35296,80.76567 C 399.09602,796.64588 279.79656,924.2465 239.92157,919.54469 194.27021,929.61627 171.06135,785.38351 136.72903,717.63053 l -31.41737,12.15741 c -12.946055,2.0404 -11.159595,-6.23277 -9.523156,-14.40089 z"
       id="path9951"
       sodipodi:nodetypes="ccccsccccccc" />
    <path
       inkscape:connector-curvature="0"
       style="fill:#1ca7cc;fill-opacity:1;stroke:#aaeeff;stroke-width:2;stroke-linecap:round;stroke-linejoin:round;stroke-miterlimit:4;stroke-opacity:0.81176471;stroke-dasharray:none"
       d="m 155.28125,965.16359 c -0.4912,-0.0124 -0.99548,0.008 -1.5,0.0312 -2.01808,0.0941 -4.11315,0.47405 -5.875,1.125 -1.6087,0.5944 -3.4385,1.6383 -4.8125,2.75 -0.8229,0.6658 -2.20225,2.12625 -2.90625,3.03125 -1.9421,2.4968 -3.4232,5.37095 -4.6875,9.09375 -0.2106,0.6202 -0.3857,1.1447 -0.375,1.1875 0.0122,0.0486 0.27715,-0.0211 0.71875,-0.1875 1.5743,-0.5932 2.95635,-0.84375 4.53125,-0.84375 1.3454,0 1.9053,0.11615 2.75,0.53125 1.0453,0.5137 1.73575,1.3484 2.09375,2.625 0.1057,0.3771 0.128,0.72145 0.125,1.96875 -0.003,1.2892 -0.0205,1.59165 -0.15625,2.21875 -0.5435,2.5119 -2.0939,5.8003 -4.625,9.875 -3.0705,4.94321 -5.3097,7.38061 -6.875,7.50001 -0.3477,0.027 -0.45855,0 -0.84375,-0.1875 -1.4304,-0.7042 -2.75955,-3.5069 -3.96875,-8.31251 -1.0169,-4.0409 -1.67765,-7.5484 -3.21875,-17.25 -0.5909,-3.7195 -0.76945,-4.6325 -1.15625,-6 -1.62,-5.7263 -4.6231,-8.41735 -9.125,-8.21875 -1.7893,0.079 -3.30715,0.6673 -5.71875,2.25 -2.2546,1.4796 -4.1929,3.0909 -7.5625,6.1875 -1.869,1.7175 -5.605,5.07955 -7.4375,6.71875 -1.0974,0.9817 -1.2099,1.11975 -1.125,1.21875 0.0528,0.0616 0.82765,1.05625 1.71875,2.21875 1.0377,1.3537 1.6342,2.093 1.6875,2.0625 0.0458,-0.0263 0.4444,-0.29245 0.875,-0.59375 1.5389,-1.0766 3.34535,-2.21765 3.96875,-2.53125 0.5961,-0.3 0.64735,-0.32015 1.03125,-0.28125 0.9471,0.0959 2.0455,0.9659 2.9375,2.3125 1.1611,1.7531 2.51955,5.00585 3.53125,8.53125 0.1543,0.5376 1.58755,5.93261 3.21875,12.00001 2.0107,7.4789 3.06885,11.2993 3.28125,11.8437 2.5109,6.4378 5.41795,9.9407 8.90625,10.8125 0.7907,0.1975 2.35495,0.2164 3.40625,0.031 5.6284,-0.9909 12.0013,-5.8093 19.4375,-14.7187 3.7989,-4.5516 8.2286,-10.6446 11.125,-15.28126 2.6288,-4.2084 4.9,-8.76965 5.9375,-11.90625 l 0.1875,-0.5625 1.28125,-0.90625 c 1.4936,-1.0687 2.1065,-1.44935 2.875,-1.84375 0.5207,-0.2673 0.61015,-0.3195 1.09375,-0.3125 1.7222,0.0236 2.69955,1.4614 2.71875,3.9375 0.006,0.7567 -0.005,0.89615 -0.375,2.34375 -0.4691,1.8374 -1.22325,4.6615 -2.34375,8.6875 -1.5591,5.60146 -2.24875,8.34716 -2.90625,11.71876 -1.0017,5.1368 -1.10625,8.4417 -0.40625,11.1562 0.3637,1.4104 0.74905,2.3455 1.46875,3.4375 1.8077,2.743 4.59455,4.0625 8.46875,4.0625 2.6284,0 5.5965,-0.4854 8.3125,-1.4062 4.9147,-1.6661 9.5224,-4.5977 14.625,-9.25 0.3561,-0.3247 0.6739,-0.5775 0.6875,-0.5625 0.0137,0.015 0.11475,0.3227 0.21875,0.6875 0.5799,2.0361 1.56105,3.9344 2.71875,5.2187 1.7046,1.8911 4.1789,3.281 7.25,4.0625 2.0724,0.5274 3.94185,0.7485 6.78125,0.8125 1.899,0.043 1.95615,0.036 1.90625,-0.094 -0.359,-0.9356 -0.72725,-2.698 -0.90625,-4.3437 -0.3339,-3.0686 -0.36165,-7.7294 -0.0312,-11 0.6109,-6.0463 2.38375,-11.9745 5.21875,-17.53126 2.5482,-4.9948 4.9792,-7.94955 7.25,-8.84375 0.452,-0.178 0.6666,-0.2246 1.3125,-0.25 0.5327,-0.021 0.92645,0.0186 1.28125,0.0937 1.7509,0.3713 2.73135,1.48375 3.15625,3.59375 0.1303,0.6474 0.11525,3.0796 -0.0312,4.375 -0.2605,2.3036 -0.682,4.31655 -1.5,7.53126 -0.8846,3.4766 -1.26405,5.8431 -1.46875,8.7187 -0.2975,4.1769 -0.0506,6.992 0.84375,9.5938 1.4842,4.317 4.8625,6.7249 10.875,7.7187 1.6604,0.2745 3.18145,0.3925 5.59375,0.4375 2.1673,0.04 2.2289,0.035 2.1875,-0.094 -0.0234,-0.073 -0.17045,-0.532 -0.34375,-1.0312 -0.3706,-1.0675 -0.706,-2.5842 -0.875,-4.0938 -0.1496,-1.3356 -0.16735,-5.4473 -0.0312,-6.9062 0.6515,-6.9829 3.0581,-13.7619 7.4375,-21.00001 3.1751,-5.2478 6.0075,-8.21405 8.4375,-8.84375 0.5862,-0.1519 1.75485,-0.1239 2.21875,0.0625 1.308,0.5255 2.04595,1.68065 2.34375,3.65625 0.1345,0.8921 0.1361,2.8144 0,4.125 -0.2293,2.2089 -0.8473,5.64165 -1.5625,8.59371 -1.3445,5.5492 -1.6819,7.1513 -2.0625,10.1875 -0.6362,5.0754 -0.29875,8.618 1.03125,11.2188 1.1578,2.2638 3.16725,3.7121 5.96875,4.2812 2.0128,0.409 4.90555,0.3739 7.59375,-0.125 5.5746,-1.0344 11.2003,-3.9541 16.625,-8.625 l 1,-0.8437 0.3125,0.5625 c 0.3894,0.6744 1.0903,1.6931 1.625,2.375 0.5858,0.7473 2.4195,2.5202 3.1875,3.0937 3.0695,2.2926 6.86185,3.6321 11.53125,4.0625 2.1006,0.1936 5.5171,0.1653 8.4375,-0.094 9.1275,-0.8092 18.18575,-3.6207 26.96875,-8.3437 1.3392,-0.7201 4.48475,-2.5376 5.53125,-3.1875 0.4733,-0.294 0.87935,-0.5313 0.90625,-0.5313 0.027,0 0.17785,0.2904 0.34375,0.625 0.9816,1.9791 2.67625,4.2689 4.28125,5.7813 3.9454,3.7178 8.97165,5.7014 15.40625,6.125 0.9663,0.064 4.99915,-0.019 6.03125,-0.125 7.9877,-0.8173 14.60945,-3.7991 20.40625,-9.2188 3.7511,-3.5071 7.10515,-8.156 9.15625,-12.6562 2.2913,-5.0271 3.49365,-10.32631 3.65625,-16.25001 0.1782,-6.4936 -1.3678,-12.1706 -4.4375,-16.5 -1.2741,-1.7969 -2.9909,-3.6508 -4.375,-4.6875 -2.2952,-1.719 -5.021,-2.92915 -8,-3.53125 -2.1114,-0.4267 -3.9122,-0.5544 -6.5625,-0.5 -6.2275,0.1278 -11.64145,1.43505 -16.78125,4.03125 -4.5111,2.2787 -8.2,5.1713 -12.0625,9.5 -1.8057,2.0237 -2.94765,3.47765 -4.21875,5.40625 -3.1469,4.7748 -4.98145,9.80945 -5.53125,15.15625 -0.2087,2.02981 -0.18345,4.90671 0.0312,6.93751 l 0.0312,0.4062 -1.5625,0.6563 c -7.7207,3.3105 -14.2957,5.1158 -21,5.75 -1.6009,0.1516 -5.0038,0.2 -5.9375,0.094 -2.4368,-0.2775 -4.38725,-1.138 -5.96875,-2.6563 -0.4922,-0.4725 -1.30165,-1.375 -1.21875,-1.375 0.1376,0 2.26185,-0.4332 3.40625,-0.6875 8.3644,-1.8581 15.7211,-5.4796 21.6875,-10.65621 5.0819,-4.409 8.21445,-8.5604 9.59375,-12.75 0.6189,-1.8797 0.8077,-3.1447 0.75,-5.125 -0.0549,-1.8834 -0.361,-3.6238 -0.9375,-5.1875 -1.7684,-4.7962 -5.74565,-7.558 -12.09375,-8.375 -3.3464,-0.4307 -7.86835,-0.23 -11.71875,0.5 -9.4278,1.7875 -17.81125,7.0062 -24.84375,15.4375 -2.4061,2.8847 -4.2335,5.63205 -5.75,8.71875 -2.2234,4.5255 -3.28455,8.76346 -3.40625,13.65626 -0.0377,1.5137 0.048,3.9744 0.15625,4.4375 0.0264,0.113 -0.0691,0.1945 -0.59375,0.5312 -0.9025,0.5793 -1.81135,1.0603 -2.46875,1.2813 -0.5353,0.1796 -0.58995,0.1932 -1.59375,0.1562 -1.189,-0.043 -1.78555,-0.1984 -2.46875,-0.5625 -0.9303,-0.4959 -1.3239,-1.2544 -1.5,-3.0625 -0.2222,-2.2815 0.072,-4.0686 1.96875,-12.43746 1.5092,-6.6588 2.03935,-10.0209 2.21875,-13.625 0.25,-5.0248 -0.7955,-8.56615 -3.3125,-11.21875 -1.6345,-1.7226 -3.9555,-2.7106 -7,-3 -1.0541,-0.1002 -3.16535,-0.0634 -4.40625,0.0937 -5.1501,0.6526 -9.87135,2.9748 -14.34375,7.0625 -1.1128,1.0171 -2.95515,2.92405 -3.90625,4.03125 -0.4938,0.575 -1.2143,1.27755 -2,1.96875 l -1.21875,1.09375 -0.0625,-1.46875 c -0.095,-3.009 -0.52165,-5.1506 -1.46875,-7.125 -0.5108,-1.0647 -1.145,-1.92125 -1.9375,-2.71875 -2.1058,-2.119 -5.17995,-3.1292 -9.28125,-3 -4.4014,0.1387 -8.8258,1.427 -12.8125,3.6875 -0.8005,0.4538 -2.61915,1.6483 -3.40625,2.25 -2.8098,2.1482 -5.328,4.75795 -7.125,7.40625 -0.2592,0.3821 -0.46875,0.6713 -0.46875,0.625 0,-0.0463 0.0597,-0.40725 0.125,-0.78125 0.1827,-1.0474 0.16875,-3.54835 -0.0312,-4.84375 -0.3677,-2.3799 -1.17245,-4.4357 -2.46875,-6.375 -1.2578,-1.8816 -2.78165,-3.0063 -4.71875,-3.4375 -0.2943,-0.0655 -0.8284,-0.0908 -1.375,-0.0937 -0.7677,-0.004 -0.99865,0.0213 -1.40625,0.15625 -0.9316,0.3085 -2.023,0.9362 -3.4375,2 -1.8657,1.4031 -3.1946,2.60545 -7.6875,6.84375 -3.675,3.4668 -6.73815,6.31915 -7.34375,6.84375 -0.2176,0.1886 -0.40325,0.351 -0.40625,0.375 -0.005,0.0339 3.3989,3.9371 3.8125,4.375 0.0743,0.0786 0.229,-0.0319 1.0625,-0.625 2.0165,-1.4349 3.494,-2.30595 4.1875,-2.53125 0.9965,-0.3238 1.7769,0.30925 1.875,1.53125 0.043,0.5351 -0.10195,2.7645 -0.28125,4.5625 -0.2214,2.2205 -0.5841,4.8185 -1.3125,9.1875 -0.3777,2.26566 -0.78495,4.90296 -0.90625,5.84376 -0.1213,0.9408 -0.2336,1.7588 -0.25,1.8437 -0.0569,0.2934 -3.41155,2.897 -4.96875,3.8438 -0.8601,0.5229 -1.9747,1.0511 -2.5,1.1875 -0.9077,0.2357 -2.22265,0.07 -3.15625,-0.375 -0.3937,-0.1876 -0.6665,-0.3822 -1.0625,-0.7813 -1.0525,-1.0607 -1.55555,-2.4928 -1.65625,-4.8125 -0.0401,-0.9254 -0.009,-1.0122 0.40625,-3.5937 1.247,-7.75421 2.3871,-14.18131 3.5,-19.75001 0.6001,-3.0024 0.6944,-3.6337 0.75,-4.5625 0.1944,-3.2454 -0.45565,-6.071 -1.90625,-8.25 -1.5917,-2.391 -3.89235,-3.46565 -7.21875,-3.34375 -0.8896,0.0326 -1.20515,0.0686 -1.71875,0.21875 -2.6589,0.7779 -5.83605,3.0517 -11.28125,8.0625 -1.3227,1.2171 -2.53815,2.3368 -2.71875,2.5 l -0.34375,0.3125 -0.0312,-0.59375 c -0.477,-5.9772 -2.6684,-9.4583 -6.8125,-10.8125 -1.14266,-0.37342 -2.52641,-0.58793 -4,-0.625 z M 394.875,979.38234 c 0.93589,0.0433 1.52242,0.30852 2.15625,0.875 0.798,0.7131 1.38605,1.756 1.96875,3.5 0.6399,1.9149 0.9379,3.65795 1,5.96875 0.153,5.6913 -1.47045,11.43241 -4.71875,16.84371 -3.172,5.2844 -6.88935,8.2088 -11.09375,8.7188 -1.424,0.1727 -2.67205,0.072 -3.53125,-0.3125 -1.1424,-0.5111 -2.21735,-1.6846 -3.03125,-3.3125 -1.1642,-2.3285 -1.6244,-4.8016 -1.4375,-7.7813 0.3495,-5.56996 1.93165,-10.51136 4.90625,-15.43746 2.2961,-3.8024 4.75485,-6.26655 7.71875,-7.71875 1.5612,-0.7649 3.1727,-1.1819 5,-1.3125 0.40283,-0.0288 0.75054,-0.0457 1.0625,-0.0312 z m -62.0625,1.96875 c 0.72383,-0.0428 1.63885,-0.004 2.03125,0.125 0.5216,0.1714 1.05325,0.51295 1.34375,0.84375 0.292,0.3326 0.6252,0.9776 0.75,1.5 0.1571,0.6574 0.19545,1.8245 0.0937,2.4375 -0.2143,1.2911 -0.89185,2.8221 -1.96875,4.4375 -3.455,5.1827 -9.31205,9.75796 -15.78125,12.34376 -0.4453,0.178 -0.8307,0.3125 -0.875,0.3125 -0.1042,0 -0.13245,-2.136 -0.0312,-3.1563 0.3925,-3.95866 2.11085,-7.90171 5.21875,-12.09371 2.8615,-3.8596 5.70595,-6.0763 8.59375,-6.6875 0.16955,-0.0359 0.38372,-0.0482 0.625,-0.0625 z"
       id="path3992" />
    <path
       inkscape:connector-curvature="0"
       style="fill:#aaeeff;fill-opacity:0.81176471"
       d="m 180.74455,956.44147 c -1.6024,-0.1439 -3.2295,-0.5988 -4.2788,-1.1962 -0.5796,-0.3299 -1.4782,-1.1288 -1.8697,-1.6621 -0.5644,-0.7689 -0.9762,-1.8214 -1.1861,-3.0317 -0.1635,-0.9423 -0.1453,-2.7338 0.0369,-3.628 0.3716,-1.8244 1.3619,-3.5428 3.0484,-5.29 3.1476,-3.2608 6.8737,-5.1396 10.9362,-5.5143 2.4969,-0.2303 4.3024,0.183 5.8309,1.3347 1.4435,1.0877 2.7562,2.9605 3.263,4.6551 0.2485,0.8307 0.3082,2.2624 0.1366,3.2752 -0.3977,2.3476 -1.7064,4.5745 -4.0031,6.8117 -2.4373,2.3741 -5.0399,3.6914 -8.1853,4.1431 -0.9191,0.132 -2.8187,0.1842 -3.729,0.1025 z"
       id="path2933" />
  </g>
</svg>
